<svg width="40" height="41" viewBox="0 0 40 41" fill="none" xmlns="http://www.w3.org/2000/svg">
<path d="M13.1144 26.3258L11.6667 37.2259L19.314 32.6375C19.5634 32.4879 19.6881 32.413 19.8213 32.3838C19.939 32.3579 20.061 32.3579 20.1787 32.3838C20.3119 32.413 20.4366 32.4879 20.686 32.6375L28.3333 37.2259L26.8865 26.3211M27.3765 7.64071C27.6339 8.26324 28.1279 8.75808 28.7501 9.01642L30.9315 9.92005C31.5541 10.1779 32.0487 10.6726 32.3066 11.2952C32.5645 11.9177 32.5645 12.6173 32.3066 13.2398L31.4036 15.4198C31.1457 16.0427 31.1453 16.7429 31.4045 17.3655L32.3058 19.5448C32.4337 19.8532 32.4995 20.1837 32.4996 20.5175C32.4996 20.8513 32.4339 21.1819 32.3062 21.4903C32.1784 21.7987 31.9912 22.0789 31.7551 22.3149C31.519 22.5509 31.2388 22.738 30.9304 22.8657L28.7504 23.7687C28.1279 24.0261 27.6331 24.5202 27.3748 25.1423L26.4712 27.3239C26.2133 27.9464 25.7187 28.4411 25.0961 28.699C24.4736 28.9568 23.7741 28.9568 23.1515 28.699L20.9716 27.796C20.349 27.5387 19.6498 27.5393 19.0276 27.7974L16.8461 28.6998C16.2239 28.9571 15.525 28.9568 14.903 28.6992C14.2809 28.4415 13.7866 27.9474 13.5285 27.3255L12.6246 25.1433C12.3673 24.5208 11.8732 24.026 11.2511 23.7676L9.06958 22.864C8.44729 22.6062 7.95282 22.1119 7.69485 21.4897C7.43689 20.8674 7.43654 20.1682 7.69388 19.5458L8.59683 17.3658C8.85407 16.7432 8.85354 16.0439 8.59537 15.4217L7.69372 13.2386C7.56588 12.9302 7.50005 12.5997 7.5 12.2659C7.49995 11.9321 7.56567 11.6015 7.6934 11.2931C7.82114 10.9847 8.00839 10.7045 8.24446 10.4685C8.48053 10.2325 8.76078 10.0454 9.06921 9.91771L11.2491 9.01472C11.8711 8.75754 12.3656 8.26408 12.6241 7.64265L13.5277 5.46109C13.7856 4.83851 14.2802 4.34387 14.9028 4.08599C15.5253 3.82811 16.2248 3.82811 16.8474 4.08599L19.0273 4.98897C19.6499 5.24622 20.3491 5.24569 20.9713 4.98751L23.1537 4.08739C23.7762 3.82965 24.4755 3.82971 25.098 4.08754C25.7204 4.34537 26.215 4.83986 26.4729 5.46228L27.3767 7.64449L27.3765 7.64071Z" stroke="#EE1338" stroke-width="2.67" stroke-linecap="round" stroke-linejoin="round"/>
</svg>
