<svg width="64" height="65" viewBox="0 0 64 65" fill="none" xmlns="http://www.w3.org/2000/svg">
<rect y="0.558594" width="64" height="64" rx="4" fill="white"/>
<path d="M25.334 47.5586V24.2253C25.334 22.6753 25.334 21.9003 25.5044 21.2645C25.9667 19.539 27.3144 18.1913 29.0399 17.729C29.6757 17.5586 30.4507 17.5586 32.0007 17.5586C33.5506 17.5586 34.3256 17.5586 34.9614 17.729C36.6869 18.1913 38.0346 19.539 38.4969 21.2645C38.6673 21.9003 38.6673 22.6753 38.6673 24.2253V47.5586M20.6673 47.5586H43.334C45.2008 47.5586 46.1342 47.5586 46.8473 47.1953C47.4745 46.8757 47.9844 46.3658 48.304 45.7386C48.6673 45.0255 48.6673 44.0921 48.6673 42.2253V29.5586C48.6673 27.6918 48.6673 26.7583 48.304 26.0453C47.9844 25.4181 47.4745 24.9081 46.8473 24.5886C46.1342 24.2253 45.2008 24.2253 43.334 24.2253H20.6673C18.8005 24.2253 17.8671 24.2253 17.154 24.5886C16.5268 24.9081 16.0169 25.4181 15.6973 26.0453C15.334 26.7583 15.334 27.6918 15.334 29.5586V42.2253C15.334 44.0921 15.334 45.0255 15.6973 45.7386C16.0169 46.3658 16.5268 46.8757 17.154 47.1953C17.8671 47.5586 18.8005 47.5586 20.6673 47.5586Z" stroke="#EE1338" stroke-width="2.67" stroke-linecap="round" stroke-linejoin="round"/>
</svg>
