<svg width="40" height="41" viewBox="0 0 40 41" fill="none" xmlns="http://www.w3.org/2000/svg">
<path d="M8.33333 15.559V28.8923M15.8333 15.559V28.8923M24.1667 15.559V28.8923M31.6667 15.559V28.8923M5 31.559L5 32.8923C5 33.8257 5 34.2924 5.18166 34.6489C5.34144 34.9625 5.59641 35.2175 5.91002 35.3773C6.26654 35.559 6.73325 35.559 7.66667 35.559H32.3333C33.2668 35.559 33.7335 35.559 34.09 35.3773C34.4036 35.2175 34.6586 34.9625 34.8183 34.6489C35 34.2924 35 33.8257 35 32.8923V31.559C35 30.6255 35 30.1588 34.8183 29.8023C34.6586 29.4887 34.4036 29.2337 34.09 29.0739C33.7335 28.8923 33.2668 28.8923 32.3333 28.8923H7.66667C6.73325 28.8923 6.26654 28.8923 5.91002 29.0739C5.59641 29.2337 5.34144 29.4887 5.18166 29.8023C5 30.1588 5 30.6255 5 31.559ZM19.4215 5.6875L7.08819 8.42824C6.34308 8.59382 5.97053 8.67661 5.69244 8.87696C5.44715 9.05367 5.25455 9.29378 5.13525 9.57156C5 9.88649 5 10.2681 5 11.0314L5 12.8923C5 13.8257 5 14.2924 5.18166 14.6489C5.34144 14.9625 5.59641 15.2175 5.91002 15.3773C6.26654 15.559 6.73325 15.559 7.66667 15.559H32.3333C33.2668 15.559 33.7335 15.559 34.09 15.3773C34.4036 15.2175 34.6586 14.9625 34.8183 14.6489C35 14.2924 35 13.8257 35 12.8923V11.0314C35 10.2681 35 9.8865 34.8647 9.57156C34.7455 9.29378 34.5528 9.05367 34.3076 8.87696C34.0295 8.67661 33.6569 8.59382 32.9118 8.42825L20.5785 5.6875C20.3626 5.63953 20.2547 5.61555 20.1456 5.60598C20.0487 5.59749 19.9513 5.59749 19.8544 5.60598C19.7453 5.61555 19.6374 5.63953 19.4215 5.6875Z" stroke="#EE1338" stroke-width="2.67" stroke-linecap="round" stroke-linejoin="round"/>
</svg>
