<svg width="65" height="65" viewBox="0 0 65 65" fill="none" xmlns="http://www.w3.org/2000/svg">
<rect x="0.203125" y="0.96875" width="64" height="64" rx="4" fill="white"/>
<path d="M38.8694 26.3027V21.3027L43.8694 16.3027L45.5361 19.6361L48.8694 21.3027L43.8694 26.3027H38.8694ZM38.8694 26.3027L32.2028 32.9693M48.8695 32.9694C48.8695 42.1741 41.4075 49.6361 32.2028 49.6361C22.9981 49.6361 15.5361 42.1741 15.5361 32.9694C15.5361 23.7647 22.9981 16.3027 32.2028 16.3027M40.5361 32.9694C40.5361 37.5718 36.8052 41.3027 32.2028 41.3027C27.6004 41.3027 23.8695 37.5718 23.8695 32.9694C23.8695 28.367 27.6004 24.6361 32.2028 24.6361" stroke="#EE1338" stroke-width="2.67" stroke-linecap="round" stroke-linejoin="round"/>
</svg>
