<svg width="40" height="41" viewBox="0 0 40 41" fill="none" xmlns="http://www.w3.org/2000/svg">
<path d="M26.666 7.22591C28.216 7.22591 28.9909 7.22591 29.6268 7.39628C31.3522 7.85862 32.7 9.20636 33.1623 10.9318C33.3327 11.5676 33.3327 12.3426 33.3327 13.8926V29.2259C33.3327 32.0262 33.3327 33.4263 32.7877 34.4959C32.3083 35.4367 31.5434 36.2016 30.6026 36.6809C29.5331 37.2259 28.1329 37.2259 25.3327 37.2259H14.666C11.8658 37.2259 10.4656 37.2259 9.39606 36.6809C8.45525 36.2016 7.69035 35.4367 7.21098 34.4959C6.66602 33.4263 6.66602 32.0262 6.66602 29.2259V13.8926C6.66602 12.3426 6.66602 11.5676 6.83639 10.9318C7.29872 9.20636 8.64646 7.85862 10.3719 7.39628C11.0078 7.22591 11.7827 7.22591 13.3327 7.22591M14.9993 25.5592L18.3327 28.8926L25.8327 21.3926M15.9993 10.5592H23.9993C24.9328 10.5592 25.3995 10.5592 25.756 10.3776C26.0696 10.2178 26.3246 9.96283 26.4844 9.64923C26.666 9.29271 26.666 8.826 26.666 7.89258V6.55925C26.666 5.62582 26.666 5.15911 26.4844 4.80259C26.3246 4.48899 26.0696 4.23402 25.756 4.07423C25.3995 3.89258 24.9328 3.89258 23.9993 3.89258H15.9993C15.0659 3.89258 14.5992 3.89258 14.2427 4.07423C13.9291 4.23402 13.6741 4.48899 13.5143 4.80259C13.3327 5.15911 13.3327 5.62582 13.3327 6.55924V7.89258C13.3327 8.826 13.3327 9.29271 13.5143 9.64923C13.6741 9.96283 13.9291 10.2178 14.2427 10.3776C14.5992 10.5592 15.0659 10.5592 15.9993 10.5592Z" stroke="#EE1237" stroke-width="2.67" stroke-linecap="round" stroke-linejoin="round"/>
</svg>
