<svg width="65" height="65" viewBox="0 0 65 65" fill="none" xmlns="http://www.w3.org/2000/svg">
<rect x="0.203125" y="0.96875" width="64" height="64" rx="4" fill="white"/>
<path d="M15.5361 41.3021V41.0518C15.5361 40.5243 15.5361 40.2605 15.5765 40.0036C15.6123 39.7754 15.6717 39.5516 15.7538 39.3358C15.8463 39.0927 15.9771 38.8637 16.2388 38.4057L22.2028 27.9687M15.5361 41.3021C15.5361 44.984 18.5209 47.9687 22.2028 47.9687C25.8847 47.9687 28.8695 44.984 28.8695 41.3021M15.5361 41.3021V40.9687C15.5361 40.502 15.5361 40.2687 15.627 40.0904C15.7069 39.9336 15.8343 39.8061 15.9911 39.7262C16.1694 39.6354 16.4028 39.6354 16.8695 39.6354H27.5361C28.0028 39.6354 28.2362 39.6354 28.4145 39.7262C28.5713 39.8061 28.6987 39.9336 28.7786 40.0904C28.8695 40.2687 28.8695 40.502 28.8695 40.9687V41.3021M22.2028 27.9687L28.1668 38.4057C28.4285 38.8637 28.5593 39.0927 28.6518 39.3358C28.7339 39.5516 28.7933 39.7754 28.8291 40.0036C28.8695 40.2605 28.8695 40.5243 28.8695 41.0518V41.3021M22.2028 27.9687L42.2028 24.6354M35.5361 37.9687V37.7184C35.5361 37.1909 35.5361 36.9272 35.5765 36.6702C35.6123 36.4421 35.6717 36.2183 35.7538 36.0024C35.8463 35.7593 35.9771 35.5303 36.2388 35.0724L42.2028 24.6354M35.5361 37.9687C35.5361 41.6506 38.5209 44.6354 42.2028 44.6354C45.8847 44.6354 48.8695 41.6506 48.8695 37.9687M35.5361 37.9687V37.6354C35.5361 37.1687 35.5361 36.9354 35.627 36.7571C35.7069 36.6003 35.8343 36.4728 35.9911 36.3929C36.1694 36.3021 36.4028 36.3021 36.8695 36.3021H47.5361C48.0028 36.3021 48.2362 36.3021 48.4145 36.3929C48.5713 36.4728 48.6987 36.6003 48.7786 36.7571C48.8695 36.9354 48.8695 37.1687 48.8695 37.6354V37.9687M42.2028 24.6354L48.1668 35.0724C48.4285 35.5303 48.5593 35.7593 48.6518 36.0024C48.7339 36.2183 48.7933 36.4421 48.8291 36.6702C48.8695 36.9272 48.8695 37.1909 48.8695 37.7184V37.9687M32.2028 17.9688V26.3021" stroke="#EE1338" stroke-width="2.67" stroke-linecap="round" stroke-linejoin="round"/>
</svg>
