<svg width="41" height="41" viewBox="0 0 41 41" fill="none" xmlns="http://www.w3.org/2000/svg">
<path d="M18.5361 8.4694H30.7028C32.5696 8.4694 33.5031 8.4694 34.2161 8.83271C34.8433 9.15229 35.3532 9.66223 35.6728 10.2894C36.0361 11.0025 36.0361 11.9359 36.0361 13.8027V15.9694C36.0361 17.5225 36.0361 18.2991 35.7824 18.9117C35.4441 19.7284 34.7952 20.3774 33.9784 20.7157C33.3658 20.9694 32.5893 20.9694 31.0361 20.9694M21.8695 33.4694H9.7028C7.83596 33.4694 6.90254 33.4694 6.1895 33.1061C5.56229 32.7865 5.05236 32.2766 4.73278 31.6494C4.36947 30.9363 4.36947 30.0029 4.36947 28.1361V25.9694C4.36947 24.4163 4.36947 23.6397 4.6232 23.0271C4.96151 22.2104 5.61043 21.5614 6.42719 21.2231C7.03976 20.9694 7.81633 20.9694 9.36947 20.9694M17.3695 25.1361H23.0361C23.5028 25.1361 23.7362 25.1361 23.9145 25.0452C24.0713 24.9653 24.1987 24.8379 24.2786 24.6811C24.3695 24.5028 24.3695 24.2694 24.3695 23.8027V18.1361C24.3695 17.6694 24.3695 17.436 24.2786 17.2577C24.1987 17.1009 24.0713 16.9735 23.9145 16.8936C23.7362 16.8027 23.5028 16.8027 23.0361 16.8027H17.3695C16.9028 16.8027 16.6694 16.8027 16.4911 16.8936C16.3343 16.9735 16.2069 17.1009 16.127 17.2577C16.0361 17.436 16.0361 17.6694 16.0361 18.1361V23.8027C16.0361 24.2694 16.0361 24.5028 16.127 24.6811C16.2069 24.8379 16.3343 24.9653 16.4911 25.0452C16.6694 25.1361 16.9028 25.1361 17.3695 25.1361ZM29.8695 37.6361H35.5361C36.0028 37.6361 36.2362 37.6361 36.4145 37.5452C36.5713 37.4653 36.6987 37.3379 36.7786 37.1811C36.8695 37.0028 36.8695 36.7694 36.8695 36.3027V30.6361C36.8695 30.1694 36.8695 29.936 36.7786 29.7577C36.6987 29.6009 36.5713 29.4735 36.4145 29.3936C36.2362 29.3027 36.0028 29.3027 35.5361 29.3027H29.8695C29.4028 29.3027 29.1694 29.3027 28.9911 29.3936C28.8343 29.4735 28.7069 29.6009 28.627 29.7577C28.5361 29.936 28.5361 30.1694 28.5361 30.6361V36.3027C28.5361 36.7694 28.5361 37.0028 28.627 37.1811C28.7069 37.3379 28.8343 37.4653 28.9911 37.5452C29.1694 37.6361 29.4028 37.6361 29.8695 37.6361ZM4.86947 12.6361H10.5361C11.0028 12.6361 11.2362 12.6361 11.4145 12.5452C11.5713 12.4653 11.6987 12.3379 11.7786 12.1811C11.8695 12.0028 11.8695 11.7694 11.8695 11.3027V5.63607C11.8695 5.16936 11.8695 4.936 11.7786 4.75774C11.6987 4.60094 11.5713 4.47346 11.4145 4.39356C11.2362 4.30273 11.0028 4.30273 10.5361 4.30273H4.86947C4.40276 4.30273 4.1694 4.30273 3.99114 4.39356C3.83434 4.47346 3.70686 4.60094 3.62696 4.75774C3.53613 4.936 3.53613 5.16936 3.53613 5.63607V11.3027C3.53613 11.7694 3.53613 12.0028 3.62696 12.1811C3.70686 12.3379 3.83434 12.4653 3.99114 12.5452C4.1694 12.6361 4.40276 12.6361 4.86947 12.6361Z" stroke="#EE1338" stroke-width="2.66667" stroke-linecap="round" stroke-linejoin="round"/>
</svg>
