<svg width="41" height="41" viewBox="0 0 41 41" fill="none" xmlns="http://www.w3.org/2000/svg">
<path d="M10.2028 34.4468H14.5533C15.1205 34.4468 15.6843 34.5143 16.2342 34.6493L20.831 35.7664C21.8284 36.0094 22.8674 36.033 23.8753 35.8373L28.9578 34.8484C30.3004 34.5869 31.5354 33.944 32.5034 33.0024L36.0993 29.5044C37.1262 28.5072 37.1262 26.889 36.0993 25.89C35.1747 24.9906 33.7107 24.8894 32.6647 25.6521L28.4738 28.7097C27.8736 29.1484 27.1433 29.3846 26.3922 29.3846H22.3453L24.9212 29.3845C26.3731 29.3845 27.5492 28.2405 27.5492 26.8281V26.3168C27.5492 25.1441 26.7287 24.1215 25.5596 23.838L21.5838 22.8712C20.9368 22.7142 20.2741 22.6349 19.608 22.6349C18 22.6349 15.0893 23.9663 15.0893 23.9663L10.2028 26.0097M3.53613 25.3016L3.53613 34.9683C3.53613 35.9017 3.53613 36.3684 3.71779 36.7249C3.87758 37.0385 4.13254 37.2935 4.44615 37.4533C4.80267 37.6349 5.26938 37.6349 6.2028 37.6349H7.53613C8.46955 37.6349 8.93626 37.6349 9.29278 37.4533C9.60639 37.2935 9.86135 37.0385 10.0211 36.7249C10.2028 36.3684 10.2028 35.9017 10.2028 34.9683V25.3016C10.2028 24.3682 10.2028 23.9015 10.0211 23.5449C9.86135 23.2313 9.60639 22.9764 9.29278 22.8166C8.93626 22.6349 8.46955 22.6349 7.53613 22.6349H6.2028C5.26938 22.6349 4.80267 22.6349 4.44615 22.8166C4.13255 22.9764 3.87758 23.2313 3.71779 23.5449C3.53613 23.9015 3.53613 24.3682 3.53613 25.3016ZM28.8551 6.95534C27.8604 4.87391 25.5671 3.77122 23.3369 4.83554C21.1066 5.89985 20.1565 8.42388 21.0902 10.6396C21.6673 12.009 23.3207 14.6683 24.4996 16.5C24.9352 17.1768 25.153 17.5152 25.4711 17.7131C25.744 17.8829 26.0856 17.9745 26.4068 17.9638C26.7813 17.9515 27.1391 17.7673 27.8547 17.399C29.7915 16.4021 32.553 14.9258 33.7375 14.0285C35.654 12.5764 36.1288 9.90754 34.6939 7.87865C33.2591 5.84976 30.7572 5.65012 28.8551 6.95534Z" stroke="#EE1338" stroke-width="2.66667" stroke-linecap="round" stroke-linejoin="round"/>
</svg>
