<svg width="40" height="41" viewBox="0 0 40 41" fill="none" xmlns="http://www.w3.org/2000/svg">
<path d="M13.5434 23.8912C14.2834 26.7665 16.8936 28.8912 20 28.8912C23.1064 28.8912 25.7166 26.7665 26.4566 23.8912M18.3628 5.16453L7.05898 13.9564C6.30337 14.5441 5.92556 14.838 5.65338 15.206C5.41228 15.5319 5.23267 15.8992 5.12338 16.2896C5 16.7304 5 17.209 5 18.1663V30.2245C5 32.0913 5 33.0248 5.36331 33.7378C5.68289 34.365 6.19282 34.8749 6.82003 35.1945C7.53307 35.5578 8.46649 35.5578 10.3333 35.5578H29.6667C31.5335 35.5578 32.4669 35.5578 33.18 35.1945C33.8072 34.8749 34.3171 34.365 34.6367 33.7378C35 33.0248 35 32.0913 35 30.2245V18.1663C35 17.209 35 16.7304 34.8766 16.2896C34.7673 15.8992 34.5877 15.5319 34.3466 15.206C34.0744 14.838 33.6966 14.5441 32.941 13.9564L21.6372 5.16453C21.0516 4.7091 20.7589 4.48139 20.4356 4.39386C20.1503 4.31663 19.8497 4.31663 19.5644 4.39386C19.2411 4.48139 18.9484 4.7091 18.3628 5.16453Z" stroke="#EE1338" stroke-width="2.67" stroke-linecap="round" stroke-linejoin="round"/>
</svg>
