<svg width="41" height="41" viewBox="0 0 41 41" fill="none" xmlns="http://www.w3.org/2000/svg">
<path d="M15.4299 16.1965L8.41769 9.18433M8.41769 32.7546L15.4827 25.6895M24.9712 25.7423L31.9835 32.7546M31.9835 9.18433L24.9174 16.2504M36.8695 20.9694C36.8695 30.1741 29.4075 37.6361 20.2028 37.6361C10.9981 37.6361 3.53613 30.1741 3.53613 20.9694C3.53613 11.7647 10.9981 4.30273 20.2028 4.30273C29.4075 4.30273 36.8695 11.7647 36.8695 20.9694ZM26.8695 20.9694C26.8695 24.6513 23.8847 27.6361 20.2028 27.6361C16.5209 27.6361 13.5361 24.6513 13.5361 20.9694C13.5361 17.2875 16.5209 14.3027 20.2028 14.3027C23.8847 14.3027 26.8695 17.2875 26.8695 20.9694Z" stroke="#EE1338" stroke-width="2.67" stroke-linecap="round" stroke-linejoin="round"/>
</svg>
