<svg width="41" height="41" viewBox="0 0 41 41" fill="none" xmlns="http://www.w3.org/2000/svg">
<path d="M20.2028 4.30273V5.9694M5.2028 20.9694H3.53613M9.36947 10.1361L8.3693 9.13591M31.0361 10.1361L32.0365 9.13591M36.8695 20.9694H35.2028M16.8695 23.4694H23.5361M20.2028 23.4694V31.8027M26.0361 29.0927C28.5596 27.2774 30.2028 24.3153 30.2028 20.9694C30.2028 15.4466 25.7256 10.9694 20.2028 10.9694C14.68 10.9694 10.2028 15.4466 10.2028 20.9694C10.2028 24.3153 11.846 27.2774 14.3695 29.0927V32.3027C14.3695 34.1696 14.3695 35.103 14.7328 35.816C15.0524 36.4432 15.5623 36.9532 16.1895 37.2728C16.9025 37.6361 17.836 37.6361 19.7028 37.6361H20.7028C22.5696 37.6361 23.5031 37.6361 24.2161 37.2728C24.8433 36.9532 25.3532 36.4432 25.6728 35.816C26.0361 35.103 26.0361 34.1696 26.0361 32.3027V29.0927Z" stroke="#EE1338" stroke-width="2.67" stroke-linecap="round" stroke-linejoin="round"/>
</svg>
