<svg width="64" height="65" viewBox="0 0 64 65" fill="none" xmlns="http://www.w3.org/2000/svg">
<rect y="0.558594" width="64" height="64" rx="4" fill="white"/>
<path d="M33.6673 24.2253L31.8081 20.5068C31.273 19.4366 31.0054 18.9015 30.6063 18.5105C30.2533 18.1648 29.8279 17.9019 29.3608 17.7408C28.8326 17.5586 28.2343 17.5586 27.0378 17.5586H20.6673C18.8005 17.5586 17.8671 17.5586 17.154 17.9219C16.5268 18.2415 16.0169 18.7514 15.6973 19.3786C15.334 20.0917 15.334 21.0251 15.334 22.8919V24.2253M15.334 24.2253H40.6673C43.4676 24.2253 44.8677 24.2253 45.9373 24.7702C46.8781 25.2496 47.643 26.0145 48.1224 26.9553C48.6673 28.0249 48.6673 29.425 48.6673 32.2253V39.5586C48.6673 42.3589 48.6673 43.759 48.1224 44.8285C47.643 45.7694 46.8781 46.5343 45.9373 47.0136C44.8677 47.5586 43.4676 47.5586 40.6673 47.5586H23.334C20.5337 47.5586 19.1336 47.5586 18.064 47.0136C17.1232 46.5343 16.3583 45.7694 15.879 44.8285C15.334 43.759 15.334 42.3589 15.334 39.5586V24.2253ZM27.0007 35.8919L30.334 39.2253L37.834 31.7253" stroke="#EE1338" stroke-width="2.67" stroke-linecap="round" stroke-linejoin="round"/>
</svg>
