<svg width="40" height="41" viewBox="0 0 40 41" fill="none" xmlns="http://www.w3.org/2000/svg">
<path d="M10.1579 19.2739C10.0543 18.6063 10.0006 17.9223 10.0006 17.2259C10.0006 9.86211 16.0094 3.89258 23.4216 3.89258C30.8339 3.89258 36.8427 9.86211 36.8427 17.2259C36.8427 18.8894 36.5361 20.4817 35.9759 21.9501C35.8596 22.2551 35.8014 22.4075 35.775 22.5266C35.7488 22.6446 35.7387 22.7275 35.7359 22.8483C35.733 22.9702 35.7495 23.1045 35.7826 23.3731L36.4536 28.8235C36.5262 29.4135 36.5625 29.7085 36.4644 29.9229C36.3784 30.1109 36.2256 30.2601 36.0358 30.3418C35.8191 30.4349 35.525 30.3918 34.9368 30.3056L29.6281 29.5274C29.3509 29.4868 29.2123 29.4665 29.0861 29.4672C28.9612 29.4679 28.8748 29.4771 28.7526 29.5028C28.629 29.5288 28.4712 29.5879 28.1556 29.7061C26.6834 30.2575 25.088 30.5592 23.4216 30.5592C22.7247 30.5592 22.0401 30.5065 21.3718 30.4047M12.7199 37.2259C17.6614 37.2259 21.6673 33.1219 21.6673 28.0592C21.6673 22.9966 17.6614 18.8926 12.7199 18.8926C7.77845 18.8926 3.77258 22.9966 3.77258 28.0592C3.77258 29.0769 3.93444 30.0558 4.23323 30.9705C4.35954 31.3571 4.42269 31.5504 4.44341 31.6825C4.46505 31.8203 4.46884 31.8978 4.46078 32.0371C4.45306 32.1706 4.41967 32.3214 4.35289 32.6231L3.33398 37.2259L8.32532 36.5442C8.59776 36.507 8.73398 36.4884 8.85293 36.4892C8.97818 36.4901 9.04466 36.4969 9.1675 36.5214C9.28416 36.5446 9.45758 36.6058 9.80444 36.7282C10.7183 37.0508 11.6992 37.2259 12.7199 37.2259Z" stroke="#EE1338" stroke-width="2.67" stroke-linecap="round" stroke-linejoin="round"/>
</svg>
