<svg width="21" height="21" viewBox="0 0 21 21" fill="none" xmlns="http://www.w3.org/2000/svg">
<path d="M10.4525 14.8522H10.4608M7.28581 18.6022H13.6191C14.5526 18.6022 15.0193 18.6022 15.3758 18.4206C15.6894 18.2608 15.9444 18.0058 16.1042 17.6922C16.2858 17.3357 16.2858 16.869 16.2858 15.9355V4.60221C16.2858 3.66879 16.2858 3.20208 16.1042 2.84556C15.9444 2.53196 15.6894 2.27699 15.3758 2.1172C15.0193 1.93555 14.5526 1.93555 13.6191 1.93555H7.28581C6.35239 1.93555 5.88568 1.93555 5.52916 2.1172C5.21555 2.27699 4.96059 2.53196 4.8008 2.84556C4.61914 3.20208 4.61914 3.66879 4.61914 4.60221V15.9355C4.61914 16.869 4.61914 17.3357 4.8008 17.6922C4.96059 18.0058 5.21555 18.2608 5.52916 18.4206C5.88568 18.6022 6.35239 18.6022 7.28581 18.6022ZM10.8691 14.8522C10.8691 15.0823 10.6826 15.2689 10.4525 15.2689C10.2224 15.2689 10.0358 15.0823 10.0358 14.8522C10.0358 14.6221 10.2224 14.4355 10.4525 14.4355C10.6826 14.4355 10.8691 14.6221 10.8691 14.8522Z" stroke="black" stroke-width="1.2" stroke-linecap="round" stroke-linejoin="round"/>
</svg>
