<svg width="21" height="21" viewBox="0 0 21 21" fill="none" xmlns="http://www.w3.org/2000/svg">
<path d="M9.2024 11.5197L17.9524 2.76968M9.30872 11.7931L11.4988 17.4247C11.6917 17.9209 11.7882 18.1689 11.9272 18.2413C12.0477 18.3041 12.1913 18.3042 12.3118 18.2416C12.4509 18.1693 12.5477 17.9214 12.7412 17.4255L18.2331 3.35234C18.4078 2.90469 18.4952 2.68086 18.4474 2.53784C18.4059 2.41363 18.3084 2.31616 18.1842 2.27467C18.0412 2.22689 17.8174 2.31423 17.3697 2.48893L3.29661 7.98088C2.80072 8.1744 2.55277 8.27116 2.48051 8.41024C2.41787 8.53082 2.41796 8.67436 2.48074 8.79486C2.55316 8.93386 2.80122 9.03033 3.29734 9.22326L8.92901 11.4134C9.02972 11.4525 9.08007 11.4721 9.12247 11.5023C9.16006 11.5292 9.19292 11.562 9.21973 11.5996C9.24997 11.642 9.26955 11.6924 9.30872 11.7931Z" stroke="black" stroke-width="1.2" stroke-linecap="round" stroke-linejoin="round"/>
</svg>
