<svg width="41" height="41" viewBox="0 0 41 41" fill="none" xmlns="http://www.w3.org/2000/svg">
<path d="M23.5361 12.6348H27.4316C27.8392 12.6348 28.043 12.6348 28.2349 12.6808C28.4049 12.7216 28.5675 12.789 28.7166 12.8804C28.8848 12.9834 29.0289 13.1276 29.3172 13.4158L36.0884 20.1871C36.3767 20.4753 36.5208 20.6194 36.6239 20.7876C36.7152 20.9367 36.7826 21.0993 36.8234 21.2694C36.8695 21.4612 36.8695 21.665 36.8695 22.0727V26.8014C36.8695 27.578 36.8695 27.9663 36.7426 28.2726C36.5734 28.681 36.249 29.0054 35.8406 29.1746C35.5343 29.3014 35.146 29.3014 34.3695 29.3014M26.0361 29.3014H23.5361M23.5361 29.3014V12.9681C23.5361 11.1013 23.5361 10.1678 23.1728 9.4548C22.8532 8.82759 22.3433 8.31766 21.7161 7.99808C21.0031 7.63477 20.0696 7.63477 18.2028 7.63477H8.86947C7.00262 7.63477 6.0692 7.63477 5.35616 7.99808C4.72896 8.31766 4.21902 8.82759 3.89944 9.4548C3.53613 10.1678 3.53613 11.1013 3.53613 12.9681V25.9681C3.53613 27.809 5.02852 29.3014 6.86947 29.3014M23.5361 29.3014H16.8695M16.8695 29.3014C16.8695 32.0629 14.6309 34.3014 11.8695 34.3014C9.10804 34.3014 6.86947 32.0629 6.86947 29.3014M16.8695 29.3014C16.8695 26.54 14.6309 24.3014 11.8695 24.3014C9.10804 24.3014 6.86947 26.54 6.86947 29.3014M34.3695 30.1348C34.3695 32.436 32.504 34.3014 30.2028 34.3014C27.9016 34.3014 26.0361 32.436 26.0361 30.1348C26.0361 27.8336 27.9016 25.9681 30.2028 25.9681C32.504 25.9681 34.3695 27.8336 34.3695 30.1348Z" stroke="#EE1237" stroke-width="2.67" stroke-linecap="round" stroke-linejoin="round"/>
</svg>
