<svg width="73" height="73" viewBox="0 0 73 73" fill="none" xmlns="http://www.w3.org/2000/svg">
<path d="M58.2174 36.7428C60.4143 36.7428 62.2017 34.9555 62.2017 32.7586V31.854C62.5683 31.984 62.9626 32.0555 63.3732 32.0555C65.3117 32.0555 66.8887 30.4784 66.8887 28.54V19.1652C66.8887 17.2267 65.3116 15.6497 63.3732 15.6497C62.9626 15.6497 62.5683 15.7212 62.2017 15.8512V14.9466C62.2017 12.7497 60.4143 10.9623 58.2174 10.9623C56.0205 10.9623 54.2332 12.7497 54.2332 14.9466V22.6807H53.5297V9.33203C53.5297 8.6848 53.0049 8.16016 52.3578 8.16016C51.7107 8.16016 51.1859 8.6848 51.1859 9.33203V22.6807H41.1862C40.5391 22.6807 40.0144 23.2054 40.0144 23.8526C40.0144 24.4998 40.5391 25.0245 41.1862 25.0245H51.1859V52.4507H45.0894V48.4143C46.8161 48.1357 48.1392 46.6353 48.1392 44.8312C48.1392 42.8294 46.5107 41.2011 44.5091 41.2011H29.2698C27.2681 41.2011 25.6397 42.8295 25.6397 44.8312C25.6397 46.6344 26.9613 48.1339 28.6864 48.4139V52.4507H22.5929V25.0245H32.6708C33.3179 25.0245 33.8427 24.4998 33.8427 23.8526C33.8427 23.2054 33.3179 22.6807 32.6708 22.6807H22.5929V9.33203C22.5929 8.6848 22.0682 8.16016 21.4211 8.16016C20.774 8.16016 20.2492 8.6848 20.2492 9.33203V22.6807H19.5442V14.9466C19.5442 12.7497 17.7569 10.9623 15.5599 10.9623C13.3629 10.9623 11.5757 12.7497 11.5757 14.9466V15.8512C11.209 15.7212 10.8148 15.6497 10.4042 15.6497C8.46578 15.6497 6.88867 17.2268 6.88867 19.1652V28.54C6.88867 30.4785 8.46578 32.0555 10.4042 32.0555C10.8148 32.0555 11.209 31.984 11.5757 31.854V32.7586C11.5757 34.9556 13.363 36.7428 15.5599 36.7428C17.7569 36.7428 19.5442 34.9555 19.5442 32.7586V25.0245H20.2492V52.4507H8.06066C7.41355 52.4507 6.88879 52.9754 6.88879 53.6226V63.0025C6.88879 63.6497 7.41355 64.1744 8.06066 64.1744H65.7153C66.3624 64.1744 66.8872 63.6497 66.8872 63.0025V53.6226C66.8872 52.9754 66.3624 52.4507 65.7153 52.4507H53.5297V25.0245H54.2332V32.7586C54.2332 34.9556 56.0204 36.7428 58.2174 36.7428ZM62.2017 19.1584C62.2053 18.5154 62.7293 17.9933 63.3732 17.9933C64.0193 17.9933 64.545 18.519 64.545 19.1652V28.54C64.545 29.1861 64.0193 29.7118 63.3732 29.7118C62.7293 29.7118 62.2054 29.1898 62.2017 28.5468V19.1584ZM56.5768 14.9466C56.5768 14.0419 57.3127 13.306 58.2174 13.306C59.1221 13.306 59.858 14.0419 59.858 14.9466V19.1517C59.858 19.1563 59.8577 19.1608 59.8577 19.1652V28.54C59.8577 28.5445 59.858 28.549 59.858 28.5534V32.7586C59.858 33.6633 59.1221 34.3992 58.2174 34.3992C57.3127 34.3992 56.5768 33.6633 56.5768 32.7586V14.9466ZM11.5758 28.5468C11.5721 29.1899 11.0481 29.7118 10.4043 29.7118C9.75812 29.7118 9.23242 29.1861 9.23242 28.54V19.1652C9.23242 18.519 9.75812 17.9933 10.4043 17.9933C11.0481 17.9933 11.5721 18.5154 11.5758 19.1584V28.5468ZM17.2007 32.7586C17.2007 33.6633 16.4647 34.3992 15.5601 34.3992C14.6554 34.3992 13.9194 33.6633 13.9194 32.7586V28.5534C13.9194 28.5489 13.9198 28.5444 13.9198 28.54V19.1652C13.9198 19.1606 13.9194 19.1562 13.9194 19.1517V14.9466C13.9194 14.0419 14.6554 13.306 15.5601 13.306C16.4647 13.306 17.2007 14.0419 17.2007 14.9466V32.7586ZM27.9834 44.8312C27.9834 44.1219 28.5606 43.5447 29.2699 43.5447H44.5092C45.2185 43.5447 45.7957 44.1219 45.7957 44.8312C45.7957 45.5406 45.2185 46.1177 44.5092 46.1177H29.2698C28.5606 46.1176 27.9834 45.5406 27.9834 44.8312ZM42.7456 48.4613V52.4507H31.0303V48.4613H42.7456ZM64.5434 54.7944V61.8305H9.23253V59.4843H17.7879C18.435 59.4843 18.9598 58.9597 18.9598 58.3124C18.9598 57.6652 18.435 57.1406 17.7879 57.1406H9.23253V54.7944H64.5434Z" fill="#EE1338" stroke="#EE1338" stroke-width="0.5"/>
<path d="M37.7171 23.0191C37.4992 22.8012 37.1969 22.6758 36.8887 22.6758C36.5805 22.6758 36.2781 22.8012 36.0602 23.0191C35.8422 23.2371 35.7168 23.5395 35.7168 23.8477C35.7168 24.157 35.8421 24.4582 36.0602 24.6762C36.2781 24.8941 36.5805 25.0195 36.8887 25.0195C37.1969 25.0195 37.4992 24.8941 37.7171 24.6762C37.935 24.4582 38.0605 24.157 38.0605 23.8477C38.0605 23.5395 37.9352 23.2371 37.7171 23.0191Z" fill="#EE1338" stroke="#EE1338" stroke-width="0.5"/>
<path d="M22.8362 57.4879C22.6182 57.2699 22.3171 57.1445 22.0089 57.1445C21.6994 57.1445 21.3983 57.2699 21.1804 57.4879C20.9612 57.7059 20.8359 58.0082 20.8359 58.3164C20.8359 58.6246 20.9612 58.9258 21.1804 59.1449C21.3971 59.3629 21.6995 59.4883 22.0089 59.4883C22.3171 59.4883 22.6182 59.3629 22.8362 59.1449C23.0553 58.9269 23.1807 58.6246 23.1807 58.3164C23.1807 58.0082 23.0553 57.7059 22.8362 57.4879Z" fill="#EE1338" stroke="#EE1338" stroke-width="0.5"/>
</svg>
