<svg width="73" height="73" viewBox="0 0 73 73" fill="none" xmlns="http://www.w3.org/2000/svg">
<path d="M60.1366 31.7492H59.063L59.955 29.1157C60.5275 27.5824 59.5868 25.4711 57.8555 25.4739H45.5245C43.7821 25.474 42.8473 27.5998 43.4325 29.1372L44.339 31.7492H36.708C36.1945 30.6835 35.8229 29.5551 35.6029 28.3928H36.668C37.5517 28.407 38.4082 28.0867 39.0657 27.4961C39.7233 26.9055 40.1333 26.0883 40.2138 25.2081C40.3432 24.7029 40.2823 24.1677 40.0427 23.7045C39.8031 23.2413 39.4015 22.8824 38.9144 22.6961C38.6368 20.1535 37.6031 17.7526 35.9469 15.8036C34.2907 13.8545 32.0881 12.4468 29.6237 11.7624V10.6692C29.6245 10.2328 29.5392 9.80047 29.3727 9.39705C29.2062 8.99362 28.9618 8.62698 28.6535 8.31811C28.3452 8.00923 27.979 7.76419 27.5758 7.597C27.1727 7.42981 26.7405 7.34375 26.3041 7.34375C25.8677 7.34375 25.4355 7.42981 25.0324 7.597C24.6293 7.76419 24.2631 8.00923 23.9547 8.31811C23.6464 8.62698 23.402 8.99362 23.2355 9.39705C23.0691 9.80047 22.9838 10.2328 22.9845 10.6692V11.7502C20.5124 12.4255 18.302 13.8322 16.6434 15.7858C14.9847 17.7394 13.9552 20.1486 13.6899 22.6976C13.3303 22.8337 13.0146 23.0652 12.7765 23.3671C12.5244 23.7466 12.3745 24.1847 12.3413 24.6391C12.3082 25.0935 12.3928 25.5488 12.5871 25.9609C12.7976 26.6805 13.2411 27.3098 13.848 27.75C14.4549 28.1902 15.1909 28.4164 15.9403 28.3929H17.0043C16.7819 29.5547 16.4102 30.6829 15.8982 31.7492H12.3078C11.8059 31.7536 11.3105 31.8623 10.8529 32.0684C10.3953 32.2746 9.98563 32.5736 9.64986 32.9466C9.31409 33.3196 9.05958 33.7584 8.9025 34.235C8.74542 34.7117 8.68922 35.2158 8.73746 35.7153C8.73828 36.3184 8.89162 36.9114 9.1832 37.4393C9.47478 37.9672 9.89513 38.4127 10.4051 38.7345V54.3915C10.408 55.0997 10.5536 55.8 10.8335 56.4505C11.1133 57.1011 11.5216 57.6885 12.0338 58.1775C12.5459 58.6666 13.1516 59.0473 13.8143 59.2968C14.4771 59.5463 15.1834 59.6595 15.891 59.6296L16.2488 62.1984C16.3911 63.0663 16.8697 63.8432 17.581 64.3606C18.2923 64.878 19.1788 65.0941 20.0484 64.9622C20.8214 64.9595 21.5677 64.6788 22.1509 64.1713C22.734 63.6639 23.1152 62.9636 23.2247 62.1984L23.5825 59.6297H45.512C45.793 59.6258 46.0611 59.5114 46.2584 59.3114C46.4557 59.1113 46.5664 58.8416 46.5664 58.5606C46.5663 58.2796 46.4557 58.0099 46.2584 57.8098C46.0611 57.6098 45.7929 57.4954 45.512 57.4915L15.6537 57.4916C14.8304 57.4921 14.0405 57.166 13.4574 56.5848C12.8742 56.0036 12.5455 55.2148 12.5432 54.3915V45.1492C14.3199 46.3457 15.7642 47.5632 19.2247 47.5926C21.5059 47.6249 23.7265 46.8576 25.5011 45.4237C26.9354 44.2707 28.7206 43.6421 30.5609 43.6421C32.4012 43.642 34.1864 44.2705 35.6208 45.4233C37.4145 46.8225 39.6243 47.5822 41.8992 47.5818C44.1741 47.5813 46.3836 46.8208 48.1768 45.4209C49.5919 44.2376 51.3862 43.6042 53.2306 43.6369C56.6057 43.6308 57.5746 45.1551 59.9012 46.4633V54.3915C59.8989 55.2148 59.5702 56.0036 58.987 56.5848C58.4039 57.166 57.614 57.4921 56.7907 57.4916H49.7882C49.6371 57.4979 49.489 57.5351 49.3528 57.601C49.2167 57.6668 49.0955 57.7598 48.9967 57.8744C48.8979 57.9889 48.8237 58.1224 48.7785 58.2667C48.7334 58.4111 48.7183 58.5631 48.7343 58.7135L49.2197 62.1984C49.7227 65.9172 55.6882 65.9275 56.1956 62.1983L56.5534 59.6297C57.261 59.6595 57.9673 59.5463 58.63 59.2968C59.2928 59.0472 59.8984 58.6665 60.4106 58.1775C60.9227 57.6884 61.331 57.101 61.6108 56.4505C61.8907 55.7999 62.0364 55.0996 62.0392 54.3914V38.7345C65.0114 36.8922 63.8368 31.7016 60.1366 31.7492ZM21.4233 59.6349L21.1075 61.903C20.9596 62.7881 20.1729 62.8766 19.4251 62.8242C19.1674 62.8232 18.9187 62.7296 18.7242 62.5605C18.5298 62.3914 18.4027 62.158 18.366 61.903L18.0502 59.6349H21.4233ZM54.0784 61.903C53.9305 62.7881 53.1438 62.8766 52.396 62.8242C52.1383 62.8232 51.8896 62.7296 51.6952 62.5605C51.5007 62.3914 51.3736 62.158 51.3369 61.903L51.0211 59.6349H54.3942L54.0784 61.903ZM45.5658 27.6119L57.797 27.5983C57.8897 27.7133 57.9508 27.8506 57.974 27.9965C57.9973 28.1423 57.982 28.2918 57.9296 28.4299L56.8068 31.745H46.6009L45.4525 28.4356C45.4021 28.2996 45.386 28.1533 45.4058 28.0096C45.4255 27.8658 45.4805 27.7292 45.5658 27.6119ZM25.1226 10.6692C25.1262 10.3582 25.2522 10.0611 25.4734 9.84241C25.6946 9.62373 25.9931 9.50109 26.3041 9.50109C26.6152 9.50109 26.9137 9.62373 27.1349 9.84241C27.3561 10.0611 27.4821 10.3582 27.4857 10.6692V11.36C26.6999 11.2823 25.9085 11.2816 25.1226 11.3578V10.6692ZM18.8468 16.5269C19.8238 15.5446 20.986 14.7659 22.266 14.2358C23.546 13.7056 24.9185 13.4346 26.3039 13.4383C28.8458 13.4547 31.2975 14.3821 33.2139 16.0521C35.1303 17.7221 36.3843 20.024 36.7481 22.5398H15.8584C16.1688 20.2622 17.2187 18.1496 18.8468 16.5269ZM15.9403 26.2547C15.6663 26.2737 15.3935 26.2037 15.1625 26.0551C14.9315 25.9065 14.7546 25.6872 14.6583 25.43L14.4761 24.7183C14.5394 24.7316 37.9312 24.7937 38.1322 24.7182L37.95 25.4295C37.8538 25.6868 37.677 25.9062 37.446 26.0549C37.215 26.2036 36.9421 26.2737 36.668 26.2547H15.9403ZM34.3716 31.7492H18.2332C18.6674 30.6675 18.9839 29.5422 19.1772 28.3928H33.4302C33.6219 29.5423 33.9375 30.6676 34.3716 31.7492ZM61.569 35.7152C61.57 36.0964 61.4198 36.4625 61.1512 36.733C60.8827 37.0036 60.5178 37.1566 60.1366 37.1585H19.9941C19.7117 37.1602 19.4415 37.2736 19.2424 37.4739C19.0434 37.6742 18.9316 37.9451 18.9316 38.2275C18.9316 38.5099 19.0434 38.7808 19.2424 38.9811C19.4415 39.1814 19.7117 39.2948 19.9941 39.2965H59.9012V43.9338C58.1424 42.7451 56.6858 41.5254 53.2306 41.4987C50.9492 41.4664 48.7284 42.2338 46.9537 43.6677C45.5215 44.8203 43.7385 45.4489 41.9001 45.4494C40.0617 45.4499 38.2783 44.8223 36.8454 43.6706C35.0504 42.2698 32.8387 41.5089 30.5617 41.5089C28.2848 41.5089 26.0731 42.2697 24.278 43.6705C22.8631 44.8539 21.0689 45.4873 19.2246 45.4544C15.8516 45.4616 14.8796 43.9265 12.5432 42.6242V39.2967H15.7179C15.8588 39.2975 15.9985 39.2705 16.129 39.2172C16.2595 39.1639 16.3781 39.0853 16.4781 38.9859C16.5781 38.8865 16.6574 38.7684 16.7115 38.6383C16.7657 38.5081 16.7935 38.3686 16.7935 38.2276C16.7935 38.0867 16.7657 37.9471 16.7115 37.817C16.6574 37.6868 16.5781 37.5687 16.4781 37.4693C16.3781 37.37 16.2595 37.2914 16.129 37.238C15.9985 37.1847 15.8588 37.1577 15.7179 37.1586H12.3078C10.3824 37.1604 10.3631 33.8872 12.3078 33.8873H60.1366C60.3576 33.8951 60.5743 33.9512 60.7714 34.0516C60.9686 34.1519 61.1414 34.2941 61.2778 34.4682C61.4142 34.6424 61.511 34.8442 61.5612 35.0596C61.6115 35.275 61.6142 35.4987 61.569 35.7152Z" fill="#EE1338" stroke="#EE1338" stroke-width="0.8"/>
</svg>
