<svg width="73" height="73" viewBox="0 0 73 73" fill="none" xmlns="http://www.w3.org/2000/svg">
<g clip-path="url(#clip0_288_3193)">
<path d="M71.4825 21.9842H58.9861L55.2725 16.3726C54.8439 15.7249 53.9713 15.5473 53.3237 15.9759C52.6761 16.4045 52.4985 17.2769 52.9271 17.9247L55.6136 21.9842H16.9091L19.0224 18.5549H42.3666C43.1433 18.5549 43.7729 17.9254 43.7729 17.1487C43.7729 16.372 43.1433 15.7424 42.3666 15.7424H18.2372C17.7492 15.7424 17.2961 15.9954 17.0401 16.4108L13.6053 21.9842H13.094C8.00377 21.9842 3.50321 25.7621 2.60968 30.7771C1.83441 35.1225 1.42407 39.5391 1.11005 43.939C1.02849 45.082 0.956351 46.2259 0.894054 47.3701C0.839773 48.3569 1.19809 49.3342 1.87716 50.0517C2.55666 50.7695 3.51334 51.1812 4.50221 51.1812H10.0847H13.9417C14.3647 54.2359 16.9914 56.596 20.1607 56.596C23.3299 56.596 25.9567 54.2359 26.3797 51.1812H48.2173C48.6403 54.2359 51.2671 56.596 54.4363 56.596C57.6056 56.596 60.2323 54.2359 60.6553 51.1812H63.6691C69.8997 51.1812 72.5175 47.6249 72.6259 47.4735C72.7967 47.2347 72.8887 46.9485 72.8887 46.6549V23.3905C72.8887 22.6138 72.2591 21.9842 71.4825 21.9842ZM58.2304 24.7967H62.2627V31.4352H54.198V24.7967H58.2304ZM51.3855 31.4351H43.3208V24.7966H51.3855V31.4351ZM40.5083 31.4351H32.4436V24.7966H40.5083V31.4351ZM29.6311 31.6089C27.8095 31.8766 24.358 32.4882 21.5668 33.5938V24.7967H29.6311V31.6089ZM18.7539 24.7967L18.754 34.9715C18.457 35.1249 18.1622 35.2834 17.8709 35.4472C17.14 35.8581 16.3828 36.3644 15.5531 36.9969C12.3776 39.4323 8.14566 39.251 4.33641 39.1723C4.59798 36.5375 4.91705 33.9049 5.37352 31.2961C6.02223 27.5909 9.3414 24.7969 13.0941 24.7969H18.7539V24.7967ZM3.91988 48.1184C3.83171 48.0252 3.68588 47.8239 3.70248 47.5238C3.7171 47.2543 3.73355 46.9643 3.75141 46.6598H5.1744C5.95107 46.6598 6.58065 46.0303 6.58065 45.2536C6.58065 44.4769 5.95107 43.8473 5.1744 43.8473H3.93634C3.97979 43.2505 4.02816 42.6254 4.08146 41.98C4.12759 41.981 4.17244 41.9818 4.21899 41.9828C4.89455 41.9968 5.63494 42.0122 6.41415 42.0122C7.14315 42.0122 7.90534 41.9987 8.67849 41.958V48.3687H4.50235C4.20169 48.3687 4.00848 48.2119 3.91988 48.1184ZM11.4911 41.6672C12.8716 41.4412 14.2562 41.0727 15.4908 40.4001C16.6462 39.7705 17.6386 38.8844 18.7544 38.192V44.1936C16.6265 44.68 14.8606 46.2914 14.1875 48.3686H11.4911V41.6672ZM20.1607 53.7835C18.2487 53.7835 16.6931 52.2279 16.6931 50.3159C16.6931 48.4247 18.2791 46.8487 20.1671 46.8487C22.05 46.8519 23.6282 48.4314 23.6282 50.3159C23.6281 52.228 22.0726 53.7835 20.1607 53.7835ZM54.4362 53.7835C52.5242 53.7835 50.9686 52.2279 50.9686 50.3159C50.9686 48.433 52.5557 46.8358 54.4436 46.8487C56.3263 46.8523 57.9036 48.4337 57.9036 50.3159C57.9037 52.228 56.3483 53.7835 54.4362 53.7835ZM70.0762 46.1278C69.4018 46.8061 67.4385 48.3687 63.6689 48.3687H60.4098C59.6836 46.1278 57.7468 44.4704 55.3995 44.11C54.7623 44.0112 54.1077 44.0119 53.4705 44.1104C51.1238 44.4718 49.1882 46.129 48.463 48.3687H26.1337C25.4538 46.2707 23.7124 44.6845 21.5668 44.1948V36.6651C24.7817 35.04 30.4207 34.3304 31.1184 34.2477H63.6689C64.4456 34.2477 65.0752 33.6181 65.0752 32.8415V24.7967H70.0762V46.1278Z" fill="#EE1237"/>
<path d="M62.959 37.7363C62.1823 37.7363 61.5527 38.3659 61.5527 39.1426C61.5527 39.9193 62.1823 40.5488 62.959 40.5488H65.9328C66.7095 40.5488 67.339 39.9193 67.339 39.1426C67.339 38.3659 66.7095 37.7363 65.9328 37.7363H62.959Z" fill="#EE1237"/>
<path d="M65.9328 42.2188H62.959C62.1823 42.2188 61.5527 42.8483 61.5527 43.625C61.5527 44.4017 62.1823 45.0312 62.959 45.0312H65.9328C66.7095 45.0312 67.339 44.4017 67.339 43.625C67.339 42.8483 66.7095 42.2188 65.9328 42.2188Z" fill="#EE1237"/>
<path d="M47.6245 18.3177C48.6888 19.0137 50.1035 18.0064 49.76 16.7731C49.5992 16.1956 49.0748 15.7737 48.4747 15.7439C47.875 15.7141 47.3099 16.0835 47.0946 16.6426C46.8588 17.2549 47.0865 17.9486 47.6245 18.3177Z" fill="#EE1237"/>
</g>
<defs>
<clipPath id="clip0_288_3193">
<rect width="72" height="72" fill="white" transform="translate(0.888672 0.167969)"/>
</clipPath>
</defs>
</svg>
