<svg width="73" height="73" viewBox="0 0 73 73" fill="none" xmlns="http://www.w3.org/2000/svg">
<g clip-path="url(#clip0_288_3134)">
<path d="M30.0176 41.9082H31.6429C32.4195 41.9082 33.0492 41.2786 33.0492 40.502C33.0492 39.7253 32.4195 39.0957 31.6429 39.0957H30.0176C29.241 39.0957 28.6113 39.7253 28.6113 40.502C28.6113 41.2786 29.2409 41.9082 30.0176 41.9082Z" fill="#EE1338"/>
<path d="M72.5326 50.689L70.0513 47.9026V34.0796L71.8648 31.8465C72.3543 31.2436 72.2625 30.358 71.6596 29.8683C71.0569 29.3789 70.1714 29.4705 69.6816 30.0733L67.5534 32.6939C67.5528 32.6946 67.5524 32.6954 67.5518 32.6961C67.551 32.6971 67.5501 32.698 67.5493 32.699L62.0946 39.4799C61.8936 39.7298 61.7841 40.0407 61.7841 40.3613V41.906H58.5015L58.2063 39.8701C58.2032 39.8482 58.1994 39.8264 58.1952 39.8047C57.7936 37.7287 56.4305 36.0219 54.4558 35.1216C53.5674 34.7168 52.5837 34.5115 51.5327 34.5115H40.677L37.9979 27.7786C37.0985 25.5134 34.8662 24.0013 32.4303 24.0013L19.5199 24.0014V18.5331C19.5199 17.7564 18.8902 17.1268 18.1137 17.1268H16.8139C16.5978 14.5396 14.4244 12.5 11.7823 12.5H11.6432C10.8667 12.5 10.237 13.1296 10.237 13.9062C10.237 14.6829 10.8667 15.3125 11.6432 15.3125H11.7823C12.8715 15.3125 13.7803 16.0948 13.979 17.1268H12.4236C11.647 17.1268 11.0173 17.7564 11.0173 18.5331V34.0478H10.6248C8.75664 34.0478 7.05578 35.2213 6.39217 36.9685L5.22147 40.0539C5.05961 40.4807 4.63872 40.7725 4.18141 40.7725C2.3658 40.7724 0.888672 42.2489 0.888672 44.0638V49.2845C0.888672 51.0995 2.3658 52.576 4.18155 52.576H7.29611C8.32056 57.2888 12.5222 60.8299 17.5374 60.8299C22.4044 60.8299 26.5067 57.4952 27.6812 52.991H34.4116C35.5861 57.4954 39.6884 60.8299 44.5554 60.8299C44.9216 60.8299 45.2962 60.8099 45.6692 60.7704C46.4415 60.6887 47.0014 59.9964 46.9197 59.2241C46.838 58.4516 46.1453 57.8911 45.3734 57.9735C45.0984 58.0026 44.8232 58.0174 44.5555 58.0174C40.471 58.0174 37.1225 54.8075 36.8988 50.7777C36.6542 46.334 40.4866 42.4742 44.9288 42.6881C47.8473 42.832 50.4718 44.6948 51.6227 47.3692C52.0885 48.4705 52.2846 49.6713 52.2054 50.8635C52.1542 51.6385 52.7409 52.3083 53.5158 52.3596C54.2923 52.4115 54.9604 51.8242 55.0119 51.0494C55.0384 50.6479 55.0438 50.2468 55.0247 49.8449H61.7844V51.056C61.7844 54.3392 64.4554 57.0103 67.7387 57.0103H71.4824C72.259 57.0103 72.8887 56.3808 72.8887 55.6041V51.6243C72.8887 51.2793 72.762 50.9465 72.5326 50.689ZM34.545 47.2362C34.2498 48.187 34.0907 49.1832 34.0746 50.1786H28.0185C28.0006 49.0687 27.8053 47.9566 27.4413 46.908H34.6517C34.6139 47.0167 34.5798 47.1265 34.545 47.2362ZM29.0263 26.8139H32.4295C33.6637 26.8139 34.801 27.5497 35.3148 28.6608C35.3386 28.7125 37.6499 34.5115 37.6499 34.5115L29.0263 34.5116V26.8139ZM26.2138 26.8139V35.9179C26.2138 36.2908 26.362 36.6485 26.6257 36.9122C26.8895 37.1759 27.2471 37.3241 27.6201 37.3241L38.769 37.324L40.1631 40.8276C38.5758 41.5603 37.1927 42.6821 36.1427 44.0953H25.9509C24.3993 42.0124 22.0703 40.5472 19.5197 40.0553L19.5199 26.8139H26.2138ZM13.8298 19.9393H16.7074L16.7072 34.0478H13.8298V19.9393ZM3.70117 49.2847V44.064C3.70117 43.7999 3.91661 43.585 4.18155 43.585C5.7955 43.585 7.27909 42.56 7.8513 41.0514L9.02172 37.9666C9.27302 37.3048 9.91722 36.8603 10.6248 36.8603H12.4236H16.7072V39.8991C11.5548 40.3054 7.35573 44.6083 7.07097 49.7635H4.18155C3.91661 49.7637 3.70117 49.5488 3.70117 49.2847ZM17.5374 58.0175C13.4705 58.0175 10.1345 54.8352 9.88473 50.8302C9.60433 46.4787 13.1813 42.679 17.5381 42.679C21.5681 42.679 25.0054 45.951 25.1974 49.978C25.4031 54.2893 21.8557 58.0175 17.5374 58.0175ZM54.501 47.0324C53.0891 42.8107 49.006 39.8659 44.5547 39.8659C43.9894 39.8659 43.4199 39.9117 42.8619 40.0025L41.7962 37.3241H51.5328C52.1788 37.3241 52.7699 37.4442 53.2895 37.681C54.4326 38.2022 55.1912 39.1347 55.4281 40.3093L56.4031 47.0326H54.501V47.0324ZM59.2448 47.0324L58.9093 44.7185H61.7841V47.0324H59.2448ZM70.0762 54.1977H67.7384C66.0061 54.1977 64.5966 52.7884 64.5966 51.0559V48.4385V43.3121V40.8566L67.2388 37.572V48.438C67.2388 48.7828 67.3655 49.1157 67.5948 49.3731L70.0762 52.1595V54.1977Z" fill="#EE1338"/>
<path d="M17.538 45.5664C14.9011 45.5664 12.7559 47.7116 12.7559 50.3485C12.7559 52.9854 14.9011 55.1306 17.538 55.1306C20.1748 55.1306 22.3202 52.9854 22.3202 50.3485C22.3202 47.7116 20.1748 45.5664 17.538 45.5664ZM17.538 52.3182C16.4519 52.3182 15.5684 51.4347 15.5684 50.3486C15.5684 49.2626 16.4519 48.379 17.538 48.379C18.6241 48.379 19.5077 49.2626 19.5077 50.3486C19.5077 51.4347 18.624 52.3182 17.538 52.3182Z" fill="#EE1338"/>
<path d="M44.5557 45.5664C41.9188 45.5664 39.7734 47.7116 39.7734 50.3485C39.7734 52.9854 41.9188 55.1306 44.5557 55.1306C47.1925 55.1306 49.3378 52.9854 49.3378 50.3485C49.3378 47.7116 47.1925 45.5664 44.5557 45.5664ZM44.5557 52.3182C43.4695 52.3182 42.5859 51.4347 42.5859 50.3486C42.5859 49.2626 43.4695 48.379 44.5557 48.379C45.6417 48.379 46.5253 49.2626 46.5253 50.3486C46.5253 51.4347 45.6416 52.3182 44.5557 52.3182Z" fill="#EE1338"/>
<path d="M52.558 55.9298C51.8896 54.3254 49.3949 55.2352 49.9196 56.89C50.1571 57.6391 50.9905 58.0552 51.732 57.7895C52.475 57.5233 52.8629 56.6616 52.558 55.9298Z" fill="#EE1338"/>
</g>
<defs>
<clipPath id="clip0_288_3134">
<rect width="72" height="72" fill="white" transform="translate(0.888672 0.667969)"/>
</clipPath>
</defs>
</svg>
