<svg width="73" height="73" viewBox="0 0 73 73" fill="none" xmlns="http://www.w3.org/2000/svg">
<path d="M68.4988 39.8155L66.8482 36.4594C66.3172 35.3799 65.007 34.9339 63.9274 35.4647L61.7017 36.5594C61.0458 31.1613 59.6982 25.8692 57.6902 20.8131C55.2424 14.6501 49.9958 10.123 43.5772 8.59485C43.2363 7.4298 42.1588 6.57617 40.8852 6.57617H31.5115C30.2272 6.57617 29.1425 7.44402 28.8112 8.6238C26.7215 9.13631 24.7383 9.97521 22.9082 11.1244C22.4709 11.399 22.339 11.9761 22.6136 12.4135C22.8899 12.8545 23.4719 12.9804 23.9026 12.7081C25.4013 11.767 27.0127 11.0549 28.7064 10.5833V12.8372C28.7064 15.6994 28.3435 18.5518 27.629 21.3229H25.495C24.5669 21.3229 23.812 22.0779 23.812 23.0059V28.9802C23.812 29.4266 23.9878 29.8318 24.2725 30.1335L21.5897 36.3529C20.0556 36.7699 18.6175 37.2555 17.2999 37.8073C15.765 38.4675 14.0092 38.2752 12.5593 37.4523C13.2003 31.8948 14.5929 26.4545 16.7049 21.2761C17.6464 18.9678 19.0227 16.9121 20.7955 15.1659C21.1634 14.8036 21.168 14.2115 20.8056 13.8436C20.4432 13.4756 19.8512 13.4711 19.4833 13.8336C17.5286 15.7588 16.0112 18.0252 14.9735 20.5697C12.881 25.7003 11.4719 31.08 10.7794 36.5767L8.51822 35.4645C7.439 34.9339 6.12871 35.3798 5.59742 36.4593L3.94639 39.8155C3.4156 40.895 3.86171 42.2052 4.94119 42.7362L9.41921 44.9387C10.3846 45.4135 11.3933 45.7653 12.4229 45.9938V48.6563C12.4229 49.7436 12.6998 50.8183 13.2237 51.7642C13.4752 52.2202 14.0515 52.377 14.4947 52.1292C14.9464 51.879 15.1098 51.31 14.8595 50.8582C14.4888 50.1889 14.2929 49.4274 14.2929 48.6563V46.2708C14.9875 46.324 15.6854 46.3228 16.38 46.2665V49.0022C16.376 50.3382 17.5135 51.4035 18.8429 51.3396C20.155 51.3396 21.3894 51.853 22.3187 52.7853C23.248 53.7176 23.7574 54.9537 23.7532 56.2661C23.7512 56.8883 23.9084 57.5014 24.2049 58.046C24.115 58.3286 24.1158 58.6839 24.1202 58.9847C24.1202 59.6682 24.2229 60.328 24.4121 60.9504C22.8785 59.9413 21.8906 58.2115 21.8832 56.2714C21.8767 54.5831 20.5143 53.2096 18.8462 53.2096C18.4241 53.2096 18.0066 53.1521 17.6048 53.0386C17.1086 52.8983 16.5913 53.187 16.4508 53.6841C16.3103 54.181 16.5994 54.6977 17.0964 54.8381C17.6635 54.9985 18.2523 55.0797 18.8464 55.0797C19.4983 55.0797 20.0108 55.6065 20.0133 56.2787C20.0266 59.8198 22.4912 62.8374 25.9206 63.5771C27.1589 64.9169 28.9295 65.758 30.8934 65.758H33.772C35.6956 65.758 37.4329 64.9507 38.667 63.6587C42.3501 63.0967 45.0925 59.9338 45.0533 56.2821C45.0448 55.4964 45.3454 54.7551 45.8995 54.1949C46.454 53.6344 47.1919 53.3257 47.9773 53.3257H50.561C54.9673 53.3257 58.7405 50.3002 59.726 46.0605C60.8601 45.8332 61.9661 45.4602 63.0036 44.9499L67.5042 42.7362C68.5836 42.2052 69.0298 40.895 68.4988 39.8155ZM43.6903 10.5528C49.2662 12.0609 53.8007 16.0857 55.9522 21.5033C57.9817 26.6134 59.314 31.9719 59.9188 37.4363C58.4534 38.275 56.6751 38.4909 55.1176 37.8163C53.7944 37.2608 52.3493 36.7722 50.807 36.353L48.1241 30.1336C48.4088 29.8321 48.5846 29.4267 48.5846 28.9803V23.0061C48.5846 22.078 47.8296 21.323 46.9016 21.323H44.7674C44.053 18.5523 43.6903 15.7002 43.6903 12.8374V10.5528ZM46.7145 23.1929V28.7932H42.4207C42.807 27.9382 43.0239 26.9907 43.0239 25.993C43.0239 24.9953 42.807 24.048 42.4207 23.1928H46.7145V23.1929ZM33.7124 8.44619H38.7328V10.1312C38.7328 11.5154 37.6067 12.6415 36.2226 12.6415C34.8384 12.6415 33.7123 11.5154 33.7123 10.1312V8.44619H33.7124ZM30.5764 12.8372V9.3812C30.5764 8.86564 30.9959 8.44619 31.5115 8.44619H31.7869V10.1312C31.7869 12.5771 33.7768 14.5669 36.2226 14.5669C38.6683 14.5669 40.6582 12.577 40.6582 10.1312V8.44619H40.6681C41.262 8.43692 41.8256 8.85384 41.82 9.47108V12.8371C41.82 15.6967 42.1636 18.5464 42.8397 21.3228H41.169C39.9232 19.9975 38.1562 19.1674 36.1981 19.1674C34.2399 19.1674 32.473 19.9975 31.2271 21.3228H29.5562C30.2328 18.5462 30.5764 15.6964 30.5764 12.8372ZM41.1539 25.993C41.1539 28.7254 38.931 30.9485 36.1984 30.9485C33.4659 30.9485 31.2429 28.7254 31.2429 25.993C31.2429 23.2606 33.4659 21.0375 36.1984 21.0375C38.931 21.0375 41.1539 23.2606 41.1539 25.993ZM25.682 23.1929H29.976C29.5896 24.048 29.3727 24.9954 29.3727 25.9931C29.3727 26.9909 29.5896 27.9382 29.976 28.7933H25.682V23.1929ZM26.0807 30.6632H31.2275C32.4732 31.9885 34.2403 32.8186 36.1984 32.8186C38.1566 32.8186 39.9235 31.9885 41.1694 30.6632H46.3161L48.532 35.8003C44.7864 34.993 40.5829 34.5646 36.1984 34.5646C31.8145 34.5646 27.6107 34.9931 23.8647 35.8004L26.0807 30.6632ZM38.6749 58.9847C38.6749 61.6883 36.4754 63.8879 33.7719 63.8879H30.8933C28.1897 63.8879 25.9903 61.6884 25.9903 58.9847C25.9703 58.7087 25.975 58.2765 26.3556 58.2824H38.3095C38.6903 58.2765 38.6948 58.7089 38.6749 58.9847ZM50.561 51.4556H47.9773C46.6886 51.4556 45.4784 51.9613 44.57 52.8796C43.6619 53.7976 43.1693 55.0132 43.1831 56.3022C43.2057 58.4015 41.9866 60.2848 40.1601 61.232C40.4085 60.5283 40.5449 59.7723 40.5449 58.9847C40.5442 58.8994 40.5482 58.6149 40.5392 58.5345C41.0406 57.8818 41.3132 57.0851 41.3129 56.253C41.312 54.4756 42.0058 52.8021 43.2663 51.541C44.5268 50.28 46.1998 49.5855 47.9773 49.5855H50.561C52.8152 49.5855 54.8219 48.2672 55.7309 46.2494C56.386 46.3176 57.0547 46.3389 57.716 46.3063C56.7067 49.3464 53.8548 51.4556 50.561 51.4556ZM66.6787 41.0581L62.1781 43.2718C60.6092 44.0436 58.8585 44.4515 57.1151 44.4515C55.5919 44.4515 54.1081 44.1529 52.7049 43.5638C51.1502 42.9113 49.339 42.3579 47.3219 41.919C46.8167 41.8093 46.3193 42.1294 46.2096 42.6339C46.0998 43.1385 46.4198 43.6366 46.9244 43.7462C48.83 44.1607 50.5313 44.6795 51.981 45.288C52.5766 45.5381 53.1849 45.7426 53.8031 45.9023C53.1236 47.013 51.9082 47.7153 50.5609 47.7153H47.9773C45.7002 47.7153 43.5574 48.6044 41.9437 50.2188C40.3299 51.8333 39.4417 53.9765 39.4428 56.2538C39.443 56.403 39.4235 56.5495 39.3895 56.6916C39.0691 56.514 38.7012 56.4122 38.3097 56.4122H26.3558C26.1058 56.4122 25.8661 56.4553 25.6415 56.5313C25.6296 56.4456 25.623 56.3589 25.6234 56.2718C25.6292 54.4588 24.926 52.7518 23.6433 51.465C22.3605 50.1781 20.6558 49.4694 18.8465 49.4694C18.5499 49.5094 18.2471 49.322 18.2503 49.0022V45.9793C18.9906 45.811 19.7202 45.5793 20.4306 45.2817C24.3967 43.6207 30.1439 42.6682 36.1986 42.6682C38.3903 42.6682 40.559 42.793 42.6447 43.0392C43.1569 43.0995 43.6224 42.7332 43.6828 42.2203C43.7434 41.7074 43.3767 41.2426 42.8638 41.182C40.7058 40.9273 38.4631 40.7981 36.1984 40.7981C29.905 40.7981 23.8945 41.8036 19.7081 43.557C16.6666 44.8309 13.2174 44.7229 10.2448 43.2607L5.76664 41.0581C5.6124 40.9824 5.54867 40.7951 5.62458 40.6408L7.2751 37.285C7.35102 37.1306 7.53827 37.0669 7.69252 37.1428L12.1705 39.3453C14.0112 40.2507 16.1444 40.3188 18.0224 39.5323C22.7918 37.5348 29.2469 36.4348 36.1984 36.4348C43.1607 36.4348 49.6226 37.5379 54.3937 39.5407C56.2744 40.3301 58.4099 40.2629 60.2524 39.3565L64.753 37.1428C64.9067 37.0667 65.0945 37.1307 65.1701 37.2848L66.8208 40.6408C66.8966 40.7951 66.833 40.9824 66.6787 41.0581Z" fill="#EE1237" stroke="#EE1338" stroke-width="0.7"/>
<path d="M34.8084 59.9043H30.0073C29.4908 59.9043 29.0723 60.3229 29.0723 60.8393C29.0723 61.3557 29.4908 61.7743 30.0073 61.7743H34.8084C35.3248 61.7743 35.7434 61.3556 35.7434 60.8393C35.7434 60.323 35.3248 59.9043 34.8084 59.9043Z" fill="#EE1237" stroke="#EE1338" stroke-width="0.7"/>
<path d="M36.1984 24.9414C35.6175 24.9414 35.1465 25.4124 35.1465 25.9933C35.1465 26.5743 35.6175 27.0453 36.1984 27.0453C36.7794 27.0453 37.2503 26.5743 37.2503 25.9933C37.2503 25.4123 36.7794 24.9414 36.1984 24.9414Z" fill="#EE1237" stroke="#EE1338" stroke-width="0.7"/>
</svg>
