<svg width="73" height="73" viewBox="0 0 73 73" fill="none" xmlns="http://www.w3.org/2000/svg">
<g clip-path="url(#clip0_288_3153)">
<path d="M71.1465 20.699H67.5617C67.055 20.699 66.5874 20.9715 66.3378 21.4125L62.0648 28.9621H56.4569C55.6803 28.9621 55.0507 29.5917 55.0507 30.3683C55.0507 31.145 55.6803 31.7746 56.4569 31.7746H66.3713C67.1479 31.7746 67.7775 31.145 67.7775 30.3683C67.7775 29.5917 67.1479 28.9621 66.3713 28.9621H65.2965L68.3815 23.5115H69.7402V31.9858L66.0782 35.3536H56.0235C51.2718 35.3536 47.6839 37.2002 45.7258 38.5211C45.4003 38.3238 45.0269 38.1938 44.6508 38.1387L27.1745 35.5755C24.5092 35.1842 21.8888 36.9035 21.1892 39.5021H19.7537C17.7403 39.5021 15.7339 39.0088 13.9515 38.0754C12.7439 37.443 11.6554 36.625 10.716 35.6439C10.1106 35.0116 9.30144 34.181 8.99333 33.3375C8.6817 32.4846 9.21073 31.5262 10.0895 31.3194L22.7643 28.3391L29.3028 31.6778C30.4175 32.2471 31.676 32.5499 32.9276 32.5499H37.4965C39.5158 32.5499 41.1588 30.9069 41.1588 28.8876V23.6584C42.3403 24.253 43.5052 25.0785 44.4644 26.2288C44.9618 26.8253 45.8488 26.9056 46.445 26.4082C47.0415 25.9108 47.1218 25.024 46.6244 24.4276C44.1002 21.4004 40.5694 20.1691 38.0484 19.6693C37.9565 19.6509 37.8593 19.6406 37.766 19.6406H31.5316H31.5313C29.8566 19.6406 28.2453 20.2538 26.994 21.3669L22.5825 25.2922L22.2759 25.5649L9.4453 28.5817C9.25813 28.6257 9.07672 28.6824 8.90023 28.7486V21.6957C8.90023 20.919 8.27066 20.2895 7.49398 20.2895C6.71731 20.2895 6.08773 20.919 6.08773 21.6957V28.6852C5.6608 28.5374 5.20306 28.4561 4.72648 28.4561C2.42502 28.4561 0.552734 30.3284 0.552734 32.6297V33.5358C0.552734 35.8371 2.42502 37.7095 4.72648 37.7095C5.20306 37.7095 5.6608 37.6281 6.08773 37.4805V45.8661C6.08773 46.6427 6.71731 47.2723 7.49398 47.2723C8.27066 47.2723 8.90023 46.6427 8.90023 45.8661V37.8054C10.0013 38.9105 11.2589 39.8403 12.6469 40.5672C13.8189 41.1809 15.0703 41.6376 16.3591 41.9305V48.0124C14.1905 48.6267 12.5964 50.6227 12.5964 52.9853C12.5964 55.8355 14.9152 58.1542 17.7654 58.1542C20.6156 58.1542 22.9342 55.8354 22.9342 52.9853C22.9342 51.4601 22.2697 50.0875 21.2155 49.1405L27.3833 46.2105L44.6509 43.6778C46.0185 43.4773 46.9829 42.3975 47.0384 41.0321C48.6133 39.9152 51.7603 38.1663 56.0235 38.1663H58.9452V41.2356C57.1371 41.8284 55.8272 43.5311 55.8272 45.5349C55.8272 48.0294 57.8567 50.0589 60.3514 50.0589C62.846 50.0589 64.8755 48.0294 64.8755 45.5349C64.8755 43.5311 63.5657 41.8286 61.7577 41.2356V38.1663H66.6265C66.9791 38.1663 67.3188 38.0338 67.5784 37.795L72.0984 33.6382C72.3879 33.3718 72.5527 32.9965 72.5527 32.6032V22.1054C72.5527 21.3287 71.9232 20.699 71.1465 20.699ZM25.4162 26.5355L28.8632 23.4684C29.1869 23.1804 29.5516 22.9495 29.9422 22.7809V28.8465L25.4162 26.5355ZM38.3463 22.6223V28.8876C38.3463 29.3563 37.965 29.7374 37.4965 29.7374H32.9276C32.8699 29.7374 32.8124 29.7341 32.7549 29.7322V22.4528H37.6219C37.8679 22.505 38.1096 22.5615 38.3463 22.6223ZM4.72648 34.897C3.97597 34.897 3.36523 34.2864 3.36523 33.5358V32.6297C3.36523 31.8792 3.97583 31.2685 4.72648 31.2685C5.47714 31.2685 6.08773 31.8791 6.08773 32.6297V33.5358C6.08759 34.2864 5.477 34.897 4.72648 34.897ZM26.7792 43.4563C26.7745 43.457 26.7697 43.4576 26.7651 43.4583C26.0241 43.5666 25.274 43.348 24.7075 42.8584C24.1407 42.3687 23.8156 41.6584 23.8152 40.9095C23.8152 39.3593 25.2368 38.1339 26.7669 38.3587L44.152 40.9082L26.7792 43.4563ZM19.7537 42.3146H21.1897C21.4675 43.3425 22.046 44.2759 22.8687 44.9866C22.9329 45.0421 22.9985 45.0959 23.065 45.148L19.1715 46.9977V42.3021C19.3654 42.3095 19.5595 42.3146 19.7537 42.3146ZM17.7652 55.3417C16.4659 55.3417 15.4088 54.2846 15.4088 52.9853C15.4088 51.686 16.4659 50.6289 17.7652 50.6289C19.0645 50.6289 20.1215 51.686 20.1215 52.9853C20.1217 54.2846 19.0646 55.3417 17.7652 55.3417ZM60.3514 47.2463C59.4077 47.2463 58.6397 46.4785 58.6397 45.5347C58.6397 44.591 59.4075 43.8231 60.3514 43.8231C61.2953 43.8231 62.063 44.5909 62.063 45.5347C62.063 46.4786 61.2953 47.2463 60.3514 47.2463Z" fill="#EE1338"/>
<path d="M2.87109 24.1004C3.64777 24.1004 4.27734 23.4708 4.27734 22.6941V20.6406C4.27734 19.1813 5.4645 17.9941 6.92377 17.9941H7.63448C8.41116 17.9941 9.04073 17.3646 9.04073 16.5879C9.04073 15.8112 8.41116 15.1816 7.63448 15.1816H6.92377C3.91369 15.1816 1.46484 17.6305 1.46484 20.6406V22.6941C1.46484 23.4708 2.09442 24.1004 2.87109 24.1004Z" fill="#EE1338"/>
<path d="M7.63448 49.4655H6.92377C5.4645 49.4655 4.27734 48.2783 4.27734 46.819V44.7656C4.27734 43.989 3.64777 43.3594 2.87109 43.3594C2.09442 43.3594 1.46484 43.989 1.46484 44.7656V46.819C1.46484 49.8291 3.91369 52.278 6.92377 52.278H7.63448C8.41116 52.278 9.04073 51.6484 9.04073 50.8717C9.04073 50.095 8.41116 49.4655 7.63448 49.4655Z" fill="#EE1338"/>
<path d="M49.0026 29.5801C49.2973 30.2876 50.1302 30.6341 50.8391 30.3409C51.5476 30.0478 51.8928 29.2124 51.5999 28.5043C50.9066 26.8285 48.3046 27.9061 49.0026 29.5801Z" fill="#EE1338"/>
</g>
<defs>
<clipPath id="clip0_288_3153">
<rect width="72" height="72" fill="white" transform="translate(0.554688 0.667969)"/>
</clipPath>
</defs>
</svg>
