<svg width="73" height="73" viewBox="0 0 73 73" fill="none" xmlns="http://www.w3.org/2000/svg">
<g clip-path="url(#clip0_849_19186)">
<path d="M72.2227 43.9072C72.2227 42.0785 71.4617 40.8244 70.9275 40.1692V35.3157V33.591V33.5905C70.9275 33.2342 70.8713 32.8821 70.7602 32.5441C70.7018 32.3664 70.6086 32.202 70.4858 32.0608L63.0434 23.4937C62.5734 22.9314 62.1141 22.3332 61.4539 21.9819C61.0909 21.7867 60.6633 21.6598 60.147 21.6517C59.7546 20.6677 58.9998 19.1319 57.6768 17.6039C55.6949 15.3148 52.0126 12.5859 45.7248 12.5859H17.9272C17.1507 12.5859 16.521 13.2155 16.521 13.9922C16.521 14.7689 17.1507 15.3984 17.9272 15.3984H44.3184V23.0565V25.008C44.3184 25.0099 44.3183 25.0117 44.3183 25.0134V31.3213C44.3183 31.3223 44.3184 31.3231 44.3184 31.3239V42.6777H3.03516V15.3986H5.55248C6.32902 15.3986 6.95873 14.769 6.95873 13.9923C6.95873 13.2157 6.32902 12.5861 5.55248 12.5861H1.62891C0.852375 12.5861 0.222656 13.2157 0.222656 13.9923V44.0841V44.0844V50.172C0.222656 52.3842 2.02181 54.1841 4.23342 54.1841H8.14012C8.13928 54.2264 8.13689 54.2683 8.13689 54.3108C8.13689 57.8617 11.0259 60.7507 14.5768 60.7507C18.1277 60.7507 21.0167 57.8618 21.0167 54.3108C21.0167 54.2683 21.0143 54.2264 21.0135 54.1841L47.6743 54.1838C47.6735 54.2263 47.6711 54.2683 47.6711 54.3109C47.6711 57.8618 50.5599 60.7508 54.1109 60.7508C57.6618 60.7508 60.5508 57.862 60.5508 54.3109C60.5508 54.2683 60.5484 54.2263 60.5475 54.1838H66.3164C68.8589 54.1838 70.9275 52.1153 70.9275 49.5727V47.6466C71.4617 46.9912 72.2227 45.7367 72.2227 43.9072ZM60.0475 24.4627C60.1718 24.4706 60.2287 24.5361 60.3185 24.63C60.5297 24.8511 68.115 33.6212 68.115 33.6212V33.9095H59.4993L56.6403 30.4287C56.3732 30.1035 55.9744 29.915 55.5535 29.915H53.2088V24.4627C53.2088 24.4627 59.7491 24.4436 60.0475 24.4627ZM50.3963 29.9152H47.1309V25.014C47.1309 24.7168 47.3843 24.4627 47.6826 24.4627H50.3963V29.9152ZM47.1309 32.7277H54.8889L57.748 36.2084C58.015 36.5337 58.4138 36.7221 58.8347 36.7221H68.115V39.3142H65.9831C64.1383 39.3142 62.578 40.835 62.5291 42.678H47.1309V32.7277ZM65.9831 45.6886C65.6286 45.6886 65.3405 45.4004 65.3405 45.046V42.7695C65.3405 42.4152 65.6288 42.1269 65.9831 42.1269H68.8837C69.1154 42.4695 69.4102 43.0699 69.4102 43.9072C69.4102 44.7428 69.1174 45.3419 68.8818 45.6886H65.9831ZM57.0662 21.6502H47.1311V15.453C53.1635 15.9317 55.9211 19.4536 57.0662 21.6502ZM3.03516 50.172V45.4906H44.3184V51.3716H20.3102C19.221 49.2366 16.9718 47.871 14.5768 47.871C14.2403 47.871 13.9024 47.8979 13.5701 47.9502C11.5331 48.2681 9.77911 49.5381 8.84381 51.3716H4.23342C3.57262 51.3716 3.03516 50.8334 3.03516 50.172ZM14.5767 57.9382C12.5764 57.9382 10.9493 56.3109 10.9493 54.3108C10.9493 52.336 12.6026 50.6839 14.5763 50.6839C16.5505 50.6839 18.2041 52.336 18.2041 54.3108C18.2041 56.311 16.5769 57.9382 14.5767 57.9382ZM54.1107 57.9382C52.1106 57.9382 50.4834 56.3109 50.4834 54.3108C50.4834 52.3364 52.1378 50.6836 54.1102 50.6836C56.0837 50.6836 57.7381 52.3358 57.7381 54.3108C57.7381 56.311 56.111 57.9382 54.1107 57.9382ZM66.3164 51.3713H59.8441C58.7575 49.2414 56.5179 47.8785 54.1293 47.8716C51.7277 47.865 49.4702 49.2296 48.3776 51.3713H47.1311V45.4904H62.5564C62.7755 47.1878 64.2723 48.5016 65.9831 48.5016H68.115V49.5727C68.115 50.5644 67.3082 51.3713 66.3164 51.3713Z" fill="#EE1338"/>
<path d="M53.1969 35.2227H51.0762C50.2996 35.2227 49.6699 35.8522 49.6699 36.6289C49.6699 37.4056 50.2996 38.0352 51.0762 38.0352H53.1969C53.9735 38.0352 54.6032 37.4056 54.6032 36.6289C54.6032 35.8522 53.9735 35.2227 53.1969 35.2227Z" fill="#EE1338"/>
<path d="M5.84766 19.6172V38.3106C5.84766 39.0873 6.47738 39.7169 7.25391 39.7169H40.0997C40.8762 39.7169 41.5059 39.0873 41.5059 38.3106V19.6172C41.5059 18.8405 40.8762 18.2109 40.0997 18.2109H7.25391C6.47738 18.2109 5.84766 18.8405 5.84766 19.6172ZM8.66016 21.0234H38.6934V36.9044H8.66016V21.0234Z" fill="#EE1338"/>
<path d="M10.3706 14.5291C10.6652 15.2361 11.498 15.5842 12.2071 15.2898C12.9148 14.9962 13.2614 14.1619 12.9679 13.4533C12.675 12.7458 11.8388 12.3989 11.1314 12.6925C10.4247 12.9857 10.0758 13.8217 10.3706 14.5291Z" fill="#EE1338"/>
</g>
<defs>
<clipPath id="clip0_849_19186">
<rect width="72" height="72" fill="white" transform="translate(0.222656 0.667969)"/>
</clipPath>
</defs>
</svg>
