<svg width="73" height="73" viewBox="0 0 73 73" fill="none" xmlns="http://www.w3.org/2000/svg">
<g clip-path="url(#clip0_849_19174)">
<path d="M24.0778 14.9592H29.7475C30.3187 14.9592 30.7818 14.4963 30.7818 13.9249C30.7818 13.3537 30.3188 12.8906 29.7475 12.8906H24.0778C23.5065 12.8906 23.0435 13.3536 23.0435 13.9249C23.0435 14.4961 23.5065 14.9592 24.0778 14.9592Z" fill="#EE1338" stroke="#EE1338" stroke-width="0.7"/>
<path d="M29.7475 17.0977H24.0778C23.5065 17.0977 23.0435 17.5606 23.0435 18.132C23.0435 18.7032 23.5064 19.1662 24.0778 19.1662H29.7475C30.3187 19.1662 30.7818 18.7033 30.7818 18.132C30.7818 17.5606 30.3188 17.0977 29.7475 17.0977Z" fill="#EE1338" stroke="#EE1338" stroke-width="0.7"/>
<path d="M29.7475 21.3027H24.0778C23.5065 21.3027 23.0435 21.7657 23.0435 22.337C23.0435 22.9084 23.5064 23.3713 24.0778 23.3713H29.7475C30.3187 23.3713 30.7818 22.9084 30.7818 22.337C30.7818 21.7657 30.3188 21.3027 29.7475 21.3027Z" fill="#EE1338" stroke="#EE1338" stroke-width="0.7"/>
<path d="M67.3291 5.44727H37.5358C35.2925 5.44727 33.3792 6.88333 32.6645 8.88414H17.344C16.4798 8.88414 15.6337 9.18311 14.9614 9.72606L13.2303 11.124C12.6359 11.6041 12.2472 12.2736 12.1215 13.0122H10.7267C9.396 13.0122 8.31347 14.0949 8.31347 15.4255V17.0966H1.53479C0.963566 17.0966 0.500488 17.5596 0.500488 18.1309C0.500488 18.7022 0.963426 19.1652 1.53479 19.1652H8.31361V20.8364C8.31361 22.1672 9.39629 23.2497 10.7269 23.2497H12.1216C12.2472 23.9883 12.636 24.6578 13.2306 25.138L14.9615 26.5358C15.6338 27.0788 16.48 27.3777 17.3441 27.3777H32.6647C33.0694 28.5112 33.8584 29.4632 34.8749 30.0756V32.6825C34.8749 33.7091 35.7099 34.5443 36.7366 34.5443H37.8546C38.332 35.971 38.2766 37.5462 37.6848 38.9374C37.4681 39.4467 37.521 40.0264 37.8263 40.4879C38.1315 40.9496 38.6442 41.2252 39.1977 41.2252H42.5022C42.6208 42.1383 43.4017 42.8463 44.3465 42.8463C45.1813 42.8463 45.9321 43.392 46.1724 44.1734C46.7359 46.0058 47.5666 47.747 48.6413 49.3488L50.8046 52.5728C51.5166 53.5953 51.7451 54.8443 51.684 56.0721H46.6155C44.3476 56.0721 42.1952 57.1656 40.8579 58.9973L37.4573 63.6549C36.9803 64.3084 36.9117 65.1623 37.278 65.8835C37.6443 66.6048 38.3747 67.0528 39.1838 67.0528H54.8771C55.4483 67.0528 55.9114 66.5899 55.9114 66.0185C55.9114 65.4473 55.4484 64.9842 54.8771 64.9842H39.1836C39.1648 64.9842 39.1413 64.9842 39.122 64.9464C39.1029 64.9087 39.1167 64.8899 39.1278 64.8747L42.5284 60.217C43.4776 58.9168 45.0053 58.1406 46.6152 58.1406H65.7384C66.6889 58.1406 67.4622 58.9139 67.4622 59.8644V64.6396C67.4622 64.8297 67.3076 64.9844 67.1174 64.9844H59.6087C59.0375 64.9844 58.5744 65.4473 58.5744 66.0187C58.5744 66.5899 59.0373 67.053 59.6087 67.053H67.1174C68.4481 67.053 69.5306 65.9703 69.5306 64.6397V59.8645C69.5306 57.9173 68.0551 56.3088 66.1635 56.0966C66.1853 54.668 66.0945 53.2211 65.8228 51.8174C65.717 51.256 65.1767 50.8862 64.6148 50.9926C64.0536 51.0985 63.6843 51.6393 63.79 52.2006C64.0363 53.4696 64.115 54.7805 64.0949 56.0721H53.7524C53.827 54.43 53.4596 52.786 52.522 51.4204L50.3588 48.1964C49.3968 46.7626 48.6533 45.2046 48.1494 43.5655C47.6568 41.9639 46.227 40.867 44.5532 40.7831V34.3375C44.5532 33.311 43.7182 32.4758 42.6915 32.4758H36.9433V30.78C37.1379 30.8024 37.3354 30.815 37.5359 30.815H57.7171V38.3918C57.7171 39.8365 58.1425 41.2342 58.9476 42.4339L61.1106 45.6577C61.652 46.4645 62.1293 47.3219 62.5293 48.206C62.7653 48.7318 63.3898 48.9554 63.898 48.7219C64.4185 48.4864 64.6495 47.8737 64.414 47.3532C63.9668 46.3651 63.4333 45.4068 62.8286 44.5053L60.6653 41.2815C60.09 40.4239 59.7859 39.4247 59.7859 38.3919V30.815H67.3296C70.181 30.815 72.5009 28.4951 72.5009 25.6437V10.6186C72.5005 7.76716 70.1806 5.44727 67.3291 5.44727ZM42.4846 39.1569H39.8125C40.3128 37.6705 40.3757 36.0626 40.0051 34.5444H42.4846V39.1569ZM10.3822 20.8366V15.4256C10.3822 15.2355 10.5368 15.0808 10.727 15.0808H12.0773V21.1812H10.727C10.5368 21.1814 10.3822 21.0267 10.3822 20.8366ZM16.261 24.9268L14.5302 23.5291C14.286 23.3317 14.1458 23.0383 14.1458 22.7245V13.538C14.1458 13.224 14.286 12.9306 14.5301 12.7333L16.261 11.3355C16.5668 11.0887 16.9512 10.9527 17.344 10.9527H19.4906V25.3094H17.344C16.9512 25.3094 16.5668 25.1736 16.261 24.9268ZM21.5592 10.9527H32.3644V25.3094H21.5592V10.9527ZM67.3291 28.7466H44.5531V24.0785C44.5531 23.5073 44.0902 23.0442 43.5188 23.0442C42.9474 23.0442 42.4845 23.5072 42.4845 24.0785V28.7466H42.4254H37.5358C35.8249 28.7466 34.433 27.3547 34.433 25.6438V10.6186C34.433 8.90777 35.8249 7.51586 37.5358 7.51586H42.4254H42.4845V19.3295C42.4845 19.9007 42.9474 20.3638 43.5188 20.3638C44.0902 20.3638 44.5531 19.9008 44.5531 19.3295V7.51586H67.3291C69.04 7.51586 70.4319 8.90777 70.4319 10.6186V12.8917H68.4624C67.8912 12.8917 67.4281 13.3546 67.4281 13.926C67.4281 14.4972 67.8911 14.9603 68.4624 14.9603H70.4319V17.0969H68.4624C67.8912 17.0969 67.4281 17.5599 67.4281 18.1312C67.4281 18.7024 67.8911 19.1655 68.4624 19.1655H70.4319V21.3022H68.4624C67.8912 21.3022 67.4281 21.7651 67.4281 22.3365C67.4281 22.9078 67.8911 23.3708 68.4624 23.3708H70.4319V25.6438C70.4319 27.3545 69.04 28.7466 67.3291 28.7466Z" fill="#EE1338" stroke="#EE1338" stroke-width="0.7"/>
<path d="M53.6409 10.5781H49.7795C48.0543 10.5781 46.6509 11.9817 46.6509 13.7067C46.6509 15.4318 48.0545 16.8354 49.7795 16.8354H53.6409C55.3661 16.8354 56.7696 15.4318 56.7696 13.7067C56.7696 11.9817 55.366 10.5781 53.6409 10.5781ZM53.6409 14.7669H49.7795C49.1949 14.7669 48.7193 14.2915 48.7193 13.7067C48.7193 13.122 49.1948 12.6466 49.7795 12.6466H53.6409C54.2255 12.6466 54.7011 13.122 54.7011 13.7067C54.7011 14.2915 54.2255 14.7669 53.6409 14.7669Z" fill="#EE1338" stroke="#EE1338" stroke-width="0.7"/>
<path d="M46.4731 61.761C46.4731 62.5481 47.1112 63.1861 47.8982 63.1861C48.6853 63.1861 49.3233 62.5481 49.3233 61.761C49.3233 60.974 48.6853 60.3359 47.8982 60.3359C47.1112 60.3359 46.4731 60.974 46.4731 61.761Z" fill="#EE1338" stroke="#EE1338" stroke-width="0.7"/>
<path d="M51.3989 61.761C51.3989 62.5481 52.0369 63.1861 52.824 63.1861C53.6111 63.1861 54.2491 62.5481 54.2491 61.761C54.2491 60.974 53.6111 60.3359 52.824 60.3359C52.0369 60.3359 51.3989 60.974 51.3989 61.761Z" fill="#EE1338" stroke="#EE1338" stroke-width="0.7"/>
<path d="M60.6257 10.7402C58.9455 10.7402 57.5786 12.1071 57.5786 13.7873C57.5786 15.4675 58.9455 16.8344 60.6257 16.8344C62.3059 16.8344 63.6727 15.4675 63.6727 13.7873C63.6727 12.1071 62.3059 10.7402 60.6257 10.7402ZM60.6257 14.7658C60.0862 14.7658 59.6472 14.3267 59.6472 13.7873C59.6472 13.2479 60.0862 12.8088 60.6257 12.8088C61.1651 12.8088 61.6041 13.2479 61.6041 13.7873C61.6041 14.3267 61.1651 14.7658 60.6257 14.7658Z" fill="#EE1338" stroke="#EE1338" stroke-width="0.7"/>
</g>
<defs>
<clipPath id="clip0_849_19174">
<rect width="72" height="72" fill="white" transform="translate(0.500488 0.25)"/>
</clipPath>
</defs>
</svg>
