<svg width="73" height="73" viewBox="0 0 73 73" fill="none" xmlns="http://www.w3.org/2000/svg">
<g clip-path="url(#clip0_849_19195)">
<path d="M7.7091 14.1757C8.20677 15.3695 9.97541 15.2791 10.352 14.0452C10.7161 12.8526 9.39224 11.8065 8.31463 12.415C7.7015 12.761 7.44317 13.5267 7.7091 14.1757Z" fill="#EE1338"/>
<path d="M9.63436 38.7165C9.13754 37.5056 7.33177 37.6215 6.98133 38.8791C6.63891 40.1085 8.05571 41.125 9.11532 40.4223C9.66614 40.0572 9.88847 39.3271 9.63436 38.7165Z" fill="#EE1338"/>
<path d="M45.1589 57.1133H42.6343C41.8577 57.1133 41.228 57.743 41.228 58.5195C41.228 59.2961 41.8577 59.9258 42.6343 59.9258H45.1589C45.9354 59.9258 46.5652 59.2961 46.5652 58.5195C46.5652 57.743 45.9356 57.1133 45.1589 57.1133Z" fill="#EE1338"/>
<path d="M54.6433 57.1133H52.1187C51.3421 57.1133 50.7124 57.743 50.7124 58.5195C50.7124 59.2961 51.3421 59.9258 52.1187 59.9258H54.6433C55.4198 59.9258 56.0495 59.2961 56.0495 58.5195C56.0495 57.743 55.42 57.1133 54.6433 57.1133Z" fill="#EE1338"/>
<path d="M64.1298 57.1133H61.605C60.8284 57.1133 60.1987 57.743 60.1987 58.5195C60.1987 59.2961 60.8284 59.9258 61.605 59.9258H64.1298C64.9063 59.9258 65.536 59.2961 65.536 58.5195C65.536 57.743 64.9063 57.1133 64.1298 57.1133Z" fill="#EE1338"/>
<path d="M56.6022 41.6523H51.4272C50.6507 41.6523 50.021 42.2821 50.021 43.0586C50.021 43.8351 50.6507 44.4648 51.4272 44.4648H56.6022C57.3788 44.4648 58.0085 43.8351 58.0085 43.0586C58.0085 42.2821 57.3788 41.6523 56.6022 41.6523Z" fill="#EE1338"/>
<path d="M56.6022 46.4727H51.4272C50.6507 46.4727 50.021 47.1024 50.021 47.8789C50.021 48.6554 50.6507 49.2852 51.4272 49.2852H56.6022C57.3788 49.2852 58.0085 48.6554 58.0085 47.8789C58.0085 47.1024 57.3788 46.4727 56.6022 46.4727Z" fill="#EE1338"/>
<path d="M32.9775 9.57788C33.2721 10.2858 34.1052 10.6314 34.814 10.3387C35.5221 10.0463 35.8684 9.20972 35.5748 8.5021C35.2811 7.79419 34.447 7.44783 33.7383 7.74132C33.0319 8.03382 32.6827 8.87096 32.9775 9.57788Z" fill="#EE1338"/>
<path d="M69.5843 52.689C71.3859 51.3535 72.5562 49.2124 72.5562 46.8026C72.5562 42.7642 69.2708 39.4787 65.2323 39.4787H63.7592V27.4044C63.7592 25.2357 62.1241 23.4427 60.022 23.1907L41.1614 7.94738C40.5575 7.45927 39.672 7.55306 39.1838 8.15705C38.6955 8.76117 38.7894 9.64655 39.3934 10.1347L55.5081 23.1585H53.2475C51.6005 23.1585 50.0625 23.8937 49.0276 25.1752L46.603 28.1775L38.6769 19.8548C39.0902 19.1289 39.3107 18.2958 39.3107 17.4604C39.3107 14.7823 37.132 12.6036 34.454 12.6036C32.3409 12.6036 30.4173 14.0329 29.8052 16.0541H14.73L14.8811 13.7185C14.9543 12.5898 14.6081 11.4038 14.0213 10.4473H28.2383C29.0149 10.4473 29.6446 9.81755 29.6446 9.04102C29.6446 8.26448 29.0149 7.63477 28.2383 7.63477H9.12263C5.86983 7.63477 2.90559 10.349 3.13214 13.7262L4.67719 35.6992L2.31356 37.9098C1.17197 38.9777 0.531563 40.4865 0.556875 42.0495C0.582188 43.6124 1.27083 45.0997 2.44631 46.1299L12.5518 54.9878C13.022 55.4 13.7348 55.4487 14.2568 55.1019C14.7857 54.7506 15.0135 54.0884 14.8129 53.4861L11.8108 44.4744L13.5592 40.6343C14.2719 39.1605 14.2221 37.4665 13.4374 36.0447L14.5482 18.8666H29.8055C30.4006 20.83 32.2079 22.2705 34.3527 22.3146L38.8703 38.4411V51.6162C35.9042 52.5047 33.7361 55.2577 33.7361 58.509C33.7361 62.4764 36.9637 65.704 40.9312 65.704H65.361C69.3284 65.704 72.556 62.4764 72.556 58.509C72.5562 56.1186 71.3835 53.9981 69.5843 52.689ZM6.80892 11.3733C7.39139 10.7755 8.17172 10.4461 9.00633 10.4461C10.6829 10.4461 12.1001 11.8821 12.0725 13.5615L10.7672 33.7538C9.67388 33.3578 8.45367 33.3551 7.35961 33.7484L5.94014 13.5627C5.92594 12.7404 6.23377 11.9639 6.80892 11.3733ZM11.0233 39.4181C11.0177 39.4297 11.0122 39.4412 11.0069 39.4529L9.02222 43.812C8.87512 44.1352 8.85572 44.5021 8.96794 44.8391L10.5054 49.4541L4.30017 44.0149C3.71236 43.4998 3.38189 42.7857 3.36923 42.0041C3.35658 41.2223 3.66398 40.4978 4.23478 39.9639L7.08539 37.2981C7.55367 36.8645 7.98623 36.4298 8.64506 36.304C9.52875 36.135 10.4373 36.5336 10.9132 37.2958C11.3221 37.9507 11.3622 38.7243 11.0233 39.4181ZM62.3531 42.2912H65.2324C67.7199 42.2912 69.7438 44.3151 69.7438 46.8026C69.7438 49.2901 67.7199 51.314 65.2324 51.314H41.6829V39.6544H50.9925C53.5594 39.6544 55.7883 37.8277 56.2926 35.3106L58.1633 25.9717H59.5139C60.3039 25.9717 60.9466 26.6144 60.9466 27.4044V40.885C60.9469 41.6615 61.5765 42.2912 62.3531 42.2912ZM51.2156 26.9427C51.7141 26.3255 52.455 25.9717 53.2481 25.9717H55.295L53.5348 34.7582C53.2929 35.9655 52.2238 36.8417 50.9925 36.8417H43.2201L51.2156 26.9427ZM40.8954 35.244L37.3309 22.5198L44.8206 30.3842L40.8954 35.244ZM32.41 17.4659C32.41 17.464 32.4103 17.4623 32.4103 17.4604C32.4103 16.3334 33.3271 15.4167 34.454 15.4167C35.5811 15.4167 36.4978 16.3335 36.4978 17.4604C36.4978 18.5724 35.5649 19.5046 34.454 19.5046C33.3285 19.5048 32.4129 18.5906 32.41 17.4659ZM65.3611 62.8917H40.9314C38.5148 62.8917 36.5489 60.9257 36.5489 58.5091C36.5489 56.0924 38.5148 54.1265 40.9314 54.1265H65.2324H65.3612C67.7779 54.1265 69.7438 56.0924 69.7438 58.5091C69.7438 60.9257 67.7777 62.8917 65.3611 62.8917Z" fill="#EE1338"/>
</g>
<defs>
<clipPath id="clip0_849_19195">
<rect width="72" height="72" fill="white" transform="translate(0.556152 0.667969)"/>
</clipPath>
</defs>
</svg>
