<svg width="73" height="73" viewBox="0 0 73 73" fill="none" xmlns="http://www.w3.org/2000/svg">
<g clip-path="url(#clip0_288_3144)">
<path d="M72.1957 44.8932L71.8421 41.6061C71.7312 40.5815 71.3824 39.6118 70.8452 38.763C70.2633 37.8432 69.4599 37.0654 68.4882 36.5191L67.5239 35.9761C67.5218 35.975 67.5197 35.9741 67.5176 35.9729L63.7643 33.8608L61.567 30.0374C59.7796 26.9171 56.7033 24.6257 53.2129 23.7756C52.1951 23.5277 51.1467 23.3999 50.099 23.3999H36.7277C34.9998 23.3999 33.4984 24.5055 32.9918 26.151C32.1354 28.9313 31.7552 31.8446 31.596 33.4902H27.7081V18.1817C27.7081 17.4051 27.0784 16.7754 26.3018 16.7754H19.499H13.6757H6.87288C6.09634 16.7754 5.46661 17.4051 5.46661 18.1817V33.4904H1.62892C0.852381 33.4904 0.222656 34.1201 0.222656 34.8966V48.7822C0.222656 49.5588 0.852381 50.1885 1.62892 50.1885H6.38265C6.38265 50.191 6.38251 50.1936 6.38251 50.1962C6.38251 53.7077 9.2392 56.5644 12.7508 56.5644C16.2622 56.5644 19.1189 53.7077 19.1189 50.1962C19.1189 50.1937 19.1188 50.1912 19.1188 50.1885H39.4483C40.2248 50.1885 40.8545 49.5588 40.8545 48.7822C40.8545 48.0057 40.2248 47.376 39.4483 47.376H34.3022V36.3029H42.7201C44.5437 36.3029 46.0273 34.8193 46.0273 32.9957V26.2124H48.6916V32.9959C48.6916 34.8196 50.1753 36.3032 51.9989 36.3032H62.3695L64.735 37.6344L64.4064 38.0651C63.8184 38.8359 63.4947 39.7942 63.4947 40.7634C63.4947 42.9064 65.238 44.6499 67.3812 44.6499H69.3408L69.3993 45.1932C69.4596 45.7574 69.2841 46.3003 68.9049 46.7222C68.526 47.1438 68.005 47.376 67.4377 47.376H62.2009C61.1319 45.223 58.8678 43.8128 56.4607 43.8288C53.884 43.841 51.5113 45.4727 50.5656 47.8672C50.2738 48.606 50.1235 49.4018 50.1235 50.1961C50.1235 53.7075 52.9802 56.5642 56.4916 56.5642C60.0032 56.5642 62.8599 53.7075 62.8599 50.1961C62.8599 50.1936 62.8598 50.191 62.8598 50.1884H67.4377C68.7935 50.1884 70.0906 49.6102 70.9967 48.6021C71.9029 47.5938 72.3399 46.2424 72.1957 44.8932ZM56.4916 53.7518C54.5312 53.7518 52.936 52.1567 52.936 50.1962C52.936 48.3775 54.3769 46.8125 56.1873 46.6546C58.2285 46.4785 60.0475 48.1463 60.0475 50.1962C60.0474 52.1568 58.4522 53.7518 56.4916 53.7518ZM18.0925 19.5879V22.5833H15.0819V19.5879H18.0925ZM8.27914 19.5879H12.2694V23.9895C12.2694 24.7661 12.8991 25.3958 13.6757 25.3958H19.4987C20.2753 25.3958 20.905 24.7661 20.905 23.9895V19.5879H24.8953V33.4904H8.27914V19.5879ZM12.7508 53.7518C10.7902 53.7518 9.19504 52.1567 9.19504 50.1962C9.19504 48.1608 10.9928 46.4933 13.0235 46.6522C14.8475 46.7929 16.3065 48.367 16.3065 50.1962C16.3064 52.1568 14.7113 53.7518 12.7508 53.7518ZM18.3041 47.0849C17.2314 45.1832 15.2134 43.9302 13.0292 43.8351C10.5358 43.7233 8.15061 45.1431 7.04107 47.376H3.03518V41.6258H4.42837C5.20491 41.6258 5.83463 40.996 5.83463 40.2195C5.83463 39.443 5.20491 38.8132 4.42837 38.8132H3.03518V36.3028H31.4897V47.3758H18.4595C18.4104 47.2774 18.358 47.1809 18.3041 47.0849ZM43.2148 32.9958C43.2148 33.2685 42.9929 33.4905 42.7201 33.4905H34.4245C34.6502 31.2946 35.0291 29.0913 35.6796 26.9791C35.8186 26.5278 36.2496 26.2128 36.7277 26.2128H43.2147V32.9958H43.2148ZM51.9989 33.4907C51.7262 33.4907 51.5042 33.2688 51.5042 32.9959V26.3131C53.9619 26.663 56.2739 27.9138 57.9226 29.7683C58.3797 30.2824 58.7862 30.8429 59.1289 31.4396L60.3072 33.4907H51.9989ZM66.3072 40.7634C66.3072 40.4069 66.4265 40.0545 66.6426 39.7709L67.2081 39.0298C68.2074 39.6306 68.889 40.6815 69.0362 41.8373H67.3813C66.7888 41.8374 66.3072 41.3556 66.3072 40.7634Z" fill="#EE1237"/>
<path d="M44.9649 40.2227C44.9649 39.4461 44.3351 38.8164 43.5586 38.8164H41.0781C40.3016 38.8164 39.6719 39.4461 39.6719 40.2227C39.6719 40.9992 40.3016 41.6289 41.0781 41.6289H43.5586C44.3351 41.6289 44.9649 40.9993 44.9649 40.2227Z" fill="#EE1237"/>
<path d="M51.5293 41.6289H54.0096C54.7862 41.6289 55.4159 40.9992 55.4159 40.2227C55.4159 39.4461 54.7862 38.8164 54.0096 38.8164H51.5293C50.7528 38.8164 50.123 39.4461 50.123 40.2227C50.123 40.9992 50.7526 41.6289 51.5293 41.6289Z" fill="#EE1237"/>
<path d="M46.9896 48.2437C46.6988 47.5347 45.8611 47.1912 45.1545 47.483C44.4459 47.7756 44.1004 48.6115 44.3937 49.3197C44.6869 50.0274 45.5214 50.3727 46.229 50.0804C46.9363 49.7882 47.2838 48.9504 46.9896 48.2437Z" fill="#EE1237"/>
</g>
<defs>
<clipPath id="clip0_288_3144">
<rect width="72" height="72" fill="white" transform="translate(0.222656 0.667969)"/>
</clipPath>
</defs>
</svg>
