<svg width="25" height="25" viewBox="0 0 25 25" fill="none" xmlns="http://www.w3.org/2000/svg">
<path d="M4.67606 11.517L13.6236 20.4646C15.5615 22.4024 18.7034 22.4024 20.6413 20.4646C21.4164 19.6894 21.4164 18.4326 20.6413 17.6575L18.1559 15.1721C17.5906 14.6068 16.6743 14.6068 16.109 15.1721C15.5438 15.7373 14.6274 15.7373 14.0622 15.1721L9.5592 10.669C8.99399 10.1038 8.99399 9.18744 9.5592 8.62222C10.1244 8.05701 10.1244 7.14061 9.5592 6.5754L7.48314 4.49933C6.70799 3.72418 5.45122 3.72418 4.67607 4.49933C2.73819 6.43721 2.73818 9.57913 4.67606 11.517Z" stroke="#EE1338" stroke-width="2"/>
</svg>
