<svg width="21" height="21" viewBox="0 0 21 21" fill="none" xmlns="http://www.w3.org/2000/svg">
<path d="M18.2227 0.917969C19.3272 0.917969 20.2227 1.8134 20.2227 2.91797V18.918C20.2227 20.0225 19.3272 20.918 18.2227 20.918H13.2227V13.3887H15.7852L16.1963 10.5654H13.2227V9.3584C13.2227 8.27612 13.528 7.74126 14.5615 7.74121H16.2227V5.04102C15.9306 5.00243 15.3137 4.91797 14.1475 4.91797C11.7123 4.91802 10.2227 6.1783 10.2227 9.04883V10.5654H7.22266V13.3887H10.2227V20.918H2.22266C1.11809 20.918 0.222656 20.0225 0.222656 18.918V2.91797C0.222656 1.8134 1.11809 0.917969 2.22266 0.917969H18.2227Z" fill="#262626"/>
</svg>
