<svg width="73" height="73" viewBox="0 0 73 73" fill="none" xmlns="http://www.w3.org/2000/svg">
<path d="M58.8959 22.2486V19.5794C58.8959 18.6941 58.1757 17.974 57.2904 17.974H43.9661V16.2617C43.9661 16.2322 43.99 16.2083 44.0195 16.2083H49.8256C50.7108 16.2083 51.431 15.4882 51.431 14.6029V12.944C51.431 12.0587 50.7108 11.3385 49.8256 11.3385H37.3307V10.4557C37.3307 10.0271 36.9833 9.67969 36.5547 9.67969H17.4778C15.6778 9.67969 14.2135 11.144 14.2135 12.944V22.2486C13.2504 22.5734 12.5547 23.4847 12.5547 24.556V31.1914C12.5547 32.2627 13.2504 33.1739 14.2135 33.4988V60.2215C14.2135 61.1068 14.9337 61.827 15.819 61.827H16.7045C16.7032 61.8447 16.7018 61.8624 16.7018 61.8804C16.7018 62.3089 17.0492 62.6564 17.4778 62.6564H19.1366C19.5652 62.6564 19.9127 62.3089 19.9127 61.8804C19.9127 61.8624 19.9112 61.8447 19.91 61.827H53.1994C53.1982 61.8447 53.1967 61.8624 53.1967 61.8804C53.1967 62.3089 53.5442 62.6564 53.9727 62.6564H55.6316C56.0602 62.6564 56.4076 62.3089 56.4076 61.8804C56.4076 61.8624 56.4062 61.8447 56.4049 61.827H57.2904C58.1757 61.827 58.8959 61.1068 58.8959 60.2215V33.4988C59.859 33.174 60.5547 32.2628 60.5547 31.1914V24.556C60.5548 23.4848 59.8591 22.5735 58.8959 22.2486ZM49.8256 12.8906C49.855 12.8906 49.8789 12.9145 49.8789 12.944V14.6028C49.8789 14.6323 49.855 14.6562 49.8256 14.6562H44.0195C43.1342 14.6562 42.4141 15.3763 42.4141 16.2616V17.9739H37.3307V12.8906H49.8256ZM42.4141 28.7032C42.4141 28.7327 42.3902 28.7566 42.3607 28.7566H30.7487C30.7192 28.7566 30.6953 28.7327 30.6953 28.7032V22.0678C30.6953 22.0383 30.7192 22.0144 30.7487 22.0144H42.3607C42.3902 22.0144 42.4141 22.0383 42.4141 22.0678V28.7032ZM17.4778 11.2317H35.7787V20.4622H30.7487C29.8634 20.4622 29.1432 21.1824 29.1432 22.0676V22.121H15.7656V12.944C15.7656 11.9998 16.5336 11.2317 17.4778 11.2317ZM19.19 33.6264V40.3686H15.7656V33.6264H19.19ZM22.5078 33.6264V40.3686H20.7422V33.6264H22.5078ZM49.0495 33.6264V35.392H24.0598V33.6264H49.0495ZM52.3673 33.6264V40.3686H50.6017V33.6264H52.3673ZM57.3438 33.6264V40.3686H53.9193V33.6264H57.3438ZM24.0598 40.3686V36.9441H27.4844V37.8269C27.4844 38.2555 27.8318 38.6029 28.2604 38.6029C28.689 38.6029 29.0364 38.2555 29.0364 37.8269V36.9441H35.7787V37.8269C35.7787 38.2555 36.1261 38.6029 36.5547 38.6029C36.9833 38.6029 37.3307 38.2555 37.3307 37.8269V36.9441H44.0729V37.8269C44.0729 38.2555 44.4204 38.6029 44.849 38.6029C45.2775 38.6029 45.625 38.2555 45.625 37.8269V36.9441H49.0495V40.3686H24.0598ZM46.5612 60.2749H26.5482V59.3921C26.5482 58.9053 26.9443 58.5093 27.431 58.5093H45.6784C46.1652 58.5093 46.5612 58.9054 46.5612 59.3921V60.2749ZM57.2904 60.2749H48.1132V59.3921C48.1132 58.0495 47.0209 56.9573 45.6784 56.9573H27.431C26.0884 56.9573 24.9961 58.0496 24.9961 59.3921V60.2749H15.819C15.7895 60.2749 15.7656 60.251 15.7656 60.2215V55.1915H17.4781C17.9067 55.1915 18.2541 54.8441 18.2541 54.4155C18.2541 53.9869 17.9067 53.6395 17.4781 53.6395H15.7656V41.9207H57.3439V53.6395H20.7953C20.3667 53.6395 20.0192 53.9869 20.0192 54.4155C20.0192 54.8441 20.3667 55.1915 20.7953 55.1915H57.3438V60.2215C57.3438 60.2509 57.3199 60.2749 57.2904 60.2749ZM59.0027 31.1914C59.0027 31.6779 58.6073 32.0736 58.1209 32.0742C58.1206 32.0742 58.1202 32.0742 58.1198 32.0742C58.1191 32.0742 58.1185 32.0744 58.1179 32.0744H14.9915C14.9909 32.0744 14.9902 32.0742 14.9895 32.0742C14.9892 32.0742 14.9889 32.0742 14.9885 32.0742C14.5022 32.0737 14.1066 31.678 14.1066 31.1914V24.556C14.1066 24.0697 14.5019 23.674 14.988 23.6732C14.9885 23.6732 14.989 23.6733 14.9894 23.6733C14.9905 23.6733 14.9914 23.6732 14.9924 23.6732H29.1431V28.7032C29.1431 29.5885 29.8633 30.3086 30.7486 30.3086H42.3606C43.2459 30.3086 43.966 29.5885 43.966 28.7032V23.6732H53.1432C53.5718 23.6732 53.9193 23.3257 53.9193 22.8972C53.9193 22.4686 53.5718 22.1211 53.1432 22.1211H43.966V22.0678C43.966 21.1825 43.2459 20.4623 42.3606 20.4623H37.3307V19.5261H57.2904C57.3199 19.5261 57.3438 19.55 57.3438 19.5795V22.1211H56.461C56.0324 22.1211 55.685 22.4686 55.685 22.8972C55.685 23.3257 56.0324 23.6732 56.461 23.6732H58.1198C58.6067 23.6732 59.0026 24.0693 59.0026 24.5561V31.1914H59.0027Z" fill="#EE1338" stroke="#EE1237" stroke-width="0.923077"/>
<path d="M47.3359 25.4414H46.5065C46.0779 25.4414 45.7305 25.7889 45.7305 26.2174C45.7305 26.646 46.0779 26.9935 46.5065 26.9935H47.3359C47.7645 26.9935 48.1119 26.646 48.1119 26.2174C48.1119 25.7889 47.7646 25.4414 47.3359 25.4414Z" fill="#EE1338" stroke="#EE1237" stroke-width="0.923077"/>
<path d="M26.6015 25.4414H25.7721C25.3435 25.4414 24.9961 25.7889 24.9961 26.2174C24.9961 26.646 25.3435 26.9935 25.7721 26.9935H26.6015C27.0301 26.9935 27.3776 26.646 27.3776 26.2174C27.3776 25.7889 27.0301 25.4414 26.6015 25.4414Z" fill="#EE1338" stroke="#EE1237" stroke-width="0.923077"/>
<path d="M26.6015 28.7539H25.7721C25.3435 28.7539 24.9961 29.1014 24.9961 29.5299C24.9961 29.9585 25.3435 30.306 25.7721 30.306H26.6015C27.0301 30.306 27.3776 29.9585 27.3776 29.5299C27.3776 29.1014 27.0301 28.7539 26.6015 28.7539Z" fill="#EE1338" stroke="#EE1237" stroke-width="0.923077"/>
<path d="M51.4843 25.4414H50.6549C50.2264 25.4414 49.8789 25.7889 49.8789 26.2174C49.8789 26.646 50.2264 26.9935 50.6549 26.9935H51.4843C51.9129 26.9935 52.2604 26.646 52.2604 26.2174C52.2604 25.7889 51.9129 25.4414 51.4843 25.4414Z" fill="#EE1338" stroke="#EE1237" stroke-width="0.923077"/>
<path d="M55.6308 25.4414H54.8014C54.3728 25.4414 54.0254 25.7889 54.0254 26.2174C54.0254 26.646 54.3728 26.9935 54.8014 26.9935H55.6308C56.0594 26.9935 56.4069 26.646 56.4069 26.2174C56.4069 25.7889 56.0594 25.4414 55.6308 25.4414Z" fill="#EE1338" stroke="#EE1237" stroke-width="0.923077"/>
<path d="M47.3359 28.7539H46.5065C46.0779 28.7539 45.7305 29.1014 45.7305 29.5299C45.7305 29.9585 46.0779 30.306 46.5065 30.306H47.3359C47.7645 30.306 48.1119 29.9585 48.1119 29.5299C48.1119 29.1014 47.7646 28.7539 47.3359 28.7539Z" fill="#EE1338" stroke="#EE1237" stroke-width="0.923077"/>
<path d="M51.4843 28.7539H50.6549C50.2264 28.7539 49.8789 29.1014 49.8789 29.5299C49.8789 29.9585 50.2264 30.306 50.6549 30.306H51.4843C51.9129 30.306 52.2604 29.9585 52.2604 29.5299C52.2604 29.1014 51.9129 28.7539 51.4843 28.7539Z" fill="#EE1338" stroke="#EE1237" stroke-width="0.923077"/>
<path d="M55.6308 28.7539H54.8014C54.3728 28.7539 54.0254 29.1014 54.0254 29.5299C54.0254 29.9585 54.3728 30.306 54.8014 30.306H55.6308C56.0594 30.306 56.4069 29.9585 56.4069 29.5299C56.4069 29.1014 56.0594 28.7539 55.6308 28.7539Z" fill="#EE1338" stroke="#EE1237" stroke-width="0.923077"/>
</svg>
