<svg width="25" height="25" viewBox="0 0 25 25" fill="none" xmlns="http://www.w3.org/2000/svg">
<path d="M10.7222 14.4181L21.2222 3.91814M10.8498 14.7462L13.4779 21.5042C13.7094 22.0996 13.8252 22.3972 13.992 22.4841C14.1366 22.5595 14.3088 22.5596 14.4535 22.4844C14.6204 22.3977 14.7365 22.1002 14.9687 21.5051L21.5591 4.61734C21.7687 4.08016 21.8735 3.81157 21.8162 3.63994C21.7664 3.49089 21.6494 3.37392 21.5004 3.32413C21.3287 3.2668 21.0602 3.37161 20.523 3.58124L3.63523 10.1716C3.04016 10.4038 2.74262 10.5199 2.65591 10.6868C2.58075 10.8315 2.58085 11.0038 2.65618 11.1484C2.74309 11.3152 3.04076 11.4309 3.63611 11.6624L10.3941 14.2906C10.515 14.3376 10.5754 14.3611 10.6263 14.3973C10.6714 14.4295 10.7108 14.469 10.743 14.5141C10.7793 14.5649 10.8028 14.6254 10.8498 14.7462Z" stroke="#EE1237" stroke-width="2" stroke-linecap="round" stroke-linejoin="round"/>
</svg>
