<svg width="73" height="73" viewBox="0 0 73 73" fill="none" xmlns="http://www.w3.org/2000/svg">
<path d="M22.7119 44.8125C22.2023 44.8125 21.7891 45.2257 21.7891 45.7354V47.3965C21.7891 47.9061 22.2023 48.3193 22.7119 48.3193C23.2216 48.3193 23.6348 47.9061 23.6348 47.3965V45.7354C23.6348 45.2257 23.2216 44.8125 22.7119 44.8125Z" fill="#EE1237" stroke="#EE1338" stroke-width="0.4375"/>
<path d="M65.14 57.0693H63.6458V31.4646C66.1209 31.0265 68.0072 28.8615 68.0072 26.2627V22.7096C68.0072 22.6915 68.0055 22.6737 68.0045 22.6559C68.0039 22.6459 68.0039 22.636 68.003 22.626C67.9997 22.5896 67.9946 22.5538 67.9873 22.5188C67.9869 22.5167 67.9861 22.5148 67.9857 22.5128C67.9784 22.4792 67.9689 22.4465 67.9581 22.4144C67.9554 22.4062 67.9522 22.3981 67.9492 22.3901C67.939 22.3626 67.9277 22.3357 67.915 22.3095C67.9127 22.3047 67.9112 22.2997 67.9089 22.295L63.8284 14.1802V9.93581C63.8284 8.84045 62.9372 7.94922 61.8418 7.94922H19.8764C19.3668 7.94922 18.9536 8.36241 18.9536 8.87207C18.9536 9.38173 19.3668 9.79492 19.8764 9.79492H61.8418C61.9194 9.79492 61.9827 9.85817 61.9827 9.93581V13.485H11.1267V9.93581C11.1267 9.85817 11.1899 9.79492 11.2676 9.79492H15.5826C16.0922 9.79492 16.5054 9.38173 16.5054 8.87207C16.5054 8.36241 16.0922 7.94922 15.5826 7.94922H11.2676C10.1722 7.94922 9.28098 8.84045 9.28098 9.93581V14.1802L5.20062 22.295C5.19828 22.2998 5.19668 22.3049 5.19447 22.3095C5.18179 22.3357 5.17047 22.3626 5.16026 22.3901C5.15731 22.3982 5.15411 22.4062 5.1514 22.4144C5.14057 22.4465 5.1311 22.4792 5.12384 22.5128C5.12335 22.5148 5.12273 22.5167 5.12224 22.5188C5.11486 22.5539 5.10969 22.5896 5.10649 22.626C5.10563 22.636 5.10563 22.6459 5.10501 22.6559C5.10403 22.6737 5.10231 22.6915 5.10231 22.7096V26.2627C5.10231 28.8614 6.98862 31.0265 9.4637 31.4646V57.0693H7.96942C6.36218 57.0693 5.05469 58.3769 5.05469 59.9841V62.9031C5.05469 63.7233 5.72197 64.3906 6.5422 64.3906H66.5672C67.3874 64.3906 68.0547 63.7233 68.0547 62.9031V59.9841C68.0547 58.3769 66.7472 57.0693 65.14 57.0693ZM66.1614 26.2628C66.1614 28.1588 64.6189 29.7013 62.7228 29.7013C60.8268 29.7013 59.2843 28.1588 59.2843 26.2628V23.6325H66.1614V26.2628ZM62.341 15.3307L65.5872 21.7867H59.0106L56.6919 15.3307H62.341ZM54.7307 15.3307L57.0494 21.7867H50.3839L48.9926 15.3307H54.7307ZM57.4387 23.6324V26.2627C57.4387 28.1587 55.8962 29.7012 54.0001 29.7012C52.1041 29.7012 50.5616 28.1587 50.5616 26.2627V23.6324H57.4387ZM47.1046 15.3307L48.4959 21.7867H41.7751L41.3113 15.3307H47.1046ZM48.7159 23.6324V26.2627C48.7159 28.1587 47.1734 29.7012 45.2775 29.7012C43.3816 29.7012 41.8389 28.1587 41.8389 26.2627V23.6324H48.7159ZM33.6486 15.3307H39.4607L39.9244 21.7867H33.1848L33.6486 15.3307ZM33.1161 23.6324H39.9932V26.2627C39.9932 28.1587 38.4507 29.7012 36.5547 29.7012C34.6587 29.7012 33.1161 28.1587 33.1161 26.2627V23.6324ZM36.5547 31.5469C38.364 31.5469 39.9632 30.6325 40.9161 29.242C41.869 30.6325 43.4682 31.5469 45.2775 31.5469C47.0868 31.5469 48.686 30.6325 49.6388 29.242C50.5916 30.6325 52.1909 31.5469 54.0001 31.5469C55.8094 31.5469 57.4087 30.6325 58.3615 29.242C59.1486 30.3905 60.3769 31.2127 61.8001 31.4646V57.0693H27.0599V36.5618C27.0599 35.6153 26.2899 34.8453 25.3434 34.8453H14.6741C13.7276 34.8453 12.9576 35.6153 12.9576 36.5618V57.0693H11.3094V31.4646C12.7326 31.2127 13.9609 30.3905 14.748 29.242C15.7008 30.6325 17.3001 31.5469 19.1093 31.5469C20.9186 31.5469 22.5179 30.6325 23.4707 29.242C24.4236 30.6325 26.0229 31.5469 27.832 31.5469C29.6412 31.5469 31.2405 30.6325 32.1934 29.242C33.1462 30.6325 34.7454 31.5469 36.5547 31.5469ZM25.2142 36.691V57.0693H14.8033V36.691H25.2142ZM15.6707 26.2628V23.6325H22.5478V26.2628C22.5478 28.1588 21.0053 29.7013 19.1092 29.7013C17.2132 29.7013 15.6707 28.1587 15.6707 26.2628ZM26.0048 15.3307H31.7981L31.3343 21.7867H24.6135L26.0048 15.3307ZM24.3935 23.6324H31.2704V26.2627C31.2704 28.1587 29.7279 29.7012 27.8319 29.7012C25.9359 29.7012 24.3935 28.1587 24.3935 26.2627V23.6324ZM24.1166 15.3307L22.7253 21.7867H16.0599L18.3786 15.3307H24.1166ZM10.7684 15.3307H16.4175L14.0988 21.7867H7.52215L10.7684 15.3307ZM6.94801 26.2628V23.6325H13.8251V26.2628C13.8251 28.1588 12.2826 29.7013 10.3866 29.7013C8.49053 29.7013 6.94801 28.1587 6.94801 26.2628ZM6.90039 62.5449V59.984C6.90039 59.3945 7.3799 58.915 7.96942 58.915H65.1398C65.7293 58.915 66.2089 59.3945 66.2089 59.984V62.5449H6.90039Z" fill="#EE1237" stroke="#EE1338" stroke-width="0.4375"/>
<path d="M57.5668 34.8457H46.2818C45.7721 34.8457 45.3589 35.2589 45.3589 35.7686C45.3589 36.2782 45.7721 36.6914 46.2818 36.6914H57.4377V51.2152H30.832V36.6914H41.937C42.4467 36.6914 42.8599 36.2782 42.8599 35.7686C42.8599 35.2589 42.4467 34.8457 41.937 34.8457H30.7028C29.7564 34.8457 28.9863 35.6156 28.9863 36.5622V51.3446C28.9863 52.291 29.7564 53.0611 30.7028 53.0611H57.5668C58.5133 53.0611 59.2833 52.291 59.2833 51.3446V36.5622C59.2833 35.6157 58.5133 34.8457 57.5668 34.8457Z" fill="#EE1237" stroke="#EE1338" stroke-width="0.4375"/>
</svg>
