<svg width="21" height="21" viewBox="0 0 21 21" fill="none" xmlns="http://www.w3.org/2000/svg">
<path d="M18.2227 0.917969C19.3272 0.917969 20.2227 1.8134 20.2227 2.91797V18.918C20.2227 20.0225 19.3272 20.918 18.2227 20.918H2.22266C1.11809 20.918 0.222656 20.0225 0.222656 18.918V2.91797C0.222656 1.8134 1.11809 0.917969 2.22266 0.917969H18.2227ZM4.47266 8.28125V16.918H7.15918V8.28125H4.47266ZM14 8.06738C12.6932 8.06738 11.8168 8.78316 11.458 9.46191H11.4219V8.28125H8.84473V16.918H11.5293V12.6455C11.5293 11.5192 11.744 10.4279 13.1416 10.4277C14.5193 10.4277 14.5381 11.7161 14.5381 12.7178V16.918H17.2227V12.1816C17.2227 9.85612 16.72 8.06749 14 8.06738ZM5.78906 3.91797C4.92391 3.91797 4.22266 4.61897 4.22266 5.48242C4.22288 6.34568 4.92314 7.04688 5.78906 7.04688C6.65224 7.04686 7.35427 6.34567 7.35449 5.48242C7.35449 4.61989 6.65238 3.91799 5.78906 3.91797Z" fill="#262626"/>
</svg>
