<svg width="73" height="73" viewBox="0 0 73 73" fill="none" xmlns="http://www.w3.org/2000/svg">
<path d="M57.7819 37.0397C59.9788 37.0397 61.7661 35.2524 61.7661 33.0555V32.1509C62.1328 32.2809 62.527 32.3523 62.9376 32.3523C64.8761 32.3523 66.4531 30.7752 66.4531 28.8368V19.4621C66.4531 17.5236 64.876 15.9466 62.9376 15.9466C62.527 15.9466 62.1328 16.0181 61.7661 16.148V15.2435C61.7661 13.0466 59.9788 11.2592 57.7819 11.2592C55.5849 11.2592 53.7976 13.0466 53.7976 15.2435V22.9776H53.0941V9.6289C53.0941 8.98168 52.5694 8.45703 51.9223 8.45703C51.2752 8.45703 50.7504 8.98168 50.7504 9.6289V22.9776H40.7507C40.1036 22.9776 39.5788 23.5022 39.5788 24.1495C39.5788 24.7967 40.1036 25.3213 40.7507 25.3213H50.7504V52.7476H44.6538V48.7112C46.3806 48.4325 47.7036 46.9322 47.7036 45.1281C47.7036 43.1263 46.0752 41.498 44.0735 41.498H28.8343C26.8326 41.498 25.2041 43.1264 25.2041 45.1281C25.2041 46.9313 26.5258 48.4308 28.2509 48.7107V52.7476H22.1574V25.3213H32.2353C32.8824 25.3213 33.4071 24.7967 33.4071 24.1495C33.4071 23.5022 32.8824 22.9776 32.2353 22.9776H22.1574V9.6289C22.1574 8.98168 21.6326 8.45703 20.9855 8.45703C20.3384 8.45703 19.8136 8.98168 19.8136 9.6289V22.9776H19.1086V15.2435C19.1086 13.0466 17.3213 11.2592 15.1244 11.2592C12.9274 11.2592 11.1401 13.0466 11.1401 15.2435V16.148C10.7735 16.0181 10.3793 15.9466 9.96863 15.9466C8.03023 15.9466 6.45312 17.5237 6.45312 19.4621V28.8368C6.45312 30.7753 8.03023 32.3523 9.96863 32.3523C10.3793 32.3523 10.7735 32.2809 11.1401 32.1509V33.0555C11.1401 35.2525 12.9275 37.0397 15.1244 37.0397C17.3213 37.0397 19.1086 35.2524 19.1086 33.0555V25.3213H19.8136V52.7476H7.62512C6.97801 52.7476 6.45324 53.2723 6.45324 53.9195V63.2994C6.45324 63.9466 6.97801 64.4713 7.62512 64.4713H65.2797C65.9268 64.4713 66.4516 63.9466 66.4516 63.2994V53.9195C66.4516 53.2723 65.9268 52.7476 65.2797 52.7476H53.0941V25.3213H53.7976V33.0555C53.7976 35.2525 55.5848 37.0397 57.7819 37.0397ZM61.7661 19.4553C61.7697 18.8123 62.2938 18.2902 62.9376 18.2902C63.5838 18.2902 64.1095 18.8159 64.1095 19.4621V28.8368C64.1095 29.483 63.5838 30.0087 62.9376 30.0087C62.2938 30.0087 61.7699 29.4866 61.7661 28.8436V19.4553ZM56.1412 15.2435C56.1412 14.3388 56.8772 13.6028 57.7819 13.6028C58.6865 13.6028 59.4225 14.3388 59.4225 15.2435V19.4486C59.4225 19.4532 59.4221 19.4576 59.4221 19.4621V28.8368C59.4221 28.8414 59.4225 28.8459 59.4225 28.8503V33.0555C59.4225 33.9601 58.6865 34.6961 57.7819 34.6961C56.8772 34.6961 56.1412 33.9601 56.1412 33.0555V15.2435ZM11.1403 28.8436C11.1365 29.4868 10.6126 30.0087 9.96874 30.0087C9.32257 30.0087 8.79687 29.483 8.79687 28.8368V19.4621C8.79687 18.8159 9.32257 18.2902 9.96874 18.2902C10.6126 18.2902 11.1365 18.8123 11.1403 19.4553V28.8436ZM16.7651 33.0555C16.7651 33.9601 16.0292 34.6961 15.1245 34.6961C14.2198 34.6961 13.4839 33.9601 13.4839 33.0555V28.8503C13.4839 28.8457 13.4842 28.8413 13.4842 28.8368V19.4621C13.4842 19.4575 13.4839 19.4531 13.4839 19.4486V15.2435C13.4839 14.3388 14.2198 13.6028 15.1245 13.6028C16.0292 13.6028 16.7651 14.3388 16.7651 15.2435V33.0555ZM27.5479 45.1281C27.5479 44.4188 28.125 43.8416 28.8344 43.8416H44.0736C44.783 43.8416 45.3601 44.4188 45.3601 45.1281C45.3601 45.8374 44.783 46.4146 44.0736 46.4146H28.8343C28.125 46.4145 27.5479 45.8374 27.5479 45.1281ZM42.3101 48.7582V52.7476H30.5948V48.7582H42.3101ZM64.1079 55.0912V62.1274H8.79699V59.7812H17.3524C17.9995 59.7812 18.5242 59.2565 18.5242 58.6093C18.5242 57.9621 17.9995 57.4374 17.3524 57.4374H8.79699V55.0912H64.1079Z" fill="#EE1338" stroke="#EE1338" stroke-width="0.5"/>
<path d="M37.2815 23.316C37.0637 23.098 36.7613 22.9727 36.4531 22.9727C36.1449 22.9727 35.8426 23.098 35.6246 23.316C35.4066 23.534 35.2812 23.8363 35.2812 24.1445C35.2812 24.4539 35.4065 24.7551 35.6246 24.973C35.8426 25.191 36.1449 25.3164 36.4531 25.3164C36.7613 25.3164 37.0637 25.191 37.2815 24.973C37.4995 24.7551 37.625 24.4539 37.625 24.1445C37.625 23.8363 37.4996 23.534 37.2815 23.316Z" fill="#EE1338" stroke="#EE1338" stroke-width="0.5"/>
<path d="M22.4007 57.7848C22.1827 57.5668 21.8815 57.4414 21.5733 57.4414C21.2638 57.4414 20.9628 57.5668 20.7448 57.7848C20.5257 58.0027 20.4004 58.3051 20.4004 58.6133C20.4004 58.9215 20.5257 59.2227 20.7448 59.4418C20.9616 59.6598 21.2639 59.7852 21.5733 59.7852C21.8815 59.7852 22.1827 59.6598 22.4007 59.4418C22.6198 59.2238 22.7452 58.9215 22.7452 58.6133C22.7452 58.3051 22.6198 58.0027 22.4007 57.7848Z" fill="#EE1338" stroke="#EE1338" stroke-width="0.5"/>
</svg>
