<svg width="73" height="73" viewBox="0 0 73 73" fill="none" xmlns="http://www.w3.org/2000/svg">
<path d="M60.8671 32.048H59.7935L60.6854 29.4146C61.258 27.8812 60.3173 25.7699 58.586 25.7727H46.255C44.5125 25.7728 43.5778 27.8986 44.1629 29.436L45.0695 32.048H37.4385C36.9249 30.9824 36.5534 29.854 36.3334 28.6917H37.3985C38.2822 28.7058 39.1386 28.3855 39.7962 27.795C40.4537 27.2044 40.8638 26.3871 40.9443 25.5069C41.0737 25.0017 41.0128 24.4666 40.7732 24.0034C40.5336 23.5402 40.132 23.1812 39.6449 22.995C39.3672 20.4524 38.3336 18.0515 36.6774 16.1024C35.0212 14.1533 32.8186 12.7456 30.3542 12.0613V10.968C30.3549 10.5316 30.2697 10.0993 30.1032 9.69587C29.9367 9.29245 29.6923 8.92581 29.384 8.61693C29.0756 8.30806 28.7094 8.06302 28.3063 7.89583C27.9032 7.72864 27.471 7.64258 27.0346 7.64258C26.5982 7.64258 26.166 7.72864 25.7629 7.89583C25.3597 8.06302 24.9935 8.30806 24.6852 8.61693C24.3769 8.92581 24.1325 9.29245 23.966 9.69587C23.7995 10.0993 23.7142 10.5316 23.715 10.968V12.049C21.2428 12.7243 19.0325 14.131 17.3738 16.0846C15.7152 18.0382 14.6857 20.4475 14.4204 22.9964C14.0608 23.1326 13.745 23.364 13.507 23.6659C13.2549 24.0454 13.105 24.4836 13.0718 24.938C13.0386 25.3923 13.1233 25.8476 13.3176 26.2597C13.528 26.9793 13.9715 27.6087 14.5785 28.0489C15.1854 28.4891 15.9214 28.7152 16.6708 28.6917H17.7348C17.5124 29.8535 17.1406 30.9817 16.6287 32.0481H13.0382C12.5364 32.0524 12.0409 32.1611 11.5834 32.3673C11.1258 32.5734 10.7161 32.8725 10.3803 33.2455C10.0446 33.6184 9.79004 34.0572 9.63297 34.5339C9.47589 35.0105 9.41969 35.5146 9.46792 36.0142C9.46875 36.6172 9.62209 37.2102 9.91367 37.7381C10.2052 38.266 10.6256 38.7115 11.1356 39.0333V54.6903C11.1384 55.3985 11.2841 56.0988 11.564 56.7494C11.8438 57.3999 12.252 57.9873 12.7642 58.4764C13.2764 58.9654 13.882 59.3461 14.5448 59.5956C15.2076 59.8451 15.9139 59.9583 16.6214 59.9284L16.9792 62.4972C17.1215 63.3652 17.6002 64.1421 18.3115 64.6594C19.0228 65.1768 19.9093 65.393 20.7789 65.261C21.5519 65.2583 22.2982 64.9776 22.8813 64.4702C23.4645 63.9627 23.8456 63.2624 23.9551 62.4972L24.313 59.9285H46.2425C46.5235 59.9246 46.7916 59.8103 46.9889 59.6102C47.1862 59.4101 47.2968 59.1404 47.2968 58.8594C47.2968 58.5784 47.1862 58.3087 46.9889 58.1087C46.7916 57.9086 46.5234 57.7943 46.2424 57.7904L16.3842 57.7904C15.5609 57.7909 14.771 57.4648 14.1879 56.8836C13.6047 56.3024 13.2759 55.5136 13.2737 54.6903V45.448C15.0504 46.6445 16.4947 47.862 19.9551 47.8914C22.2364 47.9238 24.457 47.1564 26.2315 45.7225C27.6659 44.5695 29.451 43.941 31.2913 43.9409C33.1317 43.9408 34.9168 44.5693 36.3513 45.7222C38.145 47.1214 40.3548 47.8811 42.6297 47.8806C44.9046 47.8802 47.1141 47.1196 48.9072 45.7197C50.3224 44.5364 52.1167 43.903 53.9611 43.9358C57.3361 43.9296 58.3051 45.4539 60.6317 46.7622V54.6903C60.6294 55.5136 60.3006 56.3024 59.7175 56.8836C59.1343 57.4648 58.3445 57.7909 57.5212 57.7904H50.5187C50.3676 57.7967 50.2194 57.834 50.0833 57.8998C49.9471 57.9656 49.8259 58.0587 49.7272 58.1732C49.6284 58.2877 49.5542 58.4212 49.509 58.5656C49.4639 58.7099 49.4488 58.862 49.4647 59.0123L49.9502 62.4972C50.4531 66.216 56.4187 66.2263 56.926 62.4971L57.2839 59.9285C57.9914 59.9584 58.6977 59.8451 59.3605 59.5956C60.0233 59.3461 60.6289 58.9654 61.141 58.4763C61.6532 57.9872 62.0615 57.3998 62.3413 56.7493C62.6211 56.0988 62.7668 55.3984 62.7697 54.6903V39.0333C65.7419 37.191 64.5672 32.0004 60.8671 32.048ZM22.1537 59.9337L21.838 62.2018C21.6901 63.0869 20.9034 63.1754 20.1556 63.123C19.8979 63.122 19.6491 63.0284 19.4547 62.8593C19.2603 62.6902 19.1331 62.4568 19.0964 62.2018L18.7806 59.9337H22.1537ZM54.8089 62.2018C54.661 63.0869 53.8743 63.1754 53.1265 63.123C52.8688 63.122 52.6201 63.0284 52.4256 62.8593C52.2312 62.6902 52.104 62.4568 52.0673 62.2018L51.7516 59.9337H55.1246L54.8089 62.2018ZM46.2962 27.9107L58.5275 27.8972C58.6202 28.0122 58.6812 28.1494 58.7045 28.2953C58.7278 28.4412 58.7124 28.5906 58.6601 28.7287L57.5373 32.0438H47.3313L46.183 28.7344C46.1325 28.5984 46.1165 28.4521 46.1362 28.3084C46.156 28.1647 46.2109 28.0281 46.2962 27.9107ZM25.8531 10.968C25.8567 10.657 25.9827 10.3599 26.2039 10.1412C26.4251 9.92256 26.7236 9.79992 27.0346 9.79992C27.3457 9.79992 27.6442 9.92256 27.8653 10.1412C28.0865 10.3599 28.2126 10.657 28.2161 10.968V11.6588C27.4304 11.5812 26.639 11.5804 25.8531 11.6566V10.968ZM19.5772 16.8257C20.5543 15.8435 21.7165 15.0647 22.9965 14.5346C24.2765 14.0044 25.6489 13.7334 27.0344 13.7371C29.5763 13.7535 32.028 14.681 33.9444 16.351C35.8608 18.021 37.1147 20.3228 37.4786 22.8386H16.5889C16.8993 20.561 17.9492 18.4484 19.5772 16.8257ZM16.6708 26.5535C16.3968 26.5725 16.1239 26.5025 15.8929 26.3539C15.6619 26.2053 15.4851 25.9861 15.3888 25.7288L15.2065 25.0171C15.2699 25.0304 38.6617 25.0925 38.8627 25.0171L38.6804 25.7283C38.5843 25.9857 38.4075 26.2051 38.1765 26.3538C37.9454 26.5025 37.6725 26.5725 37.3985 26.5535H16.6708ZM35.1021 32.048H18.9637C19.3979 30.9663 19.7144 29.841 19.9077 28.6916H34.1607C34.3523 29.8411 34.668 30.9665 35.1021 32.048ZM62.2994 36.0141C62.3005 36.3953 62.1502 36.7613 61.8817 37.0319C61.6132 37.3024 61.2483 37.4554 60.8671 37.4573H20.7245C20.4422 37.4591 20.1719 37.5725 19.9729 37.7727C19.7738 37.973 19.6621 38.244 19.6621 38.5263C19.6621 38.8087 19.7738 39.0796 19.9729 39.2799C20.1719 39.4802 20.4422 39.5936 20.7245 39.5954H60.6316V44.2326C58.8728 43.0439 57.4163 41.8242 53.9611 41.7976C51.6797 41.7652 49.4589 42.5326 47.6842 43.9665C46.252 45.1191 44.4689 45.7477 42.6306 45.7482C40.7922 45.7488 39.0088 45.1212 37.5759 43.9694C35.7808 42.5686 33.5692 41.8078 31.2922 41.8077C29.0152 41.8077 26.8035 42.5685 25.0085 43.9693C23.5936 45.1528 21.7994 45.7862 19.9551 45.7533C16.5821 45.7605 15.61 44.2253 13.2736 42.9231V39.5955H16.4483C16.5893 39.5964 16.729 39.5694 16.8595 39.516C16.9899 39.4627 17.1086 39.3841 17.2085 39.2847C17.3085 39.1854 17.3879 39.0672 17.442 38.9371C17.4961 38.807 17.524 38.6674 17.524 38.5264C17.524 38.3855 17.4961 38.2459 17.442 38.1158C17.3879 37.9857 17.3085 37.8675 17.2085 37.7682C17.1086 37.6688 16.9899 37.5902 16.8595 37.5369C16.729 37.4835 16.5893 37.4565 16.4483 37.4574H13.0382C11.1129 37.4592 11.0935 34.186 13.0383 34.1861H60.8671C61.0881 34.194 61.3048 34.25 61.5019 34.3504C61.699 34.4507 61.8718 34.593 62.0083 34.7671C62.1447 34.9412 62.2414 35.143 62.2917 35.3584C62.342 35.5738 62.3447 35.7975 62.2994 36.0141Z" fill="#EE1338" stroke="#EE1338" stroke-width="0.8"/>
</svg>
