<svg width="73" height="73" viewBox="0 0 73 73" fill="none" xmlns="http://www.w3.org/2000/svg">
<g clip-path="url(#clip0_37238_1637)">
<path d="M25.6315 45.5215C25.9261 46.2288 26.7593 46.5753 27.468 46.2822C28.1766 45.9892 28.5217 45.1539 28.2288 44.4457C27.5357 42.77 24.9335 43.8475 25.6315 45.5215Z" fill="#EE1338"/>
<path d="M72.0415 50.3399C71.4925 49.7908 70.6023 49.7908 70.0526 50.3399C68.8669 51.5257 66.9376 51.5258 65.7516 50.3399C64.646 49.2343 63.1761 48.6254 61.6123 48.6254C60.0486 48.6254 58.5787 49.2343 57.473 50.3399C56.8986 50.9144 56.1348 51.2306 55.3224 51.2306C55.0244 51.2306 54.7334 51.1872 54.4553 51.1049C62.7178 45.7422 68.3343 35.0312 68.5872 34.5431C68.8217 34.0903 68.7926 33.5461 68.5114 33.1207C68.2303 32.6954 67.7427 32.4547 67.2321 32.494L63.712 32.7607L63.601 27.806C63.601 27.8059 63.6009 27.8056 63.6009 27.8055C63.6009 27.8053 63.432 20.2633 63.432 20.2633C63.4237 19.8905 63.2676 19.5363 62.998 19.2785C62.7284 19.0208 62.3662 18.881 61.9947 18.889L51.6374 19.121C51.1037 19.133 50.6227 19.446 50.3959 19.9292C50.1691 20.4124 50.2352 20.9823 50.5669 21.4006L52.7204 24.1173L50.6573 27.305C50.3743 27.7422 50.3561 28.3 50.6101 28.7548C50.859 29.2003 51.329 29.4754 51.8376 29.4754C51.8481 29.4754 51.8587 29.4752 51.8692 29.4751L60.8206 29.2746L60.9036 32.9737L45.8364 34.1152L40.3788 25.8182C39.9867 25.2223 39.4948 24.7045 38.9329 24.2828C37.9963 23.5798 36.8657 23.1433 35.6802 23.055C35.6455 23.0525 35.6106 23.0512 35.5759 23.0512H10.0894C9.71184 23.0512 9.35029 23.2031 9.08578 23.4725C8.8214 23.742 8.67642 24.1063 8.68345 24.4839L8.74842 27.9547C8.757 28.4123 8.98776 28.8372 9.36703 29.0935C11.7495 30.7032 14.1903 31.4867 15.8185 31.8605C16.2132 31.9512 16.4953 32.297 16.5043 32.7017L16.5856 36.3311L9.45857 36.8711C9.03178 36.9033 8.64309 37.1283 8.4022 37.4822L3.49284 44.6959C3.32986 44.9357 3.24295 45.229 3.24956 45.519L3.36782 50.7513C3.18571 50.635 3.01275 50.499 2.85384 50.3401C2.3047 49.7909 1.41426 49.7909 0.86498 50.3401C0.31584 50.8892 0.31584 51.7796 0.86498 52.3289C1.93359 53.3975 3.31593 53.9657 4.71839 54.0336C6.33375 54.1731 8.01098 53.4614 9.14357 52.3289C10.3292 51.1432 12.2587 51.143 13.4446 52.3289C14.5358 53.4202 16.0404 54.0429 17.5837 54.0429C19.1277 54.0429 20.6317 53.4203 21.723 52.3289C22.9088 51.143 24.8383 51.143 26.0241 52.3289C27.1156 53.4203 28.6199 54.0429 30.1636 54.0429C31.7074 54.0429 33.211 53.4206 34.3025 52.3289C34.877 51.7545 35.6407 51.4382 36.4531 51.4382C37.2653 51.4382 38.0292 51.7546 38.6035 52.3289C39.7093 53.4345 41.1792 54.0434 42.743 54.0434C44.3067 54.0434 45.7765 53.4345 46.8823 52.3289C47.5871 51.6241 48.6226 51.3084 49.6014 51.4933C50.1967 51.6062 50.7549 51.9006 51.1833 52.3288C52.2889 53.4344 53.7588 54.0433 55.3226 54.0433C56.8863 54.0433 58.3561 53.4344 59.462 52.3288C60.0363 51.7545 60.8002 51.4381 61.6124 51.4381C62.4247 51.4381 63.1886 51.7545 63.7629 52.3288C66.0454 54.6111 69.7593 54.611 72.0415 52.3288C72.5906 51.7794 72.5906 50.8891 72.0415 50.3399ZM54.4615 26.6037L55.63 24.7985C55.9578 24.2922 55.926 23.6334 55.5514 23.1608L54.5278 21.8695L60.652 21.7323L60.7579 26.4626L54.4615 26.6037ZM35.5191 25.8636C36.5334 25.9539 37.469 26.512 38.0294 27.3638L39.3989 29.446L31.6042 29.6207C30.4514 29.6485 29.3767 29.0885 28.7359 28.1288L27.2263 25.8637H35.5191V25.8636ZM19.3164 32.6386C19.2784 30.9453 18.0989 29.4982 16.4481 29.1192C15.1917 28.8308 13.3734 28.2595 11.5464 27.1503L11.5224 25.8636H23.8465L26.3963 29.6896C27.5487 31.4155 29.4581 32.434 31.526 32.434C31.573 32.434 31.6202 32.4334 31.6673 32.4325L41.2227 32.2184L42.6302 34.3582L19.3944 36.1185L19.3164 32.6386ZM10.3465 39.6243L64.7941 35.4993C64.3015 36.3055 63.6764 37.2825 62.9376 38.3495C54.1578 42.2021 44.6096 43.1777 33.0089 43.4447C32.2325 43.4625 31.6174 44.1064 31.6353 44.883C31.6529 45.6484 32.2789 46.2569 33.0405 46.2569C33.0515 46.2569 33.0625 46.2567 33.0734 46.2566C41.8826 46.054 51.1004 45.4317 59.6746 42.6043C57.4819 45.1717 54.8333 47.7046 51.8964 49.3731C51.029 48.8874 50.0275 48.6251 49.0331 48.6251C47.4695 48.6251 45.9996 49.234 44.894 50.3395C44.3197 50.9138 43.5559 51.2301 42.7437 51.2301C41.9306 51.2301 41.1664 50.9138 40.5921 50.3395C39.4867 49.2339 38.0167 48.625 36.4529 48.625C35.4412 48.625 34.4365 48.8873 33.5576 49.389C32.8269 49.8062 32.3061 50.5049 31.5645 50.8881C30.7744 51.2977 29.8409 51.3381 29.0227 51.0083C28.6477 50.8549 28.2994 50.6252 28.0126 50.3385C26.9058 49.2333 25.4357 48.6247 23.8729 48.6247C22.8611 48.6247 21.8565 48.887 20.9776 49.3887C20.2399 49.8099 19.716 50.5115 18.9654 50.8969C17.8064 51.4873 16.352 51.2575 15.4334 50.3391C14.3279 49.2335 12.8579 48.6247 11.2944 48.6247C9.73181 48.6247 8.26157 49.2333 7.15401 50.3392C6.87825 50.615 6.54595 50.8383 6.18651 50.9893L6.09314 46.8609L20.959 46.5277C21.7354 46.5103 22.3508 45.8668 22.3334 45.0902C22.3159 44.3137 21.6728 43.6986 20.8959 43.7159L7.35511 44.0194L10.3465 39.6243Z" fill="#EE1338"/>
</g>
<defs>
<clipPath id="clip0_37238_1637">
<rect width="72" height="72" fill="white" transform="translate(0.453125 0.464844)"/>
</clipPath>
</defs>
</svg>
