<svg width="73" height="73" viewBox="0 0 73 73" fill="none" xmlns="http://www.w3.org/2000/svg">
<g clip-path="url(#clip0_37238_1627)">
<path d="M30.082 41.7051H31.7074C32.4839 41.7051 33.1136 41.0755 33.1136 40.2988C33.1136 39.5222 32.4839 38.8926 31.7074 38.8926H30.082C29.3055 38.8926 28.6758 39.5222 28.6758 40.2988C28.6758 41.0755 29.3054 41.7051 30.082 41.7051Z" fill="#EE1338"/>
<path d="M72.5971 50.4858L70.1157 47.6995V33.8765L71.9292 31.6434C72.4187 31.0405 72.3269 30.1548 71.7241 29.6652C71.1213 29.1758 70.2358 29.2674 69.746 29.8702L67.6178 32.4908C67.6172 32.4915 67.6168 32.4923 67.6163 32.493C67.6154 32.494 67.6146 32.4948 67.6137 32.4958L62.159 39.2768C61.9581 39.5267 61.8485 39.8376 61.8485 40.1582V41.7028H58.5659L58.2708 39.667C58.2677 39.6451 58.2639 39.6233 58.2596 39.6016C57.858 37.5256 56.4949 35.8188 54.5203 34.9185C53.6318 34.5137 52.6481 34.3083 51.5971 34.3083H40.7414L38.0624 27.5755C37.1629 25.3103 34.9307 23.7982 32.4948 23.7982L19.5844 23.7983V18.33C19.5844 17.5533 18.9547 16.9237 18.1781 16.9237H16.8783C16.6622 14.3365 14.4888 12.2969 11.8468 12.2969H11.7077C10.9312 12.2969 10.3015 12.9265 10.3015 13.7031C10.3015 14.4798 10.9312 15.1094 11.7077 15.1094H11.8468C12.9359 15.1094 13.8448 15.8917 14.0435 16.9237H12.488C11.7115 16.9237 11.0818 17.5533 11.0818 18.33V33.8447H10.6893C8.82109 33.8447 7.12023 35.0182 6.45662 36.7653L5.28592 39.8508C5.12406 40.2776 4.70317 40.5694 4.24586 40.5694C2.43025 40.5693 0.953125 42.0458 0.953125 43.8607V49.0814C0.953125 50.8963 2.43025 52.3729 4.246 52.3729H7.36056C8.38502 57.0857 12.5866 60.6267 17.6019 60.6267C22.4689 60.6267 26.5712 57.2921 27.7457 52.7879H34.476C35.6505 57.2922 39.7528 60.6267 44.6199 60.6267C44.986 60.6267 45.3607 60.6068 45.7336 60.5672C46.5059 60.4855 47.0659 59.7933 46.9842 59.0209C46.9025 58.2485 46.2098 57.688 45.4379 57.7704C45.1628 57.7995 44.8876 57.8142 44.62 57.8142C40.5354 57.8142 37.187 54.6043 36.9632 50.5746C36.7187 46.1308 40.551 42.2711 44.9932 42.485C47.9118 42.6288 50.5362 44.4917 51.6871 47.1661C52.153 48.2673 52.349 49.4681 52.2699 50.6604C52.2187 51.4353 52.8054 52.1051 53.5802 52.1565C54.3567 52.2084 55.0248 51.6211 55.0763 50.8463C55.1029 50.4448 55.1082 50.0437 55.0891 49.6418H61.8488V50.8529C61.8488 54.136 64.5198 56.8072 67.8032 56.8072H71.5469C72.3234 56.8072 72.9531 56.1776 72.9531 55.401V51.4211C72.9531 51.0762 72.8264 50.7433 72.5971 50.4858ZM34.6095 47.0331C34.3143 47.9838 34.1551 48.98 34.1391 49.9755H28.0829C28.0651 48.8656 27.8697 47.7535 27.5058 46.7049H34.7162C34.6784 46.8136 34.6442 46.9234 34.6095 47.0331ZM29.0908 26.6108H32.4939C33.7282 26.6108 34.8654 27.3466 35.3792 28.4576C35.403 28.5094 37.7143 34.3083 37.7143 34.3083L29.0908 34.3085V26.6108ZM26.2783 26.6108V35.7147C26.2783 36.0877 26.4265 36.4454 26.6902 36.7091C26.954 36.9728 27.3116 37.121 27.6845 37.121L38.8334 37.1208L40.2276 40.6245C38.6402 41.3572 37.2572 42.4789 36.2071 43.8922H26.0153C24.4638 41.8093 22.1348 40.3441 19.5841 39.8522L19.5844 26.6108H26.2783ZM13.8943 19.7362H16.7719L16.7716 33.8447H13.8943V19.7362ZM3.76562 49.0816V43.8609C3.76562 43.5968 3.98106 43.3819 4.246 43.3819C5.85995 43.3819 7.34355 42.3569 7.91575 40.8482L9.08617 37.7635C9.33747 37.1017 9.98167 36.6572 10.6893 36.6572H12.488H16.7716V39.696C11.6193 40.1022 7.42019 44.4052 7.13542 49.5604H4.246C3.98106 49.5605 3.76562 49.3457 3.76562 49.0816ZM17.6019 57.8144C13.535 57.8144 10.1989 54.632 9.94919 50.627C9.66878 46.2755 13.2457 42.4758 17.6026 42.4758C21.6326 42.4758 25.0699 45.7479 25.2618 49.7748C25.4676 54.0861 21.9202 57.8144 17.6019 57.8144ZM54.5654 46.8293C53.1535 42.6076 49.0705 39.6628 44.6192 39.6628C44.0538 39.6628 43.4843 39.7086 42.9263 39.7993L41.8607 37.121H51.5972C52.2433 37.121 52.8343 37.2411 53.3539 37.4779C54.4971 37.999 55.2556 38.9315 55.4926 40.1062L56.4675 46.8295H54.5654V46.8293ZM59.3093 46.8293L58.9737 44.5153H61.8485V46.8293H59.3093ZM70.1406 53.9946H67.8029C66.0705 53.9946 64.661 52.5852 64.661 50.8527V48.2354V43.1089V40.6535L67.3032 37.3689V48.2349C67.3032 48.5797 67.4299 48.9125 67.6593 49.17L70.1406 51.9564V53.9946Z" fill="#EE1338"/>
<path d="M17.6024 45.3633C14.9655 45.3633 12.8203 47.5085 12.8203 50.1454C12.8203 52.7822 14.9655 54.9275 17.6024 54.9275C20.2393 54.9275 22.3846 52.7822 22.3846 50.1454C22.3846 47.5085 20.2393 45.3633 17.6024 45.3633ZM17.6024 52.1151C16.5164 52.1151 15.6328 51.2316 15.6328 50.1455C15.6328 49.0595 16.5164 48.1759 17.6024 48.1759C18.6886 48.1759 19.5721 49.0595 19.5721 50.1455C19.5721 51.2316 18.6885 52.1151 17.6024 52.1151Z" fill="#EE1338"/>
<path d="M44.6201 45.3633C41.9833 45.3633 39.8379 47.5085 39.8379 50.1454C39.8379 52.7822 41.9833 54.9275 44.6201 54.9275C47.257 54.9275 49.4022 52.7822 49.4022 50.1454C49.4022 47.5085 47.257 45.3633 44.6201 45.3633ZM44.6201 52.1151C43.5339 52.1151 42.6504 51.2316 42.6504 50.1455C42.6504 49.0595 43.5339 48.1759 44.6201 48.1759C45.7062 48.1759 46.5897 49.0595 46.5897 50.1455C46.5897 51.2316 45.706 52.1151 44.6201 52.1151Z" fill="#EE1338"/>
<path d="M52.6225 55.7266C51.9541 54.1223 49.4594 55.0321 49.9841 56.6868C50.2216 57.4359 51.0549 57.8521 51.7964 57.5864C52.5395 57.3202 52.9273 56.4585 52.6225 55.7266Z" fill="#EE1338"/>
</g>
<defs>
<clipPath id="clip0_37238_1627">
<rect width="72" height="72" fill="white" transform="translate(0.953125 0.464844)"/>
</clipPath>
</defs>
</svg>
