<svg width="73" height="73" viewBox="0 0 73 73" fill="none" xmlns="http://www.w3.org/2000/svg">
<g clip-path="url(#clip0_37238_1644)">
<path d="M71.5449 20.4958H67.9601C67.4534 20.4958 66.9859 20.7684 66.7363 21.2094L62.4632 28.759H56.8554C56.0787 28.759 55.4491 29.3885 55.4491 30.1652C55.4491 30.9419 56.0787 31.5715 56.8554 31.5715H66.7697C67.5464 31.5715 68.176 30.9419 68.176 30.1652C68.176 29.3885 67.5464 28.759 66.7697 28.759H65.6949L68.78 23.3083H70.1387V31.7827L66.4767 35.1505H56.422C51.6703 35.1505 48.0823 36.9971 46.1243 38.318C45.7987 38.1207 45.4254 37.9907 45.0492 37.9356L27.5729 35.3724C24.9076 34.9811 22.2872 36.7003 21.5876 39.299H20.1521C18.1388 39.299 16.1323 38.8056 14.3499 37.8723C13.1424 37.2399 12.0538 36.4219 11.1144 35.4408C10.509 34.8085 9.69987 33.9778 9.39177 33.1344C9.08014 32.2815 9.60917 31.3231 10.4879 31.1163L23.1628 28.136L29.7013 31.4747C30.816 32.044 32.0744 32.3467 33.326 32.3467H37.8949C39.9143 32.3467 41.5572 30.7038 41.5572 28.6844V23.4553C42.7387 24.0499 43.9037 24.8753 44.8629 26.0256C45.3603 26.6222 46.2472 26.7025 46.8434 26.2051C47.44 25.7077 47.5203 24.8209 47.0229 24.2245C44.4987 21.1973 40.9678 19.966 38.4469 19.4662C38.3549 19.4478 38.2577 19.4375 38.1645 19.4375H31.93H31.9297C30.255 19.4375 28.6437 20.0506 27.3925 21.1638L22.9809 25.0891L22.6744 25.3617L9.84373 28.3786C9.65656 28.4226 9.47516 28.4793 9.29867 28.5455V21.4926C9.29867 20.7159 8.66909 20.0863 7.89242 20.0863C7.11575 20.0863 6.48617 20.7159 6.48617 21.4926V28.4821C6.05923 28.3343 5.6015 28.253 5.12492 28.253C2.82345 28.253 0.951172 30.1253 0.951172 32.4266V33.3327C0.951172 35.634 2.82345 37.5064 5.12492 37.5064C5.6015 37.5064 6.05923 37.425 6.48617 37.2773V45.6629C6.48617 46.4396 7.11575 47.0692 7.89242 47.0692C8.66909 47.0692 9.29867 46.4396 9.29867 45.6629V37.6023C10.3998 38.7073 11.6574 39.6372 13.0453 40.364C14.2173 40.9777 15.4687 41.4345 16.7576 41.7274V47.8093C14.589 48.4235 12.9949 50.4196 12.9949 52.7822C12.9949 55.6324 15.3136 57.951 18.1638 57.951C21.014 57.951 23.3326 55.6323 23.3326 52.7822C23.3326 51.257 22.6682 49.8844 21.6139 48.9374L27.7817 46.0073L45.0493 43.4747C46.4169 43.2741 47.3813 42.1944 47.4369 40.829C49.0117 39.7121 52.1588 37.9632 56.422 37.9632H59.3436V41.0324C57.5356 41.6253 56.2257 43.328 56.2257 45.3318C56.2257 47.8263 58.2552 49.8558 60.7498 49.8558C63.2444 49.8558 65.2739 47.8263 65.2739 45.3318C65.2739 43.328 63.9641 41.6255 62.1561 41.0324V37.9632H67.025C67.3775 37.9632 67.7173 37.8307 67.9768 37.5919L72.4968 33.435C72.7864 33.1687 72.9512 32.7934 72.9512 32.4V21.9022C72.9512 21.1256 72.3216 20.4958 71.5449 20.4958ZM25.8147 26.3323L29.2617 23.2653C29.5854 22.9773 29.95 22.7464 30.3407 22.5778V28.6434L25.8147 26.3323ZM38.7447 22.4192V28.6844C38.7447 29.1531 38.3635 29.5342 37.8949 29.5342H33.326C33.2683 29.5342 33.2108 29.531 33.1533 29.529V22.2497H38.0203C38.2663 22.3019 38.508 22.3584 38.7447 22.4192ZM5.12492 34.6939C4.37441 34.6939 3.76367 34.0833 3.76367 33.3327V32.4266C3.76367 31.6761 4.37427 31.0654 5.12492 31.0654C5.87558 31.0654 6.48617 31.676 6.48617 32.4266V33.3327C6.48603 34.0833 5.87544 34.6939 5.12492 34.6939ZM27.1776 43.2532C27.173 43.2539 27.1682 43.2545 27.1635 43.2552C26.4226 43.3634 25.6725 43.1449 25.1059 42.6552C24.5392 42.1656 24.2141 41.4553 24.2136 40.7063C24.2136 39.1562 25.6352 37.9308 27.1654 38.1555L44.5504 40.7051L27.1776 43.2532ZM20.1521 42.1115H21.5882C21.8659 43.1394 22.4444 44.0727 23.2671 44.7835C23.3314 44.839 23.3969 44.8927 23.4634 44.9449L19.5699 46.7945V42.0989C19.7638 42.1064 19.9579 42.1115 20.1521 42.1115ZM18.1637 55.1385C16.8643 55.1385 15.8072 54.0815 15.8072 52.7822C15.8072 51.4828 16.8643 50.4258 18.1637 50.4258C19.4629 50.4258 20.52 51.4828 20.52 52.7822C20.5201 54.0815 19.463 55.1385 18.1637 55.1385ZM60.7498 47.0432C59.8061 47.0432 59.0382 46.2754 59.0382 45.3316C59.0382 44.3879 59.806 43.6199 60.7498 43.6199C61.6937 43.6199 62.4614 44.3878 62.4614 45.3316C62.4614 46.2755 61.6937 47.0432 60.7498 47.0432Z" fill="#EE1338"/>
<path d="M3.26953 23.8972C4.0462 23.8972 4.67578 23.2677 4.67578 22.491V20.4374C4.67578 18.9782 5.86294 17.791 7.3222 17.791H8.03292C8.80959 17.791 9.43917 17.1614 9.43917 16.3848C9.43917 15.6081 8.80959 14.9785 8.03292 14.9785H7.3222C4.31212 14.9785 1.86328 17.4274 1.86328 20.4374V22.491C1.86328 23.2677 2.49286 23.8972 3.26953 23.8972Z" fill="#EE1338"/>
<path d="M8.03292 49.2623H7.3222C5.86294 49.2623 4.67578 48.0752 4.67578 46.6159V44.5625C4.67578 43.7858 4.0462 43.1562 3.26953 43.1562C2.49286 43.1562 1.86328 43.7858 1.86328 44.5625V46.6159C1.86328 49.626 4.31212 52.0748 7.3222 52.0748H8.03292C8.80959 52.0748 9.43917 51.4453 9.43917 50.6686C9.43917 49.8919 8.80959 49.2623 8.03292 49.2623Z" fill="#EE1338"/>
<path d="M49.401 29.377C49.6958 30.0845 50.5287 30.431 51.2376 30.1378C51.946 29.8447 52.2913 29.0093 51.9983 28.3012C51.3051 26.6254 48.7031 27.703 49.401 29.377Z" fill="#EE1338"/>
</g>
<defs>
<clipPath id="clip0_37238_1644">
<rect width="72" height="72" fill="white" transform="translate(0.953125 0.464844)"/>
</clipPath>
</defs>
</svg>
