<svg width="73" height="73" viewBox="0 0 73 73" fill="none" xmlns="http://www.w3.org/2000/svg">
<g clip-path="url(#clip0_37238_1618)">
<path d="M72.4531 43.7041C72.4531 41.8754 71.6922 40.6213 71.158 39.9661V35.1126V33.3878V33.3874C71.158 33.0311 71.1017 32.6789 70.9906 32.341C70.9323 32.1633 70.839 31.9989 70.7163 31.8577L63.2738 23.2905C62.8039 22.7283 62.3446 22.1301 61.6843 21.7788C61.3214 21.5836 60.8937 21.4566 60.3775 21.4486C59.985 20.4645 59.2303 18.9288 57.9073 17.4007C55.9253 15.1116 52.2431 12.3828 45.9553 12.3828H18.1577C17.3811 12.3828 16.7514 13.0124 16.7514 13.7891C16.7514 14.5657 17.3811 15.1953 18.1577 15.1953H44.5489V22.8533V24.8049C44.5489 24.8068 44.5488 24.8086 44.5488 24.8103V31.1181C44.5488 31.1191 44.5489 31.12 44.5489 31.1208V42.4746H3.26562V15.1955H5.78295C6.55948 15.1955 7.1892 14.5659 7.1892 13.7892C7.1892 13.0125 6.55948 12.383 5.78295 12.383H1.85938C1.08284 12.383 0.453125 13.0125 0.453125 13.7892V43.881V43.8813V49.9689C0.453125 52.1811 2.25228 53.981 4.46389 53.981H8.37059C8.36975 54.0233 8.36736 54.0652 8.36736 54.1077C8.36736 57.6586 11.2564 60.5476 14.8073 60.5476C18.3582 60.5476 21.2472 57.6587 21.2472 54.1077C21.2472 54.0652 21.2448 54.0233 21.244 53.981L47.9048 53.9807C47.9039 54.0231 47.9016 54.0652 47.9016 54.1078C47.9016 57.6587 50.7904 60.5477 54.3413 60.5477C57.8922 60.5477 60.7812 57.6589 60.7812 54.1078C60.7812 54.0652 60.7789 54.0231 60.778 53.9807H66.5469C69.0894 53.9807 71.158 51.9122 71.158 49.3696V47.4434C71.6922 46.7881 72.4531 45.5336 72.4531 43.7041ZM60.278 24.2596C60.4023 24.2675 60.4592 24.333 60.5489 24.4269C60.7602 24.648 68.3455 33.4181 68.3455 33.4181V33.7063H59.7298L56.8707 30.2256C56.6037 29.9003 56.2049 29.7119 55.784 29.7119H53.4392V24.2596C53.4392 24.2596 59.9795 24.2405 60.278 24.2596ZM50.6267 29.712H47.3614V24.8108C47.3614 24.5137 47.6148 24.2596 47.9131 24.2596H50.6267V29.712ZM47.3614 32.5245H55.1194L57.9785 36.0053C58.2455 36.3305 58.6443 36.519 59.0652 36.519H68.3455V39.1111H66.2136C64.3687 39.1111 62.8085 40.6318 62.7596 42.4749H47.3614V32.5245ZM66.2136 45.4855C65.8591 45.4855 65.5709 45.1972 65.5709 44.8429V42.5664C65.5709 42.212 65.8592 41.9238 66.2136 41.9238H69.1141C69.3459 42.2663 69.6406 42.8668 69.6406 43.7041C69.6406 44.5397 69.3478 45.1387 69.1123 45.4855H66.2136ZM57.2967 21.4471H47.3615V15.2499C53.3939 15.7286 56.1516 19.2505 57.2967 21.4471ZM3.26562 49.9689V45.2875H44.5489V51.1685H20.5407C19.4514 49.0335 17.2023 47.6679 14.8073 47.6679C14.4708 47.6679 14.1328 47.6947 13.8005 47.747C11.7636 48.065 10.0096 49.335 9.07428 51.1685H4.46389C3.80309 51.1685 3.26562 50.6303 3.26562 49.9689ZM14.8071 57.7351C12.8069 57.7351 11.1797 56.1078 11.1797 54.1077C11.1797 52.1329 12.833 50.4808 14.8067 50.4808C16.781 50.4808 18.4346 52.1329 18.4346 54.1077C18.4346 56.1079 16.8074 57.7351 14.8071 57.7351ZM54.3412 57.7351C52.3411 57.7351 50.7139 56.1078 50.7139 54.1077C50.7139 52.1333 52.3682 50.4805 54.3406 50.4805C56.3142 50.4805 57.9686 52.1327 57.9686 54.1077C57.9686 56.1079 56.3414 57.7351 54.3412 57.7351ZM66.5469 51.1682H60.0746C58.988 49.0383 56.7484 47.6753 54.3597 47.6684C51.9582 47.6618 49.7007 49.0265 48.608 51.1682H47.3615V45.2872H62.7868C63.0059 46.9847 64.5028 48.2984 66.2136 48.2984H68.3455V49.3696C68.3455 50.3613 67.5387 51.1682 66.5469 51.1682Z" fill="#EE1338"/>
<path d="M53.4274 35.0195H51.3066C50.5301 35.0195 49.9004 35.6491 49.9004 36.4258C49.9004 37.2025 50.5301 37.832 51.3066 37.832H53.4274C54.2039 37.832 54.8337 37.2025 54.8337 36.4258C54.8337 35.6491 54.2039 35.0195 53.4274 35.0195Z" fill="#EE1338"/>
<path d="M6.07812 19.4141V38.1075C6.07812 38.8842 6.70784 39.5137 7.48438 39.5137H40.3302C41.1067 39.5137 41.7364 38.8842 41.7364 38.1075V19.4141C41.7364 18.6374 41.1067 18.0078 40.3302 18.0078H7.48438C6.70784 18.0078 6.07812 18.6374 6.07812 19.4141ZM8.89062 20.8203H38.9239V36.7012H8.89062V20.8203Z" fill="#EE1338"/>
<path d="M10.6011 14.3259C10.8957 15.033 11.7284 15.381 12.4376 15.0867C13.1452 14.7931 13.4919 13.9588 13.1984 13.2501C12.9055 12.5427 12.0693 12.1957 11.3618 12.4894C10.6552 12.7826 10.3063 13.6186 10.6011 14.3259Z" fill="#EE1338"/>
</g>
<defs>
<clipPath id="clip0_37238_1618">
<rect width="72" height="72" fill="white" transform="translate(0.453125 0.464844)"/>
</clipPath>
</defs>
</svg>
