<svg width="73" height="73" viewBox="0 0 73 73" fill="none" xmlns="http://www.w3.org/2000/svg">
<g clip-path="url(#clip0_37238_1604)">
<path d="M8.10607 13.9726C8.60374 15.1664 10.3724 15.0759 10.749 13.8421C11.1131 12.6495 9.78921 11.6033 8.7116 12.2118C8.09847 12.5579 7.84015 13.3236 8.10607 13.9726Z" fill="#EE1338"/>
<path d="M10.0313 38.5134C9.53451 37.3025 7.72874 37.4183 7.37831 38.6759C7.03588 39.9054 8.45268 40.9219 9.51229 40.2192C10.0631 39.8541 10.2854 39.124 10.0313 38.5134Z" fill="#EE1338"/>
<path d="M45.5559 56.9102H43.0312C42.2547 56.9102 41.625 57.5399 41.625 58.3164C41.625 59.0929 42.2547 59.7227 43.0312 59.7227H45.5559C46.3324 59.7227 46.9621 59.0929 46.9621 58.3164C46.9621 57.5399 46.3326 56.9102 45.5559 56.9102Z" fill="#EE1338"/>
<path d="M55.0403 56.9102H52.5156C51.7391 56.9102 51.1094 57.5399 51.1094 58.3164C51.1094 59.0929 51.7391 59.7227 52.5156 59.7227H55.0403C55.8168 59.7227 56.4465 59.0929 56.4465 58.3164C56.4465 57.5399 55.8169 56.9102 55.0403 56.9102Z" fill="#EE1338"/>
<path d="M64.5267 56.9102H62.002C61.2254 56.9102 60.5957 57.5399 60.5957 58.3164C60.5957 59.0929 61.2254 59.7227 62.002 59.7227H64.5267C65.3033 59.7227 65.933 59.0929 65.933 58.3164C65.933 57.5399 65.3033 56.9102 64.5267 56.9102Z" fill="#EE1338"/>
<path d="M56.9992 41.4492H51.8242C51.0477 41.4492 50.418 42.0789 50.418 42.8555C50.418 43.632 51.0477 44.2617 51.8242 44.2617H56.9992C57.7757 44.2617 58.4055 43.632 58.4055 42.8555C58.4055 42.0789 57.7757 41.4492 56.9992 41.4492Z" fill="#EE1338"/>
<path d="M56.9992 46.2695H51.8242C51.0477 46.2695 50.418 46.8993 50.418 47.6758C50.418 48.4523 51.0477 49.082 51.8242 49.082H56.9992C57.7757 49.082 58.4055 48.4523 58.4055 47.6758C58.4055 46.8993 57.7757 46.2695 56.9992 46.2695Z" fill="#EE1338"/>
<path d="M33.3745 9.37475C33.6691 10.0827 34.5021 10.4283 35.211 10.1355C35.9191 9.84318 36.2654 9.0066 35.9718 8.29897C35.678 7.59107 34.844 7.24471 34.1352 7.53819C33.4289 7.83069 33.0797 8.66783 33.3745 9.37475Z" fill="#EE1338"/>
<path d="M69.9813 52.4859C71.7829 51.1504 72.9531 49.0093 72.9531 46.5995C72.9531 42.561 69.6677 39.2756 65.6293 39.2756H64.1562V27.2013C64.1562 25.0325 62.521 23.2396 60.419 22.9876L41.5583 7.74425C40.9545 7.25614 40.069 7.34994 39.5807 7.95392C39.0925 8.55805 39.1864 9.44342 39.7904 9.93153L55.905 22.9554H53.6445C51.9975 22.9554 50.4595 23.6906 49.4246 24.9721L47 27.9744L39.0739 19.6517C39.4872 18.9258 39.7077 18.0927 39.7077 17.2572C39.7077 14.5792 37.529 12.4005 34.8509 12.4005C32.7379 12.4005 30.8143 13.8298 30.2022 15.851H15.127L15.2781 13.5154C15.3513 12.3867 15.0051 11.2007 14.4183 10.2441H28.6353C29.4118 10.2441 30.0416 9.61442 30.0416 8.83789C30.0416 8.06136 29.4118 7.43164 28.6353 7.43164H9.5196C6.2668 7.43164 3.30257 10.1458 3.52911 13.5231L5.07416 35.496L2.71054 37.7067C1.56894 38.7746 0.928535 40.2833 0.953848 41.8464C0.97916 43.4093 1.6678 44.8965 2.84329 45.9267L12.9487 54.7847C13.419 55.1969 14.1318 55.2455 14.6538 54.8988C15.1827 54.5475 15.4105 53.8853 15.2098 53.283L12.2078 44.2713L13.9562 40.4311C14.6689 38.9574 14.6191 37.2634 13.8344 35.8415L14.9452 18.6635H30.2024C30.7976 20.6269 32.6049 22.0673 34.7497 22.1115L39.2673 38.2379V51.4131C36.3012 52.3016 34.133 55.0546 34.133 58.3058C34.133 62.2733 37.3607 65.5009 41.3281 65.5009H65.7579C69.7254 65.5009 72.953 62.2733 72.953 58.3058C72.9531 55.9155 71.7805 53.795 69.9813 52.4859ZM7.20589 11.1702C7.78836 10.5724 8.56869 10.243 9.4033 10.243C11.0798 10.243 12.4971 11.6789 12.4695 13.3584L11.1642 33.5506C10.0708 33.1546 8.85065 33.152 7.75658 33.5453L6.33711 13.3595C6.32291 12.5373 6.63074 11.7608 7.20589 11.1702ZM11.4203 39.215C11.4147 39.2265 11.4092 39.2381 11.4038 39.2497L9.41919 43.6088C9.2721 43.9321 9.25269 44.299 9.36491 44.636L10.9024 49.251L4.69714 43.8118C4.10933 43.2966 3.77886 42.5825 3.76621 41.801C3.75355 41.0192 4.06096 40.2947 4.63175 39.7608L7.48236 37.0949C7.95064 36.6614 8.38321 36.2267 9.04204 36.1009C9.92572 35.9318 10.8343 36.3305 11.3102 37.0927C11.7191 37.7476 11.7592 38.5212 11.4203 39.215ZM62.7501 42.0881H65.6294C68.1169 42.0881 70.1408 44.112 70.1408 46.5995C70.1408 49.087 68.1169 51.1109 65.6294 51.1109H42.0799V39.4513H51.3894C53.9564 39.4513 56.1853 37.6245 56.6896 35.1075L58.5603 25.7686H59.9109C60.7009 25.7686 61.3436 26.4112 61.3436 27.2013V40.6819C61.3438 41.4584 61.9734 42.0881 62.7501 42.0881ZM51.6126 26.7396C52.1111 26.1224 52.8519 25.7686 53.6451 25.7686H55.692L53.9318 34.5551C53.6899 35.7624 52.6207 36.6386 51.3894 36.6386H43.6171L51.6126 26.7396ZM41.2924 35.0408L37.7279 22.3167L45.2175 30.1811L41.2924 35.0408ZM32.807 17.2627C32.807 17.2609 32.8072 17.2592 32.8072 17.2572C32.8072 16.1303 33.7241 15.2135 34.8509 15.2135C35.9781 15.2135 36.8948 16.1304 36.8948 17.2572C36.8948 18.3693 35.9619 19.3015 34.8509 19.3015C33.7255 19.3017 32.8099 18.3875 32.807 17.2627ZM65.7581 62.6885H41.3284C38.9118 62.6885 36.9458 60.7226 36.9458 58.306C36.9458 55.8893 38.9118 53.9234 41.3284 53.9234H65.6294H65.7582C68.1749 53.9234 70.1408 55.8893 70.1408 58.306C70.1408 60.7226 68.1747 62.6885 65.7581 62.6885Z" fill="#EE1338"/>
</g>
<defs>
<clipPath id="clip0_37238_1604">
<rect width="72" height="72" fill="white" transform="translate(0.953125 0.464844)"/>
</clipPath>
</defs>
</svg>
