<svg width="176" height="85" viewBox="0 0 176 85" fill="none" xmlns="http://www.w3.org/2000/svg">
<rect width="175" height="84" transform="translate(0.203125 0.214844)" fill="#4F4F4F"/>
<path d="M20.0271 45.7348H15.1631L14.2671 48.2148H12.7311L16.7631 37.1268H18.4431L22.4591 48.2148H20.9231L20.0271 45.7348ZM19.6111 44.5508L17.5951 38.9188L15.5791 44.5508H19.6111ZM35.8964 39.4468L33.1604 48.2148H31.6564L29.5444 41.2548L27.4324 48.2148H25.9284L23.1764 39.4468H24.6644L26.6804 46.8068L28.8564 39.4468H30.3444L32.4724 46.8228L34.4564 39.4468H35.8964ZM36.7974 43.7988C36.7974 42.9028 36.9787 42.1188 37.3414 41.4468C37.704 40.7642 38.2 40.2362 38.8294 39.8628C39.4694 39.4895 40.1787 39.3028 40.9574 39.3028C41.7254 39.3028 42.392 39.4682 42.9574 39.7988C43.5227 40.1295 43.944 40.5455 44.2214 41.0468V39.4468H45.6934V48.2148H44.2214V46.5828C43.9334 47.0948 43.5014 47.5215 42.9254 47.8628C42.36 48.1935 41.6987 48.3588 40.9414 48.3588C40.1627 48.3588 39.4587 48.1668 38.8294 47.7828C38.2 47.3988 37.704 46.8602 37.3414 46.1668C36.9787 45.4735 36.7974 44.6842 36.7974 43.7988ZM44.2214 43.8148C44.2214 43.1535 44.088 42.5775 43.8214 42.0868C43.5547 41.5962 43.192 41.2228 42.7334 40.9668C42.2854 40.7002 41.7894 40.5668 41.2454 40.5668C40.7014 40.5668 40.2054 40.6948 39.7574 40.9508C39.3094 41.2068 38.952 41.5802 38.6854 42.0708C38.4187 42.5615 38.2854 43.1375 38.2854 43.7988C38.2854 44.4708 38.4187 45.0575 38.6854 45.5588C38.952 46.0495 39.3094 46.4282 39.7574 46.6948C40.2054 46.9508 40.7014 47.0788 41.2454 47.0788C41.7894 47.0788 42.2854 46.9508 42.7334 46.6948C43.192 46.4282 43.5547 46.0495 43.8214 45.5588C44.088 45.0575 44.2214 44.4762 44.2214 43.8148ZM49.6099 40.8708C49.8659 40.3695 50.2285 39.9802 50.6979 39.7028C51.1779 39.4255 51.7592 39.2868 52.4419 39.2868V40.7908H52.0579C50.4259 40.7908 49.6099 41.6762 49.6099 43.4468V48.2148H48.1539V39.4468H49.6099V40.8708ZM53.5786 43.7988C53.5786 42.9028 53.76 42.1188 54.1226 41.4468C54.4853 40.7642 54.9813 40.2362 55.6106 39.8628C56.2506 39.4895 56.9653 39.3028 57.7546 39.3028C58.4373 39.3028 59.072 39.4628 59.6586 39.7828C60.2453 40.0922 60.6933 40.5028 61.0026 41.0148V36.3748H62.4746V48.2148H61.0026V46.5668C60.7146 47.0895 60.288 47.5215 59.7226 47.8628C59.1573 48.1935 58.496 48.3588 57.7386 48.3588C56.96 48.3588 56.2506 48.1668 55.6106 47.7828C54.9813 47.3988 54.4853 46.8602 54.1226 46.1668C53.76 45.4735 53.5786 44.6842 53.5786 43.7988ZM61.0026 43.8148C61.0026 43.1535 60.8693 42.5775 60.6026 42.0868C60.336 41.5962 59.9733 41.2228 59.5146 40.9668C59.0666 40.7002 58.5706 40.5668 58.0266 40.5668C57.4826 40.5668 56.9866 40.6948 56.5386 40.9508C56.0906 41.2068 55.7333 41.5802 55.4666 42.0708C55.2 42.5615 55.0666 43.1375 55.0666 43.7988C55.0666 44.4708 55.2 45.0575 55.4666 45.5588C55.7333 46.0495 56.0906 46.4282 56.5386 46.6948C56.9866 46.9508 57.4826 47.0788 58.0266 47.0788C58.5706 47.0788 59.0666 46.9508 59.5146 46.6948C59.9733 46.4282 60.336 46.0495 60.6026 45.5588C60.8693 45.0575 61.0026 44.4762 61.0026 43.8148ZM76.6568 40.3268C76.6568 41.2548 76.3368 42.0282 75.6968 42.6468C75.0674 43.2548 74.1021 43.5588 72.8008 43.5588H70.6568V48.2148H69.2008V37.0628H72.8008C74.0594 37.0628 75.0141 37.3668 75.6648 37.9748C76.3261 38.5828 76.6568 39.3668 76.6568 40.3268ZM72.8008 42.3588C73.6114 42.3588 74.2088 42.1828 74.5928 41.8308C74.9768 41.4788 75.1688 40.9775 75.1688 40.3268C75.1688 38.9508 74.3794 38.2628 72.8008 38.2628H70.6568V42.3588H72.8008ZM79.9224 36.3748V48.2148H78.4664V36.3748H79.9224ZM81.8599 43.7988C81.8599 42.9028 82.0412 42.1188 82.4039 41.4468C82.7665 40.7642 83.2625 40.2362 83.8919 39.8628C84.5319 39.4895 85.2412 39.3028 86.0199 39.3028C86.7879 39.3028 87.4545 39.4682 88.0199 39.7988C88.5852 40.1295 89.0065 40.5455 89.2839 41.0468V39.4468H90.7559V48.2148H89.2839V46.5828C88.9959 47.0948 88.5639 47.5215 87.9879 47.8628C87.4225 48.1935 86.7612 48.3588 86.0039 48.3588C85.2252 48.3588 84.5212 48.1668 83.8919 47.7828C83.2625 47.3988 82.7665 46.8602 82.4039 46.1668C82.0412 45.4735 81.8599 44.6842 81.8599 43.7988ZM89.2839 43.8148C89.2839 43.1535 89.1505 42.5775 88.8839 42.0868C88.6172 41.5962 88.2545 41.2228 87.7959 40.9668C87.3479 40.7002 86.8519 40.5668 86.3079 40.5668C85.7639 40.5668 85.2679 40.6948 84.8199 40.9508C84.3719 41.2068 84.0145 41.5802 83.7479 42.0708C83.4812 42.5615 83.3479 43.1375 83.3479 43.7988C83.3479 44.4708 83.4812 45.0575 83.7479 45.5588C84.0145 46.0495 84.3719 46.4282 84.8199 46.6948C85.2679 46.9508 85.7639 47.0788 86.3079 47.0788C86.8519 47.0788 87.3479 46.9508 87.7959 46.6948C88.2545 46.4282 88.6172 46.0495 88.8839 45.5588C89.1505 45.0575 89.2839 44.4762 89.2839 43.8148ZM92.6724 43.8148C92.6724 42.9082 92.8537 42.1188 93.2164 41.4468C93.579 40.7642 94.0804 40.2362 94.7204 39.8628C95.371 39.4895 96.1124 39.3028 96.9444 39.3028C98.0217 39.3028 98.907 39.5642 99.6004 40.0868C100.304 40.6095 100.768 41.3348 100.992 42.2628H99.4244C99.275 41.7295 98.9817 41.3082 98.5444 40.9988C98.1177 40.6895 97.5844 40.5348 96.9444 40.5348C96.1124 40.5348 95.4404 40.8228 94.9284 41.3988C94.4164 41.9642 94.1604 42.7695 94.1604 43.8148C94.1604 44.8708 94.4164 45.6868 94.9284 46.2628C95.4404 46.8388 96.1124 47.1268 96.9444 47.1268C97.5844 47.1268 98.1177 46.9775 98.5444 46.6788C98.971 46.3802 99.2644 45.9535 99.4244 45.3988H100.992C100.758 46.2948 100.288 47.0148 99.5844 47.5588C98.8804 48.0922 98.0004 48.3588 96.9444 48.3588C96.1124 48.3588 95.371 48.1722 94.7204 47.7988C94.0804 47.4255 93.579 46.8975 93.2164 46.2148C92.8537 45.5322 92.6724 44.7322 92.6724 43.8148ZM110.935 43.4948C110.935 43.7722 110.919 44.0655 110.887 44.3748H103.879C103.932 45.2388 104.226 45.9162 104.759 46.4068C105.303 46.8868 105.959 47.1268 106.727 47.1268C107.356 47.1268 107.879 46.9828 108.295 46.6948C108.722 46.3962 109.02 46.0015 109.191 45.5108H110.759C110.524 46.3535 110.055 47.0415 109.351 47.5748C108.647 48.0975 107.772 48.3588 106.727 48.3588C105.895 48.3588 105.148 48.1722 104.487 47.7988C103.836 47.4255 103.324 46.8975 102.951 46.2148C102.578 45.5215 102.391 44.7215 102.391 43.8148C102.391 42.9082 102.572 42.1135 102.935 41.4308C103.298 40.7482 103.804 40.2255 104.455 39.8628C105.116 39.4895 105.874 39.3028 106.727 39.3028C107.559 39.3028 108.295 39.4842 108.935 39.8468C109.575 40.2095 110.066 40.7108 110.407 41.3508C110.759 41.9802 110.935 42.6948 110.935 43.4948ZM109.431 43.1908C109.431 42.6362 109.308 42.1615 109.063 41.7668C108.818 41.3615 108.482 41.0575 108.055 40.8548C107.639 40.6415 107.175 40.5348 106.663 40.5348C105.927 40.5348 105.298 40.7695 104.775 41.2388C104.263 41.7082 103.97 42.3588 103.895 43.1908H109.431ZM117.209 39.2868C117.87 39.2868 118.468 39.4308 119.001 39.7188C119.534 39.9962 119.95 40.4175 120.249 40.9828C120.558 41.5482 120.713 42.2362 120.713 43.0468V48.2148H119.273V43.2548C119.273 42.3802 119.054 41.7135 118.617 41.2548C118.18 40.7855 117.582 40.5508 116.825 40.5508C116.057 40.5508 115.444 40.7908 114.985 41.2708C114.537 41.7508 114.313 42.4495 114.313 43.3668V48.2148H112.857V36.3748H114.313V40.6948C114.601 40.2468 114.996 39.9002 115.497 39.6548C116.009 39.4095 116.58 39.2868 117.209 39.2868ZM126.915 48.3588C126.094 48.3588 125.347 48.1722 124.675 47.7988C124.014 47.4255 123.491 46.8975 123.107 46.2148C122.734 45.5215 122.547 44.7215 122.547 43.8148C122.547 42.9188 122.739 42.1295 123.123 41.4468C123.518 40.7535 124.051 40.2255 124.723 39.8628C125.395 39.4895 126.147 39.3028 126.979 39.3028C127.811 39.3028 128.563 39.4895 129.235 39.8628C129.907 40.2255 130.435 40.7482 130.819 41.4308C131.214 42.1135 131.411 42.9082 131.411 43.8148C131.411 44.7215 131.209 45.5215 130.803 46.2148C130.409 46.8975 129.87 47.4255 129.187 47.7988C128.505 48.1722 127.747 48.3588 126.915 48.3588ZM126.915 47.0788C127.438 47.0788 127.929 46.9562 128.387 46.7108C128.846 46.4655 129.214 46.0975 129.491 45.6068C129.779 45.1162 129.923 44.5188 129.923 43.8148C129.923 43.1108 129.785 42.5135 129.507 42.0228C129.23 41.5322 128.867 41.1695 128.419 40.9348C127.971 40.6895 127.486 40.5668 126.963 40.5668C126.43 40.5668 125.939 40.6895 125.491 40.9348C125.054 41.1695 124.702 41.5322 124.435 42.0228C124.169 42.5135 124.035 43.1108 124.035 43.8148C124.035 44.5295 124.163 45.1322 124.419 45.6228C124.686 46.1135 125.038 46.4815 125.475 46.7268C125.913 46.9615 126.393 47.0788 126.915 47.0788ZM134.782 36.3748V48.2148H133.326V36.3748H134.782ZM136.719 43.7988C136.719 42.9028 136.901 42.1188 137.263 41.4468C137.626 40.7642 138.122 40.2362 138.751 39.8628C139.391 39.4895 140.106 39.3028 140.895 39.3028C141.578 39.3028 142.213 39.4628 142.799 39.7828C143.386 40.0922 143.834 40.5028 144.143 41.0148V36.3748H145.615V48.2148H144.143V46.5668C143.855 47.0895 143.429 47.5215 142.863 47.8628C142.298 48.1935 141.637 48.3588 140.879 48.3588C140.101 48.3588 139.391 48.1668 138.751 47.7828C138.122 47.3988 137.626 46.8602 137.263 46.1668C136.901 45.4735 136.719 44.6842 136.719 43.7988ZM144.143 43.8148C144.143 43.1535 144.01 42.5775 143.743 42.0868C143.477 41.5962 143.114 41.2228 142.655 40.9668C142.207 40.7002 141.711 40.5668 141.167 40.5668C140.623 40.5668 140.127 40.6948 139.679 40.9508C139.231 41.2068 138.874 41.5802 138.607 42.0708C138.341 42.5615 138.207 43.1375 138.207 43.7988C138.207 44.4708 138.341 45.0575 138.607 45.5588C138.874 46.0495 139.231 46.4282 139.679 46.6948C140.127 46.9508 140.623 47.0788 141.167 47.0788C141.711 47.0788 142.207 46.9508 142.655 46.6948C143.114 46.4282 143.477 46.0495 143.743 45.5588C144.01 45.0575 144.143 44.4762 144.143 43.8148ZM156.076 43.4948C156.076 43.7722 156.06 44.0655 156.028 44.3748H149.02C149.073 45.2388 149.366 45.9162 149.9 46.4068C150.444 46.8868 151.1 47.1268 151.868 47.1268C152.497 47.1268 153.02 46.9828 153.436 46.6948C153.862 46.3962 154.161 46.0015 154.332 45.5108H155.9C155.665 46.3535 155.196 47.0415 154.492 47.5748C153.788 48.0975 152.913 48.3588 151.868 48.3588C151.036 48.3588 150.289 48.1722 149.628 47.7988C148.977 47.4255 148.465 46.8975 148.092 46.2148C147.718 45.5215 147.532 44.7215 147.532 43.8148C147.532 42.9082 147.713 42.1135 148.076 41.4308C148.438 40.7482 148.945 40.2255 149.596 39.8628C150.257 39.4895 151.014 39.3028 151.868 39.3028C152.7 39.3028 153.436 39.4842 154.076 39.8468C154.716 40.2095 155.206 40.7108 155.548 41.3508C155.9 41.9802 156.076 42.6948 156.076 43.4948ZM154.572 43.1908C154.572 42.6362 154.449 42.1615 154.204 41.7668C153.958 41.3615 153.622 41.0575 153.196 40.8548C152.78 40.6415 152.316 40.5348 151.804 40.5348C151.068 40.5348 150.438 40.7695 149.916 41.2388C149.404 41.7082 149.11 42.3588 149.036 43.1908H154.572ZM159.454 40.8708C159.71 40.3695 160.072 39.9802 160.542 39.7028C161.022 39.4255 161.603 39.2868 162.286 39.2868V40.7908H161.902C160.27 40.7908 159.454 41.6762 159.454 43.4468V48.2148H157.998V39.4468H159.454V40.8708Z" fill="white"/>
</svg>
