<svg width="41" height="41" viewBox="0 0 41 41" fill="none" xmlns="http://www.w3.org/2000/svg">
<path d="M8.53646 15.2152V28.5485M16.0365 15.2152V28.5485M24.3698 15.2152V28.5485M31.8698 15.2152V28.5485M5.20313 31.2152L5.20313 32.5485C5.20312 33.482 5.20312 33.9487 5.38478 34.3052C5.54457 34.6188 5.79954 34.8738 6.11314 35.0335C6.46966 35.2152 6.93637 35.2152 7.86979 35.2152H32.5365C33.4699 35.2152 33.9366 35.2152 34.2931 35.0335C34.6067 34.8738 34.8617 34.6188 35.0215 34.3052C35.2031 33.9487 35.2031 33.482 35.2031 32.5485V31.2152C35.2031 30.2818 35.2031 29.8151 35.0215 29.4586C34.8617 29.1449 34.6067 28.89 34.2931 28.7302C33.9366 28.5485 33.4699 28.5485 32.5365 28.5485H7.86979C6.93637 28.5485 6.46966 28.5485 6.11314 28.7302C5.79954 28.89 5.54457 29.1449 5.38478 29.4586C5.20313 29.8151 5.20313 30.2818 5.20313 31.2152ZM19.6246 5.34375L7.29131 8.08449C6.54621 8.25007 6.17366 8.33286 5.89557 8.53321C5.65028 8.70992 5.45767 8.95003 5.33837 9.22781C5.20313 9.54274 5.20313 9.92438 5.20313 10.6877L5.20313 12.5485C5.20312 13.482 5.20312 13.9487 5.38478 14.3052C5.54457 14.6188 5.79954 14.8738 6.11314 15.0335C6.46966 15.2152 6.93637 15.2152 7.86979 15.2152H32.5365C33.4699 15.2152 33.9366 15.2152 34.2931 15.0335C34.6067 14.8738 34.8617 14.6188 35.0215 14.3052C35.2031 13.9487 35.2031 13.482 35.2031 12.5485V10.6877C35.2031 9.92438 35.2031 9.54275 35.0679 9.22781C34.9486 8.95003 34.756 8.70992 34.5107 8.53321C34.2326 8.33286 33.86 8.25007 33.1149 8.0845L20.7816 5.34375C20.5657 5.29578 20.4578 5.2718 20.3487 5.26223C20.2518 5.25374 20.1544 5.25374 20.0575 5.26223C19.9485 5.2718 19.8405 5.29578 19.6246 5.34375Z" stroke="#EE1338" stroke-width="2.66667" stroke-linecap="round" stroke-linejoin="round"/>
</svg>
