<svg width="104" height="27" viewBox="0 0 104 27" fill="none" xmlns="http://www.w3.org/2000/svg">
<g clip-path="url(#clip0_37267_15566)">
<path d="M0.984375 13.0675C0.999438 12.8401 1.02956 12.6127 1.04463 12.3853C1.24044 10.0961 1.97852 7.98881 3.27391 6.09379C5.33751 3.07691 8.13918 1.12125 11.7241 0.454199C16.5894 -0.455412 20.7768 0.969645 24.181 4.60809C25.9885 6.54859 27.0881 8.89842 27.4798 11.5363C28.0521 15.4931 27.0881 19.0557 24.5576 22.1484C22.6446 24.4831 20.2045 26.0446 17.2672 26.651C12.5074 27.6516 8.335 26.4388 4.8555 22.9974C2.77684 20.9659 1.57182 18.4493 1.135 15.5537C1.07475 15.1444 1.05969 14.7351 1.0145 14.3258C0.999438 14.25 0.999438 14.159 0.984375 14.0832C0.984375 13.7345 0.984375 13.401 0.984375 13.0675ZM2.37015 13.5829C2.37015 20.2231 7.70236 25.6049 14.2999 25.6049C20.9124 25.6049 26.2446 20.2534 26.2446 13.5981C26.2597 6.97308 20.8973 1.57605 14.3149 1.57605C7.73249 1.57605 2.37015 6.95792 2.37015 13.5829Z" fill="#FF911E"/>
<path d="M34.0925 18.0243C34.0925 18.1456 34.0925 18.2365 34.0925 18.3123C34.0774 18.7065 33.7611 19.0097 33.3695 19.0097C32.9628 19.0097 32.6465 18.7065 32.6465 18.2972C32.6465 16.7205 32.6465 15.1439 32.6465 13.5672C32.6465 11.8693 32.6465 10.1713 32.6465 8.47339C32.6465 8.09438 32.9176 7.77602 33.2791 7.7457C33.6557 7.70022 34.0021 7.94278 34.0774 8.32178C34.0925 8.39759 34.0925 8.47339 34.0925 8.54919C34.0925 9.64072 34.0925 10.7171 34.0925 11.8086C34.0925 11.8389 34.0925 11.8693 34.0925 11.9299C35.0113 11.0961 36.0959 10.8535 37.2707 10.9748C38.4607 11.0961 39.4548 11.5964 40.1327 12.6121C41.1871 14.1736 40.9611 16.6144 39.6959 17.9182C38.4005 19.2523 35.5536 19.4342 34.0925 18.0243ZM39.3494 15.0377C39.3042 14.6891 39.2892 14.4162 39.244 14.1433C39.0482 13.2034 38.536 12.5363 37.5871 12.2634C37.1804 12.1422 36.7586 12.1422 36.3519 12.1725C35.2825 12.2634 34.4691 12.9305 34.1678 13.9614C33.972 14.6284 33.972 15.2955 34.1678 15.9625C34.4239 16.8266 34.9812 17.3724 35.8398 17.6301C36.2314 17.7514 36.6231 17.7666 37.0297 17.7363C38.0691 17.6756 38.8825 17.0692 39.1687 16.0686C39.2741 15.72 39.3042 15.341 39.3494 15.0377Z" fill="#FF911E"/>
<path d="M71.6893 16.9468C71.9905 16.0524 72.2918 15.2034 72.578 14.3544C72.9093 13.3993 73.2257 12.4443 73.557 11.4892C73.6775 11.1253 73.9637 10.9131 74.3102 10.9131C74.6566 10.9131 74.9428 11.1253 75.0633 11.474C75.6508 13.2023 76.2382 14.9457 76.8257 16.6891C76.8558 16.7649 76.8708 16.8255 76.916 16.9317C77.0968 16.4162 77.2474 15.9311 77.4131 15.4611C77.865 14.127 78.3018 12.7929 78.7386 11.474C78.8893 11.0192 79.2508 10.8221 79.6575 10.9586C80.0491 11.095 80.2449 11.5195 80.0943 11.944C79.8834 12.5504 79.6424 13.1568 79.4165 13.7632C78.829 15.3247 78.2416 16.8862 77.6541 18.4628C77.4884 18.8873 77.1269 19.0844 76.7052 18.9783C76.419 18.9025 76.2533 18.7054 76.1629 18.4174C75.5754 16.7346 74.988 15.0518 74.3855 13.369C74.3554 13.2932 74.3403 13.2326 74.2951 13.1265C74.265 13.2174 74.2349 13.2932 74.2047 13.3539C73.6173 15.0518 73.0298 16.7649 72.4273 18.4628C72.3219 18.7661 72.096 18.9328 71.7796 18.9783C71.4784 19.0238 71.2223 18.9177 71.0416 18.6751C70.9964 18.6145 70.9512 18.5235 70.9211 18.4477C70.1077 16.3101 69.3093 14.1725 68.496 12.0198C68.3152 11.5195 68.4809 11.0798 68.9177 10.9434C69.3093 10.8221 69.6708 11.004 69.8064 11.3982C70.3939 13.1568 70.9813 14.9154 71.5838 16.6739C71.629 16.7649 71.6441 16.8407 71.6893 16.9468Z" fill="#FF911E"/>
<path d="M48.5229 17.9933C47.9656 18.5088 47.348 18.812 46.6551 18.9181C45.2091 19.1455 43.8836 18.8878 42.8292 17.7962C42.2568 17.205 41.9555 16.4621 41.8501 15.6435C41.7296 14.7945 41.8049 13.9456 42.1664 13.1572C42.7087 11.9292 43.6727 11.2319 44.9681 11.0045C45.9321 10.8377 46.8811 10.9135 47.7547 11.3835C48.0108 11.5199 48.2518 11.7018 48.5229 11.8838C48.5229 11.808 48.5229 11.7473 48.5229 11.6715C48.538 11.2319 48.8392 10.9287 49.2459 10.9287C49.6677 10.9287 49.9689 11.247 49.9689 11.6867C49.9689 13.8698 49.9689 16.068 49.9689 18.251C49.9689 18.7059 49.6827 18.9939 49.261 19.0091C48.8392 19.0242 48.5229 18.7059 48.5229 18.251C48.5229 18.1904 48.5229 18.1146 48.5229 17.9933ZM48.6133 15.0826C48.5832 14.7642 48.5681 14.5368 48.538 14.3094C48.3422 13.2633 47.7547 12.5508 46.7154 12.2628C46.3087 12.1567 45.8869 12.1415 45.4802 12.1718C44.5012 12.2628 43.748 12.854 43.4618 13.794C43.2359 14.5368 43.2208 15.2797 43.4317 16.0225C43.6727 16.8715 44.215 17.4476 45.0886 17.6598C45.42 17.7356 45.7815 17.7508 46.1279 17.7508C47.2124 17.7204 48.0861 17.0837 48.4175 16.0983C48.538 15.7345 48.5681 15.3555 48.6133 15.0826Z" fill="#FF911E"/>
<path d="M64.76 14.067C64.8052 14.1428 64.8504 14.2034 64.8805 14.264C65.6939 15.4617 66.5223 16.6594 67.3357 17.857C67.5165 18.1147 67.5165 18.4331 67.3357 18.6757C67.155 18.9334 66.8387 19.0698 66.5374 18.9789C66.3416 18.9182 66.206 18.7969 66.1006 18.6302C65.3324 17.478 64.5491 16.3107 63.7809 15.1585C63.7357 15.0979 63.7056 15.0372 63.6604 14.9766C63.6152 15.0069 63.5851 15.0221 63.5399 15.0524C63.1031 15.4011 62.6663 15.7497 62.2295 16.0984C62.124 16.1742 62.0939 16.2652 62.0939 16.3865C62.0939 17.0232 62.0939 17.6599 62.0939 18.2967C62.0939 18.6757 61.8228 18.9485 61.4462 18.994C61.0998 19.0395 60.7533 18.8121 60.6629 18.4634C60.6479 18.3876 60.6328 18.2967 60.6328 18.2209C60.6328 14.9766 60.6328 11.7323 60.6328 8.48801C60.6328 8.04837 60.9341 7.71484 61.3558 7.71484C61.7776 7.71484 62.0939 8.03321 62.0939 8.50317C62.0939 10.4285 62.0939 12.3539 62.0939 14.2792C62.0939 14.3398 62.0939 14.4156 62.0939 14.5218C62.1692 14.4611 62.2144 14.4308 62.2596 14.3853C63.6303 13.2786 65.001 12.1871 66.3567 11.0804C66.6127 10.8682 66.929 10.8682 67.17 11.0501C67.5316 11.323 67.5466 11.8081 67.1851 12.0961C66.5826 12.5813 65.9801 13.0664 65.3776 13.5515C65.1968 13.7183 64.9859 13.885 64.76 14.067Z" fill="#FF911E"/>
<path d="M82.3386 15.3237C82.3687 16.0059 82.6097 16.582 83.0767 17.052C83.5285 17.5068 84.1009 17.7493 84.7336 17.7948C85.1854 17.8251 85.6524 17.7797 86.0892 17.6735C86.526 17.5674 86.9177 17.3703 87.2641 17.0974C87.5804 16.8397 87.9871 16.8852 88.2131 17.1732C88.439 17.4613 88.3637 17.8706 88.0474 18.1283C87.4449 18.5831 86.752 18.8257 86.0139 18.9318C85.1403 19.0531 84.2516 19.0683 83.408 18.7499C81.9168 18.2041 81.0884 17.1126 80.8926 15.5359C80.7721 14.4899 80.9528 13.5045 81.5704 12.6252C82.2934 11.5943 83.3026 11.0637 84.5377 10.9576C85.9235 10.8363 87.1285 11.2608 88.0474 12.3371C88.4992 12.8678 88.7553 13.4893 88.8156 14.1715C88.8156 14.2473 88.8156 14.3231 88.8156 14.3989C88.8156 15.0053 88.4993 15.3237 87.8817 15.3237C86.1043 15.3237 84.3269 15.3237 82.5495 15.3237C82.4892 15.3237 82.4139 15.3237 82.3386 15.3237ZM82.3536 14.2473C84.0557 14.2473 85.7578 14.2473 87.4599 14.2473C87.3695 13.2316 86.4356 12.0643 84.7787 12.1249C83.5135 12.1704 82.3085 13.2316 82.3536 14.2473Z" fill="#FF911E"/>
<path d="M53.2708 11.8555C53.7679 11.4158 54.2951 11.143 54.8976 11.0217C55.6206 10.8701 56.3285 10.8852 57.0214 11.1126C58.1511 11.4613 58.9043 12.4012 59.0097 13.5837C59.0398 13.8263 59.0398 14.084 59.0398 14.3266C59.0398 15.6455 59.0398 16.9645 59.0398 18.2834C59.0398 18.6624 58.7687 18.9504 58.3921 18.9959C58.0306 19.0414 57.6842 18.7988 57.6089 18.4502C57.5938 18.3744 57.5938 18.2834 57.5938 18.2076C57.5938 16.9341 57.5938 15.6759 57.5938 14.4024C57.5938 14.0992 57.5637 13.7808 57.5034 13.4776C57.3528 12.7348 56.8859 12.3103 56.1478 12.1738C55.6959 12.0829 55.244 12.0829 54.8072 12.189C53.8884 12.4164 53.316 13.1441 53.3009 14.1598C53.2859 15.4636 53.3009 16.7522 53.3009 18.0408C53.3009 18.1166 53.3009 18.1924 53.3009 18.2682C53.2859 18.6927 52.9695 18.9959 52.5629 18.9959C52.1411 18.9959 51.8398 18.6776 51.8398 18.2531C51.8398 16.0549 51.8398 13.8566 51.8398 11.6432C51.8398 11.2188 52.1562 10.9004 52.5629 10.9004C52.9695 10.9004 53.2859 11.2036 53.3009 11.6281C53.2708 11.7039 53.2708 11.7645 53.2708 11.8555Z" fill="#FF911E"/>
<path d="M93.4853 19.0095C92.1597 18.9943 91.0451 18.6911 90.1715 17.7512C90.051 17.6147 89.9305 17.4631 89.8401 17.2964C89.6895 17.0235 89.7648 16.7051 89.9907 16.508C90.2167 16.3261 90.533 16.3109 90.774 16.4929C90.8643 16.5687 90.9547 16.6596 91.03 16.7506C91.6777 17.4783 92.4761 17.8421 93.4401 17.7966C93.8016 17.7815 94.1781 17.7057 94.5397 17.645C94.6752 17.6147 94.8108 17.5389 94.9313 17.4631C95.5489 17.0689 95.5489 16.2655 94.9313 15.8865C94.5999 15.6742 94.2233 15.5984 93.8317 15.5075C93.0786 15.3407 92.3254 15.1891 91.5723 15.0223C91.3313 14.9617 91.1054 14.8404 90.8945 14.7343C89.81 14.1582 89.7648 12.7938 90.3974 12.0358C90.8342 11.5052 91.4066 11.2171 92.0543 11.0655C93.1991 10.7926 94.2987 10.9139 95.353 11.4294C95.6543 11.581 95.9254 11.8084 96.1966 12.0358C96.4074 12.2025 96.4828 12.4603 96.4074 12.7331C96.302 13.097 95.8802 13.2789 95.5187 13.0818C95.3681 13.006 95.2476 12.8847 95.1271 12.7786C94.6602 12.339 94.1028 12.1267 93.4702 12.0964C93.0484 12.0812 92.6267 12.0964 92.22 12.2329C92.0844 12.2783 91.9489 12.339 91.8284 12.4148C91.3162 12.7635 91.3313 13.4305 91.8585 13.764C92.2351 13.9914 92.6568 14.0824 93.0786 14.1582C93.6961 14.2946 94.3137 14.4008 94.9313 14.5524C95.2627 14.6433 95.579 14.7798 95.8652 14.9617C96.9949 15.6742 97.1003 17.2357 96.1062 18.115C95.6392 18.5243 95.0819 18.7517 94.4794 18.8579C94.133 18.9488 93.7715 18.9791 93.4853 19.0095Z" fill="#FF911E"/>
<path d="M100.414 11.0046C100.535 11.0046 100.625 11.0046 100.716 11.0046C101.348 11.0046 101.966 11.0046 102.598 11.0046C102.674 11.0046 102.764 11.0198 102.839 11.035C103.141 11.1259 103.352 11.414 103.306 11.702C103.276 11.9749 102.99 12.2175 102.689 12.2175C102.011 12.2175 101.333 12.2175 100.655 12.2175C100.58 12.2175 100.52 12.2175 100.429 12.2175C100.429 12.2933 100.414 12.3539 100.414 12.4145C100.414 13.7335 100.414 15.0372 100.414 16.3562C100.414 16.4926 100.429 16.6442 100.444 16.7807C100.535 17.2961 100.866 17.5993 101.393 17.66C101.815 17.7054 102.207 17.6448 102.598 17.4932C102.749 17.4326 102.915 17.3871 103.08 17.3719C103.336 17.3568 103.517 17.4932 103.638 17.7206C103.758 17.948 103.743 18.1906 103.562 18.3725C103.412 18.5241 103.231 18.6605 103.035 18.7363C102.207 19.0547 101.333 19.1002 100.475 18.8576C99.5708 18.5847 99.1189 17.9177 98.9833 17.0081C98.9532 16.7655 98.9382 16.5381 98.9382 16.2955C98.9382 15.0221 98.9382 13.7335 98.9382 12.46C98.9382 12.3994 98.9382 12.3236 98.9382 12.2326C98.6369 12.2326 98.3507 12.2326 98.0645 12.2326C97.9741 12.2326 97.8838 12.2326 97.8085 12.2175C97.5223 12.1417 97.3264 11.8384 97.3566 11.5656C97.4018 11.2624 97.6578 11.0198 97.9591 11.0198C98.2754 11.0198 98.5917 11.0198 98.9382 11.0198C98.9382 10.944 98.9382 10.8834 98.9382 10.8227C98.9382 10.2618 98.9382 9.6857 98.9382 9.12477C98.9382 8.74577 99.2243 8.44257 99.5859 8.39708C99.9474 8.36676 100.294 8.60933 100.384 8.97317C100.399 9.06413 100.399 9.15509 100.399 9.24605C100.414 9.80698 100.414 10.3831 100.414 11.0046Z" fill="#FF911E"/>
<path d="M9.78237 12.7649C10.3698 13.2804 10.9422 13.7958 11.5146 14.3113C12.087 13.7958 12.6594 13.2955 13.2317 12.7952C13.051 12.6436 12.8853 12.492 12.7196 12.3404C11.9966 11.6734 11.7104 10.8396 11.9815 9.88449C12.2527 8.9294 12.9004 8.35331 13.8644 8.15623C14.8736 7.94399 15.943 8.45943 16.4401 9.39937C16.9372 10.3393 16.7715 11.4612 16.0334 12.204C15.8225 12.4162 15.6117 12.5982 15.3857 12.7952C15.9581 13.3107 16.5154 13.811 17.0878 14.3113C17.6753 13.7958 18.2476 13.2804 18.8351 12.7649C18.6694 12.6285 18.5188 12.5072 18.3681 12.3708C17.5849 11.7037 17.2836 10.8699 17.5548 9.88449C17.8259 8.89908 18.5037 8.30783 19.5129 8.12591C20.5372 7.94399 21.5916 8.50492 22.0585 9.44485C22.5405 10.4151 22.3447 11.5218 21.5464 12.2646C20.6125 13.1288 19.6485 13.9626 18.6995 14.8116C18.5338 14.9632 18.3681 15.0996 18.1874 15.2664C18.3681 15.4331 18.5338 15.5847 18.7146 15.7363C19.1213 16.1002 19.3773 16.5398 19.4978 17.0704C19.8292 18.6622 18.3983 20.1934 16.8016 19.9357C15.461 19.7235 14.5874 18.6168 14.723 17.2523C14.7832 16.6611 15.0543 16.176 15.4912 15.7666C15.6719 15.5999 15.8527 15.4483 16.0485 15.2664C15.4761 14.7509 14.9037 14.2506 14.3313 13.7352C13.7589 14.2355 13.2016 14.7358 12.6142 15.2512C12.7949 15.418 12.9757 15.5696 13.1414 15.7212C13.5481 16.085 13.8041 16.5398 13.9246 17.0704C14.1807 18.3742 13.2317 19.7235 11.9363 19.9054C10.4903 20.1025 9.25518 19.1322 9.13467 17.6617C9.07442 16.9188 9.36062 16.2821 9.90287 15.7666C10.0836 15.5999 10.2794 15.4331 10.4753 15.2512C10.415 15.1906 10.3698 15.1451 10.3246 15.1148C9.25518 14.2051 8.21585 13.2804 7.17652 12.3404C6.4535 11.6886 6.15225 10.8699 6.40832 9.91481C6.66438 8.94456 7.31208 8.36847 8.2761 8.15623C9.33049 7.92883 10.415 8.4746 10.9121 9.47517C11.3941 10.4757 11.1681 11.6128 10.3246 12.3253C10.1439 12.4769 9.97819 12.6133 9.78237 12.7649ZM14.3163 11.8402C14.5573 11.6279 14.7983 11.4308 15.0091 11.2186C15.2803 10.9609 15.3707 10.6425 15.2803 10.2787C15.1748 9.88449 14.8435 9.59645 14.4066 9.53581C14.0301 9.49033 13.6234 9.70257 13.4276 10.0664C13.2317 10.4303 13.2619 10.8396 13.5481 11.1428C13.7891 11.3854 14.0451 11.6128 14.3163 11.8402ZM11.5297 16.2214C11.2585 16.4792 10.9723 16.7066 10.7313 16.9643C10.4602 17.2523 10.4602 17.6617 10.656 18.0255C10.9422 18.541 11.605 18.6926 12.087 18.359C12.5539 18.0407 12.6744 17.3736 12.3129 16.9491C12.0719 16.6914 11.8008 16.464 11.5297 16.2214ZM17.0878 16.2214C16.8317 16.464 16.5606 16.6763 16.3347 16.9188C16.1087 17.1462 16.0485 17.4343 16.1087 17.7375C16.184 18.1316 16.5606 18.4803 16.9673 18.5258C17.4041 18.5713 17.8108 18.3439 18.0066 17.9497C18.1874 17.5555 18.1121 17.1462 17.7807 16.843C17.5548 16.6308 17.3288 16.4337 17.0878 16.2214ZM8.71292 11.8098C8.98405 11.5824 9.25518 11.3702 9.49618 11.1276C9.60162 11.0215 9.67693 10.8547 9.72212 10.7031C9.82756 10.2483 9.55643 9.77837 9.13467 9.59645C8.69785 9.41453 8.18572 9.56613 7.91459 9.97545C7.64346 10.3848 7.70371 10.8547 8.05016 11.2034C8.26103 11.4157 8.47191 11.5976 8.71292 11.8098ZM19.9196 11.825C20.1606 11.6128 20.3866 11.4157 20.6125 11.2034C20.8836 10.9457 20.9589 10.6122 20.8535 10.2635C20.733 9.85417 20.3564 9.56613 19.9196 9.55097C19.5129 9.53581 19.1213 9.79353 18.9707 10.1877C18.82 10.5819 18.9104 10.976 19.2568 11.2641C19.4677 11.446 19.6937 11.6279 19.9196 11.825Z" fill="#FF911E"/>
</g>
<defs>
<clipPath id="clip0_37267_15566">
<rect width="102.73" height="26.8026" fill="white" transform="translate(0.984375 0.1875)"/>
</clipPath>
</defs>
</svg>
