<svg width="41" height="41" viewBox="0 0 41 41" fill="none" xmlns="http://www.w3.org/2000/svg">
<path d="M13.5371 35.2148V11.8815C13.5371 10.3316 13.5371 9.55658 13.7075 8.92075C14.1698 7.19529 15.5176 5.84755 17.243 5.38521C17.8788 5.21484 18.6538 5.21484 20.2038 5.21484C21.7537 5.21484 22.5287 5.21484 23.1645 5.38521C24.89 5.84755 26.2377 7.19529 26.7001 8.92075C26.8704 9.55658 26.8704 10.3316 26.8704 11.8815V35.2148M8.87044 35.2148H31.5371C33.404 35.2148 34.3374 35.2148 35.0504 34.8515C35.6776 34.532 36.1876 34.022 36.5071 33.3948C36.8704 32.6818 36.8704 31.7484 36.8704 29.8815V17.2148C36.8704 15.348 36.8704 14.4146 36.5071 13.7015C36.1876 13.0743 35.6776 12.5644 35.0504 12.2448C34.3374 11.8815 33.404 11.8815 31.5371 11.8815H8.87044C7.0036 11.8815 6.07018 11.8815 5.35714 12.2448C4.72993 12.5644 4.22 13.0743 3.90042 13.7015C3.53711 14.4146 3.53711 15.348 3.53711 17.2148V29.8815C3.53711 31.7484 3.53711 32.6818 3.90042 33.3948C4.22 34.022 4.72993 34.532 5.35714 34.8515C6.07018 35.2148 7.0036 35.2148 8.87044 35.2148Z" stroke="#EE1338" stroke-width="3" stroke-linecap="round" stroke-linejoin="round"/>
</svg>
