<svg width="18" height="18" viewBox="0 0 18 18" fill="none" xmlns="http://www.w3.org/2000/svg">
<g clip-path="url(#clip0_37238_14631)">
<g clip-path="url(#clip1_37238_14631)">
<g clip-path="url(#clip2_37238_14631)">
<path fill-rule="evenodd" clip-rule="evenodd" d="M7.69215 1.33253C7.80555 0.982613 8.13172 0.746094 8.49892 0.746094C8.86612 0.746094 9.1912 0.982613 9.3046 1.33253L10.7269 5.71515C10.7691 5.84367 10.8511 5.95599 10.9602 6.03591C11.0704 6.11583 11.2032 6.15904 11.3382 6.15904L15.9466 6.15687C16.3138 6.15687 16.6389 6.39339 16.7523 6.74331C16.8657 7.09215 16.7415 7.47448 16.4445 7.69048L12.7163 10.398C12.6062 10.4779 12.5241 10.5903 12.4819 10.7188C12.4398 10.8484 12.4409 10.9877 12.4819 11.1162L13.9075 15.4978C14.0209 15.8477 13.8967 16.23 13.5997 16.446C13.3027 16.662 12.8999 16.662 12.6029 16.446L8.87692 13.7363C8.76676 13.6564 8.635 13.6132 8.49892 13.6132C8.36284 13.6132 8.23107 13.6564 8.12091 13.7363L4.39385 16.446C4.09685 16.662 3.69506 16.662 3.39806 16.446C3.09998 16.23 2.97581 15.8477 3.09029 15.4978L4.51481 11.1162C4.55693 10.9877 4.55693 10.8484 4.51481 10.7188C4.47377 10.5903 4.39168 10.4779 4.28152 10.398L0.553369 7.69048C0.256369 7.47448 0.131077 7.09215 0.244477 6.74331C0.358957 6.39339 0.684047 6.15687 1.05125 6.15687L5.65851 6.15904C5.79459 6.15904 5.92744 6.11583 6.03652 6.03591C6.14668 5.95599 6.22876 5.84367 6.2698 5.71515L7.69215 1.33253Z" fill="#FF9D28"/>
</g>
</g>
</g>
<defs>
<clipPath id="clip0_37238_14631">
<rect width="17" height="17" fill="white" transform="translate(0.203125 0.214844)"/>
</clipPath>
<clipPath id="clip1_37238_14631">
<rect width="17" height="17" fill="white" transform="translate(0.203125 0.214844)"/>
</clipPath>
<clipPath id="clip2_37238_14631">
<rect width="17" height="15.9375" fill="white" transform="translate(0.203125 0.746094)"/>
</clipPath>
</defs>
</svg>
