<svg width="41" height="41" viewBox="0 0 41 41" fill="none" xmlns="http://www.w3.org/2000/svg">
<path d="M18.5371 7.71549H30.7038C32.5706 7.71549 33.504 7.7155 34.2171 8.07881C34.8443 8.39838 35.3542 8.90832 35.6738 9.53553C36.0371 10.2486 36.0371 11.182 36.0371 13.0488V15.2155C36.0371 16.7686 36.0371 17.5452 35.7834 18.1578C35.4451 18.9745 34.7961 19.6234 33.9794 19.9618C33.3668 20.2155 32.5902 20.2155 31.0371 20.2155M21.8704 32.7155H9.70378C7.83693 32.7155 6.90351 32.7155 6.19047 32.3522C5.56327 32.0326 5.05333 31.5227 4.73375 30.8955C4.37044 30.1824 4.37044 29.249 4.37044 27.3822V25.2155C4.37044 23.6624 4.37044 22.8858 4.62418 22.2732C4.96249 21.4565 5.6114 20.8075 6.42816 20.4692C7.04073 20.2155 7.8173 20.2155 9.37044 20.2155M17.3704 24.3822H23.0371C23.5038 24.3822 23.7372 24.3822 23.9154 24.2913C24.0722 24.2114 24.1997 24.084 24.2796 23.9272C24.3704 23.7489 24.3704 23.5155 24.3704 23.0488V17.3822C24.3704 16.9155 24.3704 16.6821 24.2796 16.5038C24.1997 16.347 24.0722 16.2196 23.9154 16.1397C23.7372 16.0488 23.5038 16.0488 23.0371 16.0488H17.3704C16.9037 16.0488 16.6704 16.0488 16.4921 16.1397C16.3353 16.2196 16.2078 16.347 16.1279 16.5038C16.0371 16.6821 16.0371 16.9155 16.0371 17.3822V23.0488C16.0371 23.5155 16.0371 23.7489 16.1279 23.9272C16.2078 24.084 16.3353 24.2114 16.4921 24.2913C16.6704 24.3822 16.9037 24.3822 17.3704 24.3822ZM29.8704 36.8822H35.5371C36.0038 36.8822 36.2372 36.8822 36.4154 36.7913C36.5722 36.7114 36.6997 36.584 36.7796 36.4272C36.8704 36.2489 36.8704 36.0155 36.8704 35.5488V29.8822C36.8704 29.4155 36.8704 29.1821 36.7796 29.0038C36.6997 28.847 36.5722 28.7196 36.4154 28.6397C36.2372 28.5488 36.0038 28.5488 35.5371 28.5488H29.8704C29.4037 28.5488 29.1704 28.5488 28.9921 28.6397C28.8353 28.7196 28.7078 28.847 28.6279 29.0038C28.5371 29.1821 28.5371 29.4155 28.5371 29.8822V35.5488C28.5371 36.0155 28.5371 36.2489 28.6279 36.4272C28.7078 36.584 28.8353 36.7114 28.9921 36.7913C29.1704 36.8822 29.4037 36.8822 29.8704 36.8822ZM4.87044 11.8822H10.5371C11.0038 11.8822 11.2372 11.8822 11.4154 11.7913C11.5722 11.7114 11.6997 11.584 11.7796 11.4272C11.8704 11.2489 11.8704 11.0155 11.8704 10.5488V4.88216C11.8704 4.41545 11.8704 4.1821 11.7796 4.00384C11.6997 3.84703 11.5722 3.71955 11.4154 3.63966C11.2372 3.54883 11.0038 3.54883 10.5371 3.54883H4.87044C4.40373 3.54883 4.17038 3.54883 3.99212 3.63966C3.83532 3.71955 3.70783 3.84703 3.62794 4.00384C3.53711 4.1821 3.53711 4.41545 3.53711 4.88216V10.5488C3.53711 11.0155 3.53711 11.2489 3.62794 11.4272C3.70783 11.584 3.83532 11.7114 3.99212 11.7913C4.17038 11.8822 4.40373 11.8822 4.87044 11.8822Z" stroke="#EE1338" stroke-width="2.66667" stroke-linecap="round" stroke-linejoin="round"/>
</svg>
