<svg width="31" height="31" viewBox="0 0 31 31" fill="none" xmlns="http://www.w3.org/2000/svg">
<g clip-path="url(#clip0_37238_14571)">
<g clip-path="url(#clip1_37238_14571)">
<path fill-rule="evenodd" clip-rule="evenodd" d="M13.4171 2.77513C13.6172 2.15762 14.1928 1.74023 14.8408 1.74023C15.4888 1.74023 16.0625 2.15762 16.2626 2.77513L18.7726 10.5092C18.8469 10.736 18.9918 10.9342 19.1843 11.0752C19.3787 11.2162 19.6131 11.2925 19.8514 11.2925L27.9838 11.2887C28.6318 11.2887 29.2054 11.706 29.4055 12.3236C29.6057 12.9392 29.3865 13.6139 28.8624 13.995L22.2833 18.7731C22.0889 18.9141 21.944 19.1123 21.8697 19.3391C21.7953 19.5678 21.7973 19.8137 21.8697 20.0405L24.3855 27.7727C24.5856 28.3902 24.3664 29.0648 23.8423 29.446C23.3182 29.8272 22.6073 29.8272 22.0831 29.446L15.5079 24.6641C15.3135 24.5231 15.0809 24.4469 14.8408 24.4469C14.6007 24.4469 14.3681 24.5231 14.1737 24.6641L7.59656 29.446C7.07245 29.8272 6.3634 29.8272 5.83929 29.446C5.31326 29.0648 5.09414 28.3902 5.29616 27.7727L7.81002 20.0405C7.88435 19.8137 7.88435 19.5678 7.81002 19.3391C7.7376 19.1123 7.59274 18.9141 7.39834 18.7731L0.819249 13.995C0.295132 13.6139 0.0740291 12.9392 0.274147 12.3236C0.47617 11.706 1.04986 11.2887 1.69786 11.2887L9.82833 11.2925C10.0685 11.2925 10.3029 11.2162 10.4954 11.0752C10.6898 10.9342 10.8347 10.736 10.9071 10.5092L13.4171 2.77513Z" fill="#F6BB06"/>
</g>
</g>
<defs>
<clipPath id="clip0_37238_14571">
<rect width="30" height="30" fill="white" transform="translate(0.203125 0.804688)"/>
</clipPath>
<clipPath id="clip1_37238_14571">
<rect width="30" height="28.125" fill="white" transform="translate(0.203125 1.74219)"/>
</clipPath>
</defs>
</svg>
