<svg width="21" height="21" viewBox="0 0 21 21" fill="none" xmlns="http://www.w3.org/2000/svg">
<path d="M18.2031 0.214844C19.3077 0.214844 20.2031 1.11027 20.2031 2.21484V18.2148C20.2031 19.3194 19.3077 20.2148 18.2031 20.2148H13.2031V12.6855H15.7656L16.1768 9.8623H13.2031V8.65527C13.2031 7.573 13.5084 7.03813 14.542 7.03809H16.2031V4.33789C15.9111 4.2993 15.2941 4.21484 14.1279 4.21484C11.6927 4.2149 10.2031 5.47518 10.2031 8.3457V9.8623H7.20312V12.6855H10.2031V20.2148H2.20312C1.09856 20.2148 0.203125 19.3194 0.203125 18.2148V2.21484C0.203125 1.11027 1.09856 0.214844 2.20312 0.214844H18.2031Z" fill="white"/>
</svg>
