<svg width="21" height="21" viewBox="0 0 21 21" fill="none" xmlns="http://www.w3.org/2000/svg">
<g clip-path="url(#clip0_37407_14744)">
<g clip-path="url(#clip1_37407_14744)">
<mask id="mask0_37407_14744" style="mask-type:luminance" maskUnits="userSpaceOnUse" x="1" y="1" width="19" height="19">
<path d="M19.2396 8.54883H10.6979V12.0905H15.6146C15.1562 14.3405 13.2396 15.6322 10.6979 15.6322C7.69792 15.6322 5.28125 13.2155 5.28125 10.2155C5.28125 7.2155 7.69792 4.79883 10.6979 4.79883C11.9896 4.79883 13.1562 5.25716 14.0729 6.00716L16.7396 3.34049C15.1146 1.92383 13.0312 1.04883 10.6979 1.04883C5.61458 1.04883 1.53125 5.13216 1.53125 10.2155C1.53125 15.2988 5.61458 19.3822 10.6979 19.3822C15.2812 19.3822 19.4479 16.0488 19.4479 10.2155C19.4479 9.67383 19.3646 9.0905 19.2396 8.54883Z" fill="white"/>
</mask>
<g mask="url(#mask0_37407_14744)">
<path d="M0.697266 15.6322V4.79883L7.7806 10.2155L0.697266 15.6322Z" fill="#FBBC05"/>
</g>
<mask id="mask1_37407_14744" style="mask-type:luminance" maskUnits="userSpaceOnUse" x="1" y="1" width="19" height="19">
<path d="M19.2396 8.54883H10.6979V12.0905H15.6146C15.1562 14.3405 13.2396 15.6322 10.6979 15.6322C7.69792 15.6322 5.28125 13.2155 5.28125 10.2155C5.28125 7.2155 7.69792 4.79883 10.6979 4.79883C11.9896 4.79883 13.1562 5.25716 14.0729 6.00716L16.7396 3.34049C15.1146 1.92383 13.0312 1.04883 10.6979 1.04883C5.61458 1.04883 1.53125 5.13216 1.53125 10.2155C1.53125 15.2988 5.61458 19.3822 10.6979 19.3822C15.2812 19.3822 19.4479 16.0488 19.4479 10.2155C19.4479 9.67383 19.3646 9.0905 19.2396 8.54883Z" fill="white"/>
</mask>
<g mask="url(#mask1_37407_14744)">
<path d="M0.697266 4.79818L7.7806 10.2148L10.6973 7.67318L20.6973 6.04818V0.214844H0.697266V4.79818Z" fill="#EA4335"/>
</g>
<mask id="mask2_37407_14744" style="mask-type:luminance" maskUnits="userSpaceOnUse" x="1" y="1" width="19" height="19">
<path d="M19.2396 8.54883H10.6979V12.0905H15.6146C15.1562 14.3405 13.2396 15.6322 10.6979 15.6322C7.69792 15.6322 5.28125 13.2155 5.28125 10.2155C5.28125 7.2155 7.69792 4.79883 10.6979 4.79883C11.9896 4.79883 13.1562 5.25716 14.0729 6.00716L16.7396 3.34049C15.1146 1.92383 13.0312 1.04883 10.6979 1.04883C5.61458 1.04883 1.53125 5.13216 1.53125 10.2155C1.53125 15.2988 5.61458 19.3822 10.6979 19.3822C15.2812 19.3822 19.4479 16.0488 19.4479 10.2155C19.4479 9.67383 19.3646 9.0905 19.2396 8.54883Z" fill="white"/>
</mask>
<g mask="url(#mask2_37407_14744)">
<path d="M0.697266 15.6315L13.1973 6.04818L16.4889 6.46484L20.6973 0.214844V20.2148H0.697266V15.6315Z" fill="#34A853"/>
</g>
<mask id="mask3_37407_14744" style="mask-type:luminance" maskUnits="userSpaceOnUse" x="1" y="1" width="19" height="19">
<path d="M19.2396 8.54883H10.6979V12.0905H15.6146C15.1562 14.3405 13.2396 15.6322 10.6979 15.6322C7.69792 15.6322 5.28125 13.2155 5.28125 10.2155C5.28125 7.2155 7.69792 4.79883 10.6979 4.79883C11.9896 4.79883 13.1562 5.25716 14.0729 6.00716L16.7396 3.34049C15.1146 1.92383 13.0312 1.04883 10.6979 1.04883C5.61458 1.04883 1.53125 5.13216 1.53125 10.2155C1.53125 15.2988 5.61458 19.3822 10.6979 19.3822C15.2812 19.3822 19.4479 16.0488 19.4479 10.2155C19.4479 9.67383 19.3646 9.0905 19.2396 8.54883Z" fill="white"/>
</mask>
<g mask="url(#mask3_37407_14744)">
<path d="M20.6986 20.2155L7.7819 10.2155L6.11523 8.9655L20.6986 4.79883V20.2155Z" fill="#4285F4"/>
</g>
</g>
</g>
<defs>
<clipPath id="clip0_37407_14744">
<rect width="20" height="20" fill="white" transform="translate(0.697266 0.214844)"/>
</clipPath>
<clipPath id="clip1_37407_14744">
<rect width="20" height="20" fill="white" transform="translate(0.697266 0.214844)"/>
</clipPath>
</defs>
</svg>
