<svg width="31" height="31" viewBox="0 0 31 31" fill="none" xmlns="http://www.w3.org/2000/svg">
<g clip-path="url(#clip0_37238_14595)">
<g clip-path="url(#clip1_37238_14595)">
<path fill-rule="evenodd" clip-rule="evenodd" d="M14.8408 24.4469C14.6007 24.4469 14.3681 24.5231 14.1737 24.6641L7.59656 29.446C7.07245 29.8272 6.3634 29.8272 5.83929 29.446C5.31326 29.0648 5.09414 28.3902 5.29616 27.7727L7.81002 20.0405C7.88435 19.8137 7.88435 19.5678 7.81002 19.3391C7.7376 19.1123 7.59274 18.9141 7.39834 18.7731L0.819249 13.995C0.295132 13.6139 0.0740291 12.9392 0.274147 12.3236C0.47617 11.706 1.04986 11.2887 1.69786 11.2887L9.82833 11.2925C10.0685 11.2925 10.3029 11.2162 10.4954 11.0752C10.6898 10.9342 10.8347 10.736 10.9071 10.5092L13.4171 2.77513C13.6172 2.15762 14.1928 1.74023 14.8408 1.74023V24.4469Z" fill="#F6BB06"/>
<path fill-rule="evenodd" clip-rule="evenodd" d="M14.8428 24.4469C15.0829 24.4469 15.3155 24.5231 15.5099 24.6641L22.087 29.446C22.6111 29.8272 23.3202 29.8272 23.8443 29.446C24.3703 29.0648 24.5895 28.3902 24.3874 27.7727L21.8736 20.0405C21.7992 19.8137 21.7992 19.5678 21.8736 19.3391C21.946 19.1123 22.0909 18.9141 22.2853 18.7731L28.8643 13.995C29.3885 13.6139 29.6096 12.9392 29.4094 12.3236C29.2074 11.706 28.6337 11.2887 27.9857 11.2887L19.8553 11.2925C19.6151 11.2925 19.3807 11.2162 19.1882 11.0752C18.9938 10.9342 18.8489 10.736 18.7765 10.5092L16.2665 2.77513C16.0664 2.15762 15.4908 1.74023 14.8428 1.74023V24.4469Z" fill="#CCCCCC"/>
</g>
</g>
<defs>
<clipPath id="clip0_37238_14595">
<rect width="30" height="30" fill="white" transform="translate(0.203125 0.804688)"/>
</clipPath>
<clipPath id="clip1_37238_14595">
<rect width="30" height="28.125" fill="white" transform="translate(0.203125 1.74219)"/>
</clipPath>
</defs>
</svg>
