<svg width="41" height="41" viewBox="0 0 41 41" fill="none" xmlns="http://www.w3.org/2000/svg">
<path d="M10.2038 33.6929H14.5543C15.1215 33.6929 15.6852 33.7604 16.2351 33.8954L20.8319 35.0125C21.8294 35.2555 22.8684 35.2791 23.8762 35.0833L28.9587 34.0945C30.3013 33.833 31.5364 33.1901 32.5043 32.2485L36.1003 28.7505C37.1272 27.7533 37.1272 26.1351 36.1003 25.1361C35.1757 24.2367 33.7117 24.1355 32.6657 24.8982L28.4748 27.9558C27.8746 28.3945 27.1443 28.6307 26.3932 28.6307H22.3463L24.9222 28.6306C26.3741 28.6306 27.5502 27.4866 27.5502 26.0742V25.5629C27.5502 24.3902 26.7297 23.3676 25.5606 23.0841L21.5848 22.1172C20.9377 21.9603 20.2751 21.881 19.609 21.881C18.001 21.881 15.0903 23.2124 15.0903 23.2124L10.2038 25.2558M3.53711 24.5477L3.53711 34.2143C3.53711 35.1478 3.53711 35.6145 3.71877 35.971C3.87855 36.2846 4.13352 36.5396 4.44712 36.6994C4.80364 36.881 5.27035 36.881 6.20378 36.881H7.53711C8.47053 36.881 8.93724 36.881 9.29376 36.6994C9.60736 36.5396 9.86233 36.2846 10.0221 35.971C10.2038 35.6145 10.2038 35.1478 10.2038 34.2143V24.5477C10.2038 23.6143 10.2038 23.1475 10.0221 22.791C9.86233 22.4774 9.60736 22.2225 9.29376 22.0627C8.93724 21.881 8.47053 21.881 7.53711 21.881H6.20378C5.27036 21.881 4.80365 21.881 4.44713 22.0627C4.13352 22.2225 3.87855 22.4774 3.71877 22.791C3.53711 23.1475 3.53711 23.6143 3.53711 24.5477ZM28.8561 6.20143C27.8614 4.12001 25.5681 3.01732 23.3378 4.08163C21.1076 5.14594 20.1574 7.66998 21.0912 9.88572C21.6683 11.2551 23.3217 13.9143 24.5006 15.7461C24.9362 16.4229 25.154 16.7613 25.4721 16.9592C25.745 17.129 26.0865 17.2206 26.4078 17.2099C26.7822 17.1976 27.1401 17.0134 27.8557 16.6451C29.7925 15.6482 32.554 14.1719 33.7385 13.2745C35.655 11.8225 36.1297 9.15364 34.6949 7.12474C33.26 5.09585 30.7582 4.89621 28.8561 6.20143Z" stroke="#EE1338" stroke-width="2.66667" stroke-linecap="round" stroke-linejoin="round"/>
</svg>
