<svg width="41" height="41" viewBox="0 0 41 41" fill="none" xmlns="http://www.w3.org/2000/svg">
<path d="M15.2038 35.2148V22.8815C15.2038 21.9481 15.2038 21.4814 15.3854 21.1249C15.5452 20.8113 15.8002 20.5563 16.1138 20.3965C16.4703 20.2148 16.937 20.2148 17.8704 20.2148H22.5371C23.4705 20.2148 23.9372 20.2148 24.2938 20.3965C24.6074 20.5563 24.8623 20.8113 25.0221 21.1249C25.2038 21.4814 25.2038 21.9481 25.2038 22.8815V35.2148M3.53711 16.0482L18.6038 4.74818C19.1775 4.31785 19.4644 4.10269 19.7795 4.01975C20.0576 3.94654 20.3499 3.94654 20.6281 4.01975C20.9431 4.10269 21.23 4.31785 21.8038 4.74818L36.8704 16.0482M6.87045 13.5482V29.8815C6.87045 31.7484 6.87045 32.6818 7.23376 33.3948C7.55334 34.022 8.06327 34.532 8.69048 34.8515C9.40352 35.2148 10.3369 35.2148 12.2038 35.2148H28.2038C30.0706 35.2148 31.004 35.2148 31.7171 34.8515C32.3443 34.532 32.8542 34.022 33.1738 33.3948C33.5371 32.6818 33.5371 31.7484 33.5371 29.8815V13.5482L23.4038 5.94818C22.2563 5.08753 21.6825 4.65721 21.0523 4.49133C20.4961 4.34491 19.9115 4.34491 19.3552 4.49133C18.7251 4.65721 18.1513 5.08753 17.0038 5.94818L6.87045 13.5482Z" stroke="#EE1338" stroke-width="3" stroke-linecap="round" stroke-linejoin="round"/>
</svg>
