<svg width="17" height="17" viewBox="0 0 17 17" fill="none" xmlns="http://www.w3.org/2000/svg">
<path d="M15.6094 1.41016C15.9531 1.50391 16.2031 1.78516 16.2031 2.12891C16.2031 10.1602 9.70312 16.6289 1.70312 16.6289C1.32812 16.6289 1.04688 16.4102 0.953125 16.0664L0.203125 12.8164C0.140625 12.4727 0.296875 12.0977 0.640625 11.9414L4.14062 10.4414C4.45312 10.3164 4.79688 10.4102 5.01562 10.6602L6.57812 12.5664C9.01562 11.4102 10.9844 9.41016 12.1094 7.03516L10.2031 5.47266C9.95312 5.25391 9.85938 4.91016 9.98438 4.59766L11.4844 1.09766C11.6406 0.753906 12.0156 0.566406 12.3594 0.660156L15.6094 1.41016Z" fill="white"/>
</svg>
