<svg width="45" height="33" viewBox="0 0 45 33" fill="none" xmlns="http://www.w3.org/2000/svg">
<path d="M15.9027 13.8657C19.0796 15.3748 21.0652 18.4722 21.0652 22.6816C21.0652 28.8766 16.6175 32.8477 10.5814 32.8477C4.54531 32.8477 0.0976562 28.8766 0.0976562 22.6816C0.0976562 20.1401 0.415346 18.234 3.19513 12.2773L8.7547 0.443359H19.8738L15.9027 13.8657ZM38.9352 13.8657C42.1121 15.3748 44.0977 18.4722 44.0977 22.6816C44.0977 28.8766 39.65 32.8477 33.6139 32.8477C27.5778 32.8477 23.1301 28.8766 23.1301 22.6816C23.1301 20.1401 23.4478 18.234 26.2276 12.2773L31.7872 0.443359H42.9063L38.9352 13.8657Z" fill="#EE1237"/>
</svg>
