<svg width="21" height="21" viewBox="0 0 21 21" fill="none" xmlns="http://www.w3.org/2000/svg">
<path d="M18.2031 0.214844C19.3077 0.214844 20.2031 1.11027 20.2031 2.21484V18.2148C20.2031 19.3194 19.3077 20.2148 18.2031 20.2148H2.20312C1.09856 20.2148 0.203125 19.3194 0.203125 18.2148V2.21484C0.203125 1.11027 1.09856 0.214844 2.20312 0.214844H18.2031ZM4.45312 7.57812V16.2148H7.13965V7.57812H4.45312ZM13.9805 7.36426C12.6736 7.36426 11.7973 8.08004 11.4385 8.75879H11.4023V7.57812H8.8252V16.2148H11.5098V11.9424C11.5098 10.8161 11.7244 9.72476 13.1221 9.72461C14.4998 9.72461 14.5186 11.0129 14.5186 12.0146V16.2148H17.2031V11.4785C17.2031 9.153 16.7005 7.36437 13.9805 7.36426ZM5.76953 3.21484C4.90438 3.21484 4.20312 3.91584 4.20312 4.7793C4.20335 5.64256 4.90361 6.34375 5.76953 6.34375C6.63271 6.34373 7.33474 5.64255 7.33496 4.7793C7.33496 3.91677 6.63284 3.21486 5.76953 3.21484Z" fill="white"/>
</svg>
