<svg width="25" height="25" viewBox="0 0 25 25" fill="none" xmlns="http://www.w3.org/2000/svg">
<path d="M3.752 6.9481L7.9705 9.577C10.029 10.8599 11.0583 11.5013 12.203 11.5011C13.3477 11.5009 14.3768 10.8592 16.4349 9.57566L20.6642 6.93817M11.2031 20.2148H13.2031C16.9744 20.2148 18.86 20.2148 20.0316 19.0433C21.2031 17.8717 21.2031 15.9861 21.2031 12.2148C21.2031 8.44361 21.2031 6.55799 20.0316 5.38642C18.86 4.21484 16.9744 4.21484 13.2031 4.21484H11.2031C7.43189 4.21484 5.54627 4.21484 4.3747 5.38642C3.20312 6.55799 3.20312 8.44361 3.20312 12.2148C3.20312 15.9861 3.20312 17.8717 4.3747 19.0433C5.54627 20.2148 7.43189 20.2148 11.2031 20.2148Z" stroke="#262626" stroke-width="1.6" stroke-linecap="round" stroke-linejoin="round"/>
</svg>
