<svg width="41" height="41" viewBox="0 0 41 41" fill="none" xmlns="http://www.w3.org/2000/svg">
<path d="M10.361 18.9302C10.2575 18.2625 10.2037 17.5786 10.2037 16.8822C10.2037 9.51836 16.2125 3.54883 23.6248 3.54883C31.037 3.54883 37.0458 9.51836 37.0458 16.8822C37.0458 18.5456 36.7392 20.1379 36.179 21.6063C36.0627 21.9113 36.0045 22.0638 35.9781 22.1828C35.9519 22.3008 35.9418 22.3838 35.939 22.5046C35.9361 22.6265 35.9527 22.7608 35.9857 23.0294L36.6567 28.4797C36.7293 29.0697 36.7656 29.3647 36.6675 29.5792C36.5815 29.7671 36.4288 29.9164 36.2389 29.998C36.0222 30.0912 35.7282 30.0481 35.14 29.9619L29.8312 29.1837C29.554 29.1431 29.4154 29.1227 29.2892 29.1234C29.1643 29.1242 29.0779 29.1334 28.9557 29.1591C28.8322 29.185 28.6744 29.2442 28.3587 29.3624C26.8866 29.9138 25.2911 30.2155 23.6248 30.2155C22.9278 30.2155 22.2432 30.1627 21.5749 30.061M12.9231 36.8822C17.8646 36.8822 21.8704 32.7781 21.8704 27.7155C21.8704 22.6529 17.8646 18.5488 12.9231 18.5488C7.98158 18.5488 3.97571 22.6529 3.97571 27.7155C3.97571 28.7331 4.13757 29.7121 4.43636 30.6267C4.56266 31.0133 4.62581 31.2067 4.64654 31.3387C4.66817 31.4766 4.67197 31.554 4.66391 31.6934C4.65619 31.8268 4.6228 31.9777 4.55602 32.2793L3.53711 36.8822L8.52845 36.2005C8.80089 36.1633 8.9371 36.1447 9.05606 36.1455C9.18131 36.1463 9.24779 36.1531 9.37062 36.1776C9.48728 36.2009 9.66071 36.2621 10.0076 36.3845C10.9214 36.707 11.9023 36.8822 12.9231 36.8822Z" stroke="#EE1338" stroke-width="2.66667" stroke-linecap="round" stroke-linejoin="round"/>
</svg>
