<svg width="73" height="73" viewBox="0 0 73 73" fill="none" xmlns="http://www.w3.org/2000/svg">
<path d="M58.7943 22.5455V19.8763C58.7943 18.991 58.0741 18.2708 57.1889 18.2708H43.8646V16.5586C43.8646 16.5291 43.8885 16.5052 43.918 16.5052H49.724C50.6093 16.5052 51.3294 15.7851 51.3294 14.8998V13.2408C51.3294 12.3555 50.6093 11.6354 49.724 11.6354H37.2292V10.7526C37.2292 10.324 36.8817 9.97656 36.4531 9.97656H17.3762C15.5763 9.97656 14.112 11.4409 14.112 13.2408V22.5455C13.1489 22.8703 12.4531 23.7815 12.4531 24.8529V31.4883C12.4531 32.5595 13.1489 33.4708 14.112 33.7957V60.5184C14.112 61.4037 14.8321 62.1239 15.7174 62.1239H16.6029C16.6017 62.1416 16.6002 62.1592 16.6002 62.1772C16.6002 62.6058 16.9477 62.9533 17.3762 62.9533H19.0351C19.4636 62.9533 19.8111 62.6058 19.8111 62.1772C19.8111 62.1592 19.8096 62.1416 19.8084 62.1239H53.0978C53.0966 62.1416 53.0952 62.1592 53.0952 62.1772C53.0952 62.6058 53.4426 62.9533 53.8712 62.9533H55.53C55.9586 62.9533 56.306 62.6058 56.306 62.1772C56.306 62.1592 56.3046 62.1416 56.3034 62.1239H57.1889C58.0741 62.1239 58.7943 61.4037 58.7943 60.5184V33.7957C59.7574 33.4709 60.4531 32.5596 60.4531 31.4883V24.8529C60.4532 23.7817 59.7575 22.8704 58.7943 22.5455ZM49.724 13.1874C49.7535 13.1874 49.7774 13.2113 49.7774 13.2408V14.8997C49.7774 14.9292 49.7535 14.9531 49.724 14.9531H43.918C43.0327 14.9531 42.3125 15.6732 42.3125 16.5585V18.2707H37.2292V13.1874H49.724ZM42.3125 29.0001C42.3125 29.0296 42.2886 29.0535 42.2591 29.0535H30.6471C30.6176 29.0535 30.5937 29.0296 30.5937 29.0001V22.3646C30.5937 22.3351 30.6176 22.3112 30.6471 22.3112H42.2591C42.2886 22.3112 42.3125 22.3351 42.3125 22.3646V29.0001ZM17.3762 11.5286H35.6771V20.7591H30.6471C29.7618 20.7591 29.0417 21.4792 29.0417 22.3645V22.4179H15.664V13.2408C15.664 12.2967 16.4321 11.5286 17.3762 11.5286ZM19.0885 33.9233V40.6655H15.664V33.9233H19.0885ZM22.4062 33.9233V40.6655H20.6406V33.9233H22.4062ZM48.948 33.9233V35.6889H23.9583V33.9233H48.948ZM52.2657 33.9233V40.6655H50.5001V33.9233H52.2657ZM57.2422 33.9233V40.6655H53.8177V33.9233H57.2422ZM23.9583 40.6655V37.2409H27.3828V38.1238C27.3828 38.5523 27.7303 38.8998 28.1589 38.8998C28.5874 38.8998 28.9349 38.5523 28.9349 38.1238V37.2409H35.6771V38.1238C35.6771 38.5523 36.0246 38.8998 36.4531 38.8998C36.8817 38.8998 37.2292 38.5523 37.2292 38.1238V37.2409H43.9714V38.1238C43.9714 38.5523 44.3188 38.8998 44.7474 38.8998C45.176 38.8998 45.5234 38.5523 45.5234 38.1238V37.2409H48.948V40.6655H23.9583ZM46.4596 60.5718H26.4466V59.689C26.4466 59.2022 26.8427 58.8062 27.3294 58.8062H45.5768C46.0636 58.8062 46.4596 59.2023 46.4596 59.689V60.5718ZM57.1889 60.5718H48.0117V59.689C48.0117 58.3464 46.9193 57.2541 45.5768 57.2541H27.3294C25.9868 57.2541 24.8946 58.3465 24.8946 59.689V60.5718H15.7174C15.6879 60.5718 15.664 60.5479 15.664 60.5184V55.4884H17.3765C17.8051 55.4884 18.1526 55.141 18.1526 54.7124C18.1526 54.2838 17.8051 53.9364 17.3765 53.9364H15.664V42.2175H57.2423V53.9364H20.6937C20.2651 53.9364 19.9177 54.2838 19.9177 54.7124C19.9177 55.141 20.2651 55.4884 20.6937 55.4884H57.2422V60.5184C57.2422 60.5478 57.2183 60.5718 57.1889 60.5718ZM58.9012 31.4883C58.9012 31.9747 58.5057 32.3705 58.0193 32.3711C58.019 32.3711 58.0187 32.3711 58.0183 32.3711C58.0175 32.3711 58.0169 32.3712 58.0163 32.3712H14.89C14.8893 32.3712 14.8886 32.3711 14.888 32.3711C14.8877 32.3711 14.8874 32.3711 14.8869 32.3711C14.4006 32.3706 14.0051 31.9748 14.0051 31.4883V24.8529C14.0051 24.3666 14.4003 23.9709 14.8864 23.9701C14.8869 23.9701 14.8875 23.9702 14.8879 23.9702C14.8889 23.9702 14.8898 23.9701 14.8909 23.9701H29.0416V29.0001C29.0416 29.8854 29.7617 30.6055 30.647 30.6055H42.259C43.1443 30.6055 43.8645 29.8854 43.8645 29.0001V23.9701H53.0417C53.4702 23.9701 53.8177 23.6226 53.8177 23.194C53.8177 22.7655 53.4702 22.418 53.0417 22.418H43.8645V22.3646C43.8645 21.4793 43.1443 20.7592 42.259 20.7592H37.2292V19.823H57.1889C57.2183 19.823 57.2422 19.8469 57.2422 19.8764V22.418H56.3594C55.9309 22.418 55.5834 22.7655 55.5834 23.194C55.5834 23.6226 55.9309 23.9701 56.3594 23.9701H58.0183C58.5051 23.9701 58.9011 24.3662 58.9011 24.853V31.4883H58.9012Z" fill="#EE1338" stroke="#EE1338" stroke-width="0.923077"/>
<path d="M47.2344 25.7383H46.4049C45.9764 25.7383 45.6289 26.0857 45.6289 26.5143C45.6289 26.9429 45.9764 27.2903 46.4049 27.2903H47.2344C47.6629 27.2903 48.0104 26.9429 48.0104 26.5143C48.0104 26.0857 47.663 25.7383 47.2344 25.7383Z" fill="#EE1338" stroke="#EE1338" stroke-width="0.923077"/>
<path d="M26.5 25.7383H25.6706C25.242 25.7383 24.8945 26.0857 24.8945 26.5143C24.8945 26.9429 25.242 27.2903 25.6706 27.2903H26.5C26.9285 27.2903 27.276 26.9429 27.276 26.5143C27.276 26.0857 26.9285 25.7383 26.5 25.7383Z" fill="#EE1338" stroke="#EE1338" stroke-width="0.923077"/>
<path d="M26.5 29.0508H25.6706C25.242 29.0508 24.8945 29.3982 24.8945 29.8268C24.8945 30.2554 25.242 30.6028 25.6706 30.6028H26.5C26.9285 30.6028 27.276 30.2554 27.276 29.8268C27.276 29.3982 26.9285 29.0508 26.5 29.0508Z" fill="#EE1338" stroke="#EE1338" stroke-width="0.923077"/>
<path d="M51.3828 25.7383H50.5534C50.1248 25.7383 49.7773 26.0857 49.7773 26.5143C49.7773 26.9429 50.1248 27.2903 50.5534 27.2903H51.3828C51.8114 27.2903 52.1588 26.9429 52.1588 26.5143C52.1588 26.0857 51.8114 25.7383 51.3828 25.7383Z" fill="#EE1338" stroke="#EE1338" stroke-width="0.923077"/>
<path d="M55.5293 25.7383H54.6999C54.2713 25.7383 53.9238 26.0857 53.9238 26.5143C53.9238 26.9429 54.2713 27.2903 54.6999 27.2903H55.5293C55.9578 27.2903 56.3053 26.9429 56.3053 26.5143C56.3053 26.0857 55.9578 25.7383 55.5293 25.7383Z" fill="#EE1338" stroke="#EE1338" stroke-width="0.923077"/>
<path d="M47.2344 29.0508H46.4049C45.9764 29.0508 45.6289 29.3982 45.6289 29.8268C45.6289 30.2554 45.9764 30.6028 46.4049 30.6028H47.2344C47.6629 30.6028 48.0104 30.2554 48.0104 29.8268C48.0104 29.3982 47.663 29.0508 47.2344 29.0508Z" fill="#EE1338" stroke="#EE1338" stroke-width="0.923077"/>
<path d="M51.3828 29.0508H50.5534C50.1248 29.0508 49.7773 29.3982 49.7773 29.8268C49.7773 30.2554 50.1248 30.6028 50.5534 30.6028H51.3828C51.8114 30.6028 52.1588 30.2554 52.1588 29.8268C52.1588 29.3982 51.8114 29.0508 51.3828 29.0508Z" fill="#EE1338" stroke="#EE1338" stroke-width="0.923077"/>
<path d="M55.5293 29.0508H54.6999C54.2713 29.0508 53.9238 29.3982 53.9238 29.8268C53.9238 30.2554 54.2713 30.6028 54.6999 30.6028H55.5293C55.9578 30.6028 56.3053 30.2554 56.3053 29.8268C56.3053 29.3982 55.9578 29.0508 55.5293 29.0508Z" fill="#EE1338" stroke="#EE1338" stroke-width="0.923077"/>
</svg>
