<svg width="25" height="25" viewBox="0 0 25 25" fill="none" xmlns="http://www.w3.org/2000/svg">
<path d="M22.2026 17.1349V20.1349C22.2037 20.4134 22.1467 20.6891 22.0351 20.9443C21.9235 21.1995 21.7599 21.4285 21.5546 21.6168C21.3494 21.8051 21.1071 21.9484 20.8433 22.0376C20.5795 22.1269 20.2999 22.16 20.0226 22.1349C16.9454 21.8006 13.9896 20.7491 11.3926 19.0649C8.9764 17.5296 6.92791 15.4811 5.39257 13.0649C3.70255 10.4561 2.65081 7.48594 2.32257 4.39494C2.29758 4.11841 2.33044 3.8397 2.41907 3.57657C2.5077 3.31343 2.65014 3.07163 2.83734 2.86656C3.02453 2.66149 3.25237 2.49765 3.50636 2.38546C3.76035 2.27328 4.03491 2.2152 4.31257 2.21494H7.31257C7.79788 2.21016 8.26836 2.38202 8.63633 2.69847C9.0043 3.01493 9.24465 3.45439 9.31257 3.93494C9.43919 4.89501 9.67402 5.83767 10.0126 6.74494C10.1471 7.10286 10.1762 7.49186 10.0965 7.86582C10.0167 8.23979 9.83143 8.58305 9.56257 8.85494L8.29257 10.1249C9.71613 12.6285 11.789 14.7014 14.2926 16.1249L15.5626 14.8549C15.8345 14.5861 16.1777 14.4008 16.5517 14.321C16.9257 14.2413 17.3146 14.2704 17.6726 14.4049C18.5798 14.7435 19.5225 14.9783 20.4826 15.1049C20.9683 15.1735 21.412 15.4181 21.7291 15.7924C22.0462 16.1667 22.2147 16.6445 22.2026 17.1349Z" stroke="#262626" stroke-width="1.6" stroke-linecap="round" stroke-linejoin="round"/>
</svg>
