<svg width="18" height="18" viewBox="0 0 18 18" fill="none" xmlns="http://www.w3.org/2000/svg">
<path d="M7.87513 10.1251L15.7501 2.25013M7.97082 10.3712L9.9419 15.4397C10.1155 15.8862 10.2024 16.1094 10.3275 16.1746C10.4359 16.2311 10.5651 16.2312 10.6736 16.1748C10.7988 16.1098 10.8859 15.8866 11.06 15.4403L16.0028 2.77453C16.16 2.37164 16.2386 2.1702 16.1956 2.04148C16.1583 1.92969 16.0706 1.84197 15.9588 1.80462C15.8301 1.76162 15.6286 1.84023 15.2257 1.99746L2.55992 6.94021C2.11362 7.11438 1.89046 7.20146 1.82543 7.32664C1.76906 7.43516 1.76913 7.56434 1.82563 7.67279C1.89081 7.7979 2.11407 7.88472 2.56058 8.05836L7.62908 10.0294C7.71972 10.0647 7.76504 10.0823 7.8032 10.1095C7.83702 10.1337 7.8666 10.1632 7.89072 10.1971C7.91794 10.2352 7.93557 10.2805 7.97082 10.3712Z" stroke="black" stroke-width="1.4" stroke-linecap="round" stroke-linejoin="round"/>
</svg>
