<svg width="41" height="41" viewBox="0 0 41 41" fill="none" xmlns="http://www.w3.org/2000/svg">
<path d="M20.2038 25.2155C22.9652 25.2155 25.2038 22.9769 25.2038 20.2155C25.2038 17.4541 22.9652 15.2155 20.2038 15.2155C17.4424 15.2155 15.2038 17.4541 15.2038 20.2155C15.2038 22.9769 17.4424 25.2155 20.2038 25.2155Z" stroke="#EE1338" stroke-width="3" stroke-linecap="round" stroke-linejoin="round"/>
<path d="M31.4159 24.761C31.2142 25.2179 31.154 25.7249 31.2432 26.2164C31.3323 26.7079 31.5666 27.1614 31.9159 27.5185L32.0068 27.6094C32.2886 27.8909 32.5121 28.2251 32.6646 28.593C32.8171 28.9608 32.8956 29.3551 32.8956 29.7534C32.8956 30.1516 32.8171 30.5459 32.6646 30.9138C32.5121 31.2817 32.2886 31.6159 32.0068 31.8973C31.7254 32.1791 31.3912 32.4026 31.0233 32.5551C30.6554 32.7076 30.2611 32.7861 29.8629 32.7861C29.4646 32.7861 29.0703 32.7076 28.7024 32.5551C28.3346 32.4026 28.0004 32.1791 27.7189 31.8973L27.628 31.8064C27.2709 31.4571 26.8174 31.2228 26.3259 31.1337C25.8344 31.0446 25.3274 31.1047 24.8704 31.3064C24.4223 31.4985 24.0401 31.8174 23.7709 32.2239C23.5017 32.6304 23.3572 33.1067 23.3553 33.5943V33.8519C23.3553 34.6555 23.036 35.4263 22.4677 35.9946C21.8994 36.5629 21.1287 36.8822 20.325 36.8822C19.5213 36.8822 18.7505 36.5629 18.1822 35.9946C17.6139 35.4263 17.2947 34.6555 17.2947 33.8519V33.7155C17.283 33.214 17.1206 32.7276 16.8288 32.3196C16.537 31.9116 16.1291 31.6008 15.6583 31.4276C15.2013 31.2259 14.6944 31.1658 14.2029 31.2549C13.7114 31.344 13.2578 31.5783 12.9007 31.9276L12.8098 32.0185C12.5284 32.3003 12.1942 32.5238 11.8263 32.6763C11.4584 32.8288 11.0641 32.9073 10.6659 32.9073C10.2677 32.9073 9.87335 32.8288 9.50547 32.6763C9.1376 32.5238 8.80339 32.3003 8.52196 32.0185C8.24021 31.7371 8.0167 31.4029 7.8642 31.035C7.7117 30.6671 7.63321 30.2728 7.63321 29.8746C7.63321 29.4764 7.7117 29.082 7.8642 28.7142C8.0167 28.3463 8.24021 28.0121 8.52196 27.7306L8.61287 27.6397C8.96217 27.2826 9.19648 26.8291 9.2856 26.3376C9.37472 25.8461 9.31456 25.3392 9.11287 24.8822C8.9208 24.434 8.60189 24.0518 8.19539 23.7826C7.78889 23.5134 7.31254 23.369 6.82499 23.367H6.56741C5.76373 23.367 4.99296 23.0477 4.42466 22.4795C3.85637 21.9112 3.53711 21.1404 3.53711 20.3367C3.53711 19.533 3.85637 18.7623 4.42466 18.194C4.99296 17.6257 5.76373 17.3064 6.56741 17.3064H6.70378C7.20528 17.2947 7.69166 17.1323 8.09968 16.8405C8.50771 16.5487 8.8185 16.1409 8.99166 15.67C9.19334 15.213 9.25351 14.7061 9.16439 14.2146C9.07527 13.7231 8.84095 13.2696 8.49166 12.9125L8.40075 12.8216C8.119 12.5401 7.89549 12.2059 7.74299 11.838C7.59049 11.4702 7.512 11.0758 7.512 10.6776C7.512 10.2794 7.59049 9.88506 7.74299 9.51719C7.89549 9.14932 8.119 8.81511 8.40075 8.53368C8.68218 8.25193 9.01639 8.02842 9.38426 7.87592C9.75213 7.72342 10.1465 7.64493 10.5447 7.64493C10.9429 7.64493 11.3372 7.72342 11.7051 7.87592C12.073 8.02842 12.4072 8.25193 12.6886 8.53368L12.7795 8.62459C13.1366 8.97388 13.5902 9.2082 14.0817 9.29732C14.5732 9.38644 15.0801 9.32628 15.5371 9.12459H15.6583C16.1065 8.93252 16.4887 8.61361 16.7579 8.20711C17.0271 7.80061 17.1715 7.32426 17.1735 6.83671V6.57913C17.1735 5.77544 17.4927 5.00468 18.061 4.43638C18.6293 3.86809 19.4001 3.54883 20.2038 3.54883C21.0075 3.54883 21.7782 3.86809 22.3465 4.43638C22.9148 5.00468 23.2341 5.77544 23.2341 6.57913V6.71549C23.236 7.20305 23.3805 7.6794 23.6497 8.0859C23.9189 8.4924 24.3011 8.81131 24.7492 9.00337C25.2062 9.20506 25.7132 9.26523 26.2047 9.17611C26.6962 9.08699 27.1497 8.85267 27.5068 8.50337L27.5977 8.41246C27.8791 8.13072 28.2134 7.90721 28.5812 7.75471C28.9491 7.60221 29.3434 7.52372 29.7417 7.52372C30.1399 7.52372 30.5342 7.60221 30.9021 7.75471C31.27 7.90721 31.6042 8.13072 31.8856 8.41246C32.1673 8.6939 32.3909 9.02811 32.5434 9.39598C32.6959 9.76385 32.7743 10.1582 32.7743 10.5564C32.7743 10.9546 32.6959 11.349 32.5434 11.7168C32.3909 12.0847 32.1673 12.4189 31.8856 12.7003L31.7947 12.7913C31.4454 13.1483 31.2111 13.6019 31.122 14.0934C31.0328 14.5849 31.093 15.0918 31.2947 15.5488V15.67C31.4868 16.1182 31.8057 16.5004 32.2122 16.7696C32.6187 17.0388 33.095 17.1832 33.5826 17.1852H33.8401C34.6438 17.1852 35.4146 17.5045 35.9829 18.0727C36.5512 18.641 36.8704 19.4118 36.8704 20.2155C36.8704 21.0192 36.5512 21.79 35.9829 22.3582C35.4146 22.9265 34.6438 23.2458 33.8401 23.2458H33.7038C33.2162 23.2477 32.7399 23.3922 32.3334 23.6614C31.9269 23.9306 31.608 24.3128 31.4159 24.761Z" stroke="#EE1338" stroke-width="3" stroke-linecap="round" stroke-linejoin="round"/>
</svg>
