<svg width="25" height="24" viewBox="0 0 25 24" fill="none" xmlns="http://www.w3.org/2000/svg">
<g clip-path="url(#clip0_37754_6352)">
<path d="M11.4239 2.77999C11.8641 1.8881 13.1359 1.8881 13.5761 2.77999L15.7475 7.17978C15.9223 7.53395 16.2602 7.77943 16.651 7.83623L21.5065 8.54176C22.4907 8.68479 22.8838 9.89435 22.1715 10.5886L18.6581 14.0134C18.3753 14.289 18.2462 14.6862 18.313 15.0755L19.1424 19.9113C19.3105 20.8916 18.2816 21.6392 17.4013 21.1764L13.0584 18.8932C12.7088 18.7094 12.2912 18.7094 11.9416 18.8932L7.59875 21.1764C6.71839 21.6392 5.68947 20.8916 5.8576 19.9113L6.68701 15.0755C6.75378 14.6862 6.62472 14.289 6.3419 14.0134L2.82846 10.5886C2.11624 9.89435 2.50925 8.68479 3.49352 8.54176L8.34897 7.83623C8.73982 7.77943 9.0777 7.53395 9.25249 7.17978L11.4239 2.77999Z" fill="#F59E0B"/>
</g>
<defs>
<clipPath id="clip0_37754_6352">
<rect width="24" height="24" fill="white" transform="translate(0.5)"/>
</clipPath>
</defs>
</svg>
