<svg width="18" height="18" viewBox="0 0 18 18" fill="none" xmlns="http://www.w3.org/2000/svg">
<g clip-path="url(#clip0_37407_14723)">
<g clip-path="url(#clip1_37407_14723)">
<g clip-path="url(#clip2_37407_14723)">
<path fill-rule="evenodd" clip-rule="evenodd" d="M8.02418 1.33253C8.13758 0.982613 8.46375 0.746094 8.83095 0.746094C9.19815 0.746094 9.52323 0.982613 9.63663 1.33253L11.059 5.71515C11.1011 5.84367 11.1832 5.95599 11.2923 6.03591C11.4024 6.11583 11.5353 6.15904 11.6703 6.15904L16.2786 6.15687C16.6458 6.15687 16.9709 6.39339 17.0843 6.74331C17.1977 7.09215 17.0735 7.47448 16.7765 7.69048L13.0483 10.398C12.9382 10.4779 12.8561 10.5903 12.814 10.7188C12.7719 10.8484 12.7729 10.9877 12.814 11.1162L14.2396 15.4978C14.353 15.8477 14.2288 16.23 13.9318 16.446C13.6348 16.662 13.2319 16.662 12.9349 16.446L9.20896 13.7363C9.0988 13.6564 8.96703 13.6132 8.83095 13.6132C8.69487 13.6132 8.5631 13.6564 8.45294 13.7363L4.72588 16.446C4.42888 16.662 4.02709 16.662 3.73009 16.446C3.43201 16.23 3.30784 15.8477 3.42232 15.4978L4.84684 11.1162C4.88896 10.9877 4.88896 10.8484 4.84684 10.7188C4.8058 10.5903 4.72371 10.4779 4.61355 10.398L0.8854 7.69048C0.5884 7.47448 0.463109 7.09215 0.576509 6.74331C0.690989 6.39339 1.01608 6.15687 1.38328 6.15687L5.99055 6.15904C6.12663 6.15904 6.25947 6.11583 6.36855 6.03591C6.47871 5.95599 6.5608 5.84367 6.60184 5.71515L8.02418 1.33253Z" fill="#F6BB06"/>
</g>
</g>
</g>
<defs>
<clipPath id="clip0_37407_14723">
<rect width="17" height="17" fill="white" transform="translate(0.537109 0.214844)"/>
</clipPath>
<clipPath id="clip1_37407_14723">
<rect width="17" height="17" fill="white" transform="translate(0.537109 0.214844)"/>
</clipPath>
<clipPath id="clip2_37407_14723">
<rect width="17" height="15.9375" fill="white" transform="translate(0.537109 0.746094)"/>
</clipPath>
</defs>
</svg>
