<svg width="121" height="27" viewBox="0 0 121 27" fill="none" xmlns="http://www.w3.org/2000/svg">
<g clip-path="url(#clip0_37238_14607)">
<g clip-path="url(#clip1_37238_14607)">
<g clip-path="url(#clip2_37238_14607)">
<path d="M28.0948 9.91474H24.0566V7.53516H35.0502V9.91474H31.012V20.154H28.0907V9.91474H28.0948Z" fill="#044D80"/>
<path d="M38.5686 11.7358C38.9103 11.269 39.3604 10.9065 39.9396 10.6731C40.4981 10.4397 41.1648 10.3105 41.9025 10.3105V12.9068C41.5941 12.8902 41.3816 12.8693 41.2732 12.8693C40.4606 12.8693 39.8313 13.086 39.3812 13.5361C38.9311 13.9862 38.6978 14.6696 38.6978 15.574V20.1539H35.8848V10.4564H38.5686V11.7358Z" fill="#044D80"/>
<path d="M52.8792 10.4576V20.1551H50.212V19.0007C49.8328 19.4133 49.3994 19.7383 48.8785 19.955C48.3576 20.1884 47.7991 20.2968 47.2032 20.2968C45.9238 20.2968 44.9153 19.9384 44.1735 19.1966C43.4359 18.4589 43.0566 17.3754 43.0566 15.9335V10.4534H45.8696V15.5168C45.8696 17.0837 46.5197 17.8588 47.8325 17.8588C48.4993 17.8588 49.041 17.6421 49.4536 17.1921C49.8662 16.7586 50.0662 16.1085 50.0662 15.2459V10.4492H52.8792V10.4576Z" fill="#044D80"/>
<path d="M58.2124 20.2998C57.3998 20.2998 56.6247 20.1914 55.8495 19.9914C55.0744 19.7914 54.4618 19.558 54.0117 19.2538L54.9494 17.2367C55.3828 17.5076 55.9037 17.741 56.5163 17.9035C57.1289 18.0827 57.7249 18.1744 58.3208 18.1744C59.5085 18.1744 60.1044 17.8869 60.1044 17.2909C60.1044 17.02 59.9419 16.8242 59.6169 16.695C59.2918 16.57 58.7875 16.4783 58.1208 16.3866C57.329 16.2616 56.6789 16.1324 56.1579 15.974C55.637 15.8115 55.2036 15.5406 54.8244 15.1447C54.4285 14.7488 54.2493 14.1904 54.2493 13.4486C54.2493 12.836 54.4285 12.2942 54.791 11.8066C55.1328 11.3399 55.6578 10.9773 56.3413 10.7064C57.0081 10.4356 57.8207 10.3105 58.7375 10.3105C59.421 10.3105 60.1086 10.3814 60.7921 10.5273C61.4588 10.6898 62.0173 10.8898 62.4674 11.1565L61.5297 13.1569C60.6837 12.6693 59.7461 12.4359 58.7375 12.4359C58.1416 12.4359 57.6915 12.5276 57.3873 12.6901C57.0789 12.8527 56.9372 13.0694 56.9372 13.3402C56.9372 13.6486 57.0998 13.8445 57.4248 13.9695C57.7499 14.0945 58.2708 14.2029 58.9751 14.3112C59.7669 14.4363 60.417 14.5821 60.9213 14.7238C61.4255 14.8863 61.8589 15.1572 62.2381 15.5531C62.6174 15.949 62.7966 16.5075 62.7966 17.2117C62.7966 17.8077 62.6174 18.3453 62.2548 18.8162C61.8964 19.2829 61.3713 19.6455 60.6879 19.8955C59.9836 20.1664 59.1751 20.2914 58.2166 20.2914L58.2124 20.2998Z" fill="#044D80"/>
<path d="M70.2355 19.6836C69.9647 19.8836 69.6229 20.0462 69.227 20.1337C68.8145 20.242 68.3977 20.2962 67.9476 20.2962C66.7933 20.2962 65.9098 20.0087 65.2638 19.4127C64.6512 18.8168 64.3262 17.9541 64.3262 16.8165V12.8324H62.8301V10.6696H64.3262V8.30664H67.1392V10.6696H69.5562V12.8324H67.1392V16.7789C67.1392 17.1915 67.2475 17.4999 67.4642 17.7166C67.6642 17.95 67.9685 18.0583 68.3477 18.0583C68.7978 18.0583 69.177 17.9333 69.4812 17.6958L70.2397 19.6794L70.2355 19.6836Z" fill="#044D80"/>
<path d="M71.2814 10.4568H74.0944V20.1543H71.2814V10.4568ZM72.6858 9.10653C72.1649 9.10653 71.7482 8.96067 71.4231 8.65646C71.0981 8.34807 70.9355 7.98967 70.9355 7.53959C70.9355 7.08952 71.0981 6.72695 71.4231 6.42273C71.7482 6.11435 72.1608 5.97266 72.6858 5.97266C73.2109 5.97266 73.6235 6.11851 73.9486 6.40606C74.2736 6.69361 74.4362 7.05618 74.4362 7.48542C74.4362 7.95217 74.2736 8.3314 73.9486 8.63979C73.6235 8.94817 73.2109 9.10653 72.6858 9.10653Z" fill="#044D80"/>
<path d="M82.0626 10.3105C83.2712 10.3105 84.2422 10.6731 84.984 11.3941C85.7216 12.115 86.0841 13.1777 86.0841 14.603V20.1539H83.2712V15.0364C83.2712 14.2612 83.1086 13.6861 82.7669 13.3069C82.4252 12.9277 81.9376 12.7485 81.3083 12.7485C80.604 12.7485 80.0289 12.9652 79.6122 13.3986C79.1955 13.8487 78.9829 14.4988 78.9829 15.3614V20.1581H76.1699V10.4606H78.8537V11.5941C79.233 11.1815 79.683 10.8731 80.2415 10.6398C80.7999 10.4231 81.3958 10.3147 82.0626 10.3147V10.3105Z" fill="#044D80"/>
<path d="M97.9608 6.78151V20.1547H95.277V19.0378C94.5727 19.8838 93.5642 20.3005 92.2473 20.3005C91.3263 20.3005 90.497 20.1005 89.7761 19.6879C89.0384 19.2753 88.4425 18.6961 88.0258 17.9376C87.6132 17.1792 87.3965 16.2957 87.3965 15.308C87.3965 14.3203 87.6132 13.4327 88.0258 12.6742C88.4425 11.9157 89.0343 11.3406 89.7761 10.9239C90.497 10.5113 91.3263 10.3113 92.2473 10.3113C93.4892 10.3113 94.4477 10.7072 95.1478 11.4823V6.77734H97.9608V6.78151ZM92.7349 17.9918C93.4392 17.9918 94.031 17.7376 94.5019 17.2542C94.9728 16.7666 95.2062 16.1206 95.2062 15.308C95.2062 14.4954 94.9728 13.8494 94.5019 13.3452C94.0351 12.8576 93.4392 12.6242 92.7349 12.6242C92.0306 12.6242 91.418 12.8576 90.9513 13.3452C90.4845 13.8494 90.247 14.4995 90.247 15.308C90.247 16.1165 90.4804 16.7666 90.9513 17.2542C91.418 17.7417 92.014 17.9918 92.7349 17.9918Z" fill="#044D80"/>
<path d="M109.514 15.3408C109.514 15.3784 109.497 15.6284 109.459 16.0993H102.125C102.25 16.6952 102.575 17.1828 103.063 17.5246C103.55 17.8663 104.163 18.0455 104.9 18.0455C105.405 18.0455 105.855 17.9746 106.251 17.8121C106.63 17.6663 106.988 17.4329 107.33 17.1078L108.826 18.7289C107.905 19.775 106.571 20.2959 104.825 20.2959C103.725 20.2959 102.771 20.0792 101.921 19.6458C101.075 19.2332 100.425 18.6373 99.9745 17.8788C99.5244 17.1203 99.291 16.2577 99.291 15.2992C99.291 14.3407 99.5244 13.4947 99.9745 12.7404C100.425 11.9653 101.037 11.3693 101.812 10.9568C102.604 10.5233 103.488 10.3066 104.463 10.3066C105.438 10.3066 106.267 10.5067 107.042 10.9192C107.817 11.3318 108.413 11.9111 108.864 12.6862C109.297 13.4447 109.514 14.3282 109.514 15.3367V15.3408ZM104.484 12.4403C103.854 12.4403 103.313 12.6195 102.879 12.9821C102.446 13.3405 102.175 13.8281 102.087 14.4615H106.863C106.771 13.8489 106.505 13.3613 106.071 12.9821C105.638 12.6195 105.117 12.4403 104.484 12.4403Z" fill="#044D80"/>
<path d="M117.012 20.1545L114.886 17.179L112.686 20.1545H109.623L113.353 15.2704L109.748 10.457H112.903L114.957 13.2867L117.066 10.457H120.058L116.453 15.1995L120.204 20.1545H117.012Z" fill="#044D80"/>
<path d="M10.2549 23.459C15.8063 23.459 20.3066 18.9586 20.3066 13.4072C20.3066 7.85579 15.8063 3.35547 10.2549 3.35547C4.70344 3.35547 0.203125 7.85579 0.203125 13.4072C0.203125 18.9586 4.70344 23.459 10.2549 23.459Z" fill="#1A976A"/>
<path fill-rule="evenodd" clip-rule="evenodd" d="M9.85572 13.1115L13.6147 9.34418C13.8939 9.06496 14.3482 9.06496 14.6274 9.34418L15.6401 10.361C15.9193 10.6402 15.9193 11.0986 15.6401 11.3779L10.6267 16.3954C10.6267 16.3954 10.5975 16.4371 10.5808 16.4496L9.56817 17.4664C9.42648 17.6039 9.24311 17.679 9.05975 17.679C8.87638 17.679 8.69302 17.6039 8.55133 17.4664L7.53865 16.4496C7.53865 16.4496 7.50531 16.4162 7.49281 16.3954L4.87152 13.7658C4.59231 13.4866 4.59231 13.0365 4.87152 12.7573L5.8842 11.7404C6.16341 11.4612 6.61766 11.4612 6.89687 11.7404L8.88472 13.7283L9.06391 13.9075L11.0934 15.9203L9.85989 13.1157L9.85572 13.1115Z" fill="white"/>
</g>
</g>
</g>
<defs>
<clipPath id="clip0_37238_14607">
<rect width="120" height="26" fill="white" transform="translate(0.203125 0.404297)"/>
</clipPath>
<clipPath id="clip1_37238_14607">
<rect width="120" height="26" fill="white" transform="translate(0.203125 0.404297)"/>
</clipPath>
<clipPath id="clip2_37238_14607">
<rect width="120" height="20.0993" fill="white" transform="translate(0.203125 3.35547)"/>
</clipPath>
</defs>
</svg>
