<svg width="41" height="41" viewBox="0 0 41 41" fill="none" xmlns="http://www.w3.org/2000/svg">
<path d="M11.8704 32.5488C11.8704 34.9421 13.7359 36.8822 16.0371 36.8822C18.3383 36.8822 20.2038 34.9421 20.2038 32.5488V18.5488M20.2038 18.5488C17.5202 18.5488 13.5371 20.2155 13.5371 20.2155C13.5371 20.2155 11.2207 18.5488 8.53711 18.5488C5.85349 18.5488 3.53711 20.2155 3.53711 20.2155C3.53711 11.0107 10.999 3.54883 20.2038 3.54883C29.4085 3.54883 36.8704 11.0107 36.8704 20.2155C36.8704 20.2155 34.5541 18.5488 31.8704 18.5488C29.1868 18.5488 26.8704 20.2155 26.8704 20.2155C26.8704 20.2155 22.8874 18.5488 20.2038 18.5488Z" stroke="#EE1338" stroke-width="3" stroke-linecap="round" stroke-linejoin="round"/>
</svg>
