<svg width="25" height="25" viewBox="0 0 25 25" fill="none" xmlns="http://www.w3.org/2000/svg">
<path d="M20.2031 21.2148V20.3577C20.2031 19.2953 20.2031 18.7642 20.1028 18.3248C19.7609 16.8268 18.5912 15.657 17.0932 15.3151C16.6538 15.2148 16.1226 15.2148 15.0603 15.2148H10.2031C8.33936 15.2148 7.40748 15.2148 6.67239 15.5193C5.69228 15.9253 4.91358 16.704 4.50761 17.6841C4.20312 18.4192 4.20312 19.3511 4.20312 21.2148M16.2031 7.21484C16.2031 9.42398 14.4123 11.2148 12.2031 11.2148C9.99399 11.2148 8.20312 9.42398 8.20312 7.21484C8.20312 5.0057 9.99399 3.21484 12.2031 3.21484C14.4123 3.21484 16.2031 5.0057 16.2031 7.21484Z" stroke="#262626" stroke-width="1.6" stroke-linecap="round"/>
</svg>
