<svg width="16" height="16" viewBox="0 0 16 16" fill="none" xmlns="http://www.w3.org/2000/svg">
<path d="M8.33984 7.24316C9.9967 7.24316 11.3398 5.90002 11.3398 4.24316C11.3398 2.58631 9.9967 1.24316 8.33984 1.24316C6.68299 1.24316 5.33984 2.58631 5.33984 4.24316C5.33984 5.90002 6.68299 7.24316 8.33984 7.24316ZM8.33984 7.24316V10.2432M8.33984 11.7432V10.2432M8.33984 10.2432C6.21484 10.2432 1.58984 10.6182 1.58984 12.4932C1.58984 13.2432 3.08984 14.7432 8.33984 14.7432C10.5898 14.7432 15.0898 14.2932 15.0898 12.4932C15.0898 11.8682 14.1898 10.5432 10.5898 10.2432" stroke="#262626" stroke-width="1.4" stroke-linecap="round"/>
</svg>
