<svg width="17" height="16" viewBox="0 0 17 16" fill="none" xmlns="http://www.w3.org/2000/svg">
<path d="M7.21449 9.11829L15.0895 1.24329M7.31017 9.36434L9.28125 14.4328C9.4549 14.8794 9.54172 15.1026 9.66682 15.1678C9.77527 15.2243 9.90446 15.2244 10.013 15.168C10.1382 15.103 10.2252 14.8798 10.3994 14.4335L15.3422 1.76769C15.4994 1.36481 15.578 1.16336 15.535 1.03464C15.4976 0.922857 15.4099 0.835131 15.2981 0.797786C15.1694 0.754785 14.968 0.833396 14.5651 0.990619L1.89928 5.93337C1.45297 6.10754 1.22982 6.19463 1.16479 6.31981C1.10841 6.42832 1.10849 6.55751 1.16499 6.66596C1.23017 6.79106 1.45342 6.87788 1.89993 7.05152L6.96844 9.02261C7.05907 9.05785 7.10439 9.07548 7.14255 9.1027C7.17637 9.12682 7.20595 9.1564 7.23008 9.19023C7.2573 9.22839 7.27492 9.27371 7.31017 9.36434Z" stroke="black" stroke-width="1.4" stroke-linecap="round" stroke-linejoin="round"/>
</svg>
