<svg width="21" height="20" viewBox="0 0 21 20" fill="none" xmlns="http://www.w3.org/2000/svg">
<path d="M18.6377 0.483398C19.4317 0.483594 20.0751 1.10786 20.0752 1.87695V18.5459C20.0752 19.3153 19.4317 19.9393 18.6377 19.9395H2.05664C1.26301 19.9392 0.619141 19.3151 0.619141 18.5459V1.87695L0.626953 1.73438C0.700759 1.0322 1.31267 0.483609 2.05664 0.483398H18.6377ZM3.62109 16.7637H6.53223V8.00391H3.62109V16.7637ZM13.6787 7.79883C12.1344 7.79897 11.4426 8.64843 11.0557 9.24512V8.00488H8.14355C8.18151 8.82844 8.14358 16.7582 8.14355 16.7637H11.0547V11.8721C11.0547 11.6108 11.0736 11.3488 11.1504 11.1621C11.3607 10.6389 11.8402 10.0968 12.6445 10.0967C13.6977 10.0967 14.1191 10.9005 14.1191 12.0781V16.7637H17.0303V11.7412C17.0303 9.05087 15.5941 7.79883 13.6787 7.79883ZM5.09668 3.78223C4.10035 3.78223 3.44936 4.43542 3.44922 5.29492C3.44922 6.13536 4.08074 6.80839 5.05762 6.80859H5.07715C6.09221 6.80859 6.72461 6.13549 6.72461 5.29492C6.70545 4.43545 6.09217 3.78233 5.09668 3.78223Z" fill="#262626"/>
</svg>
