<svg width="13" height="18" viewBox="0 0 13 18" fill="none" xmlns="http://www.w3.org/2000/svg">
<path d="M6.33984 13.1182H6.34734M3.48984 16.4932H9.18984C10.0299 16.4932 10.45 16.4932 10.7708 16.3297C11.0531 16.1859 11.2825 15.9564 11.4264 15.6742C11.5898 15.3533 11.5898 14.9332 11.5898 14.0932V3.89316C11.5898 3.05309 11.5898 2.63305 11.4264 2.31218C11.2825 2.02994 11.0531 1.80046 10.7708 1.65665C10.45 1.49316 10.0299 1.49316 9.18984 1.49316H3.48984C2.64977 1.49316 2.22973 1.49316 1.90886 1.65665C1.62661 1.80046 1.39714 2.02994 1.25333 2.31218C1.08984 2.63305 1.08984 3.05309 1.08984 3.89316V14.0932C1.08984 14.9332 1.08984 15.3533 1.25333 15.6742C1.39714 15.9564 1.62661 16.1859 1.90886 16.3297C2.22973 16.4932 2.64976 16.4932 3.48984 16.4932ZM6.71484 13.1182C6.71484 13.3253 6.54695 13.4932 6.33984 13.4932C6.13274 13.4932 5.96484 13.3253 5.96484 13.1182C5.96484 12.9111 6.13274 12.7432 6.33984 12.7432C6.54695 12.7432 6.71484 12.9111 6.71484 13.1182Z" stroke="black" stroke-width="1.4" stroke-linecap="round" stroke-linejoin="round"/>
</svg>
