<svg width="22" height="22" viewBox="0 0 22 22" fill="none" xmlns="http://www.w3.org/2000/svg">
<path d="M21.1827 1.4669C21.6442 1.59275 21.9798 1.97033 21.9798 2.43181C21.9798 13.2137 13.2536 21.8979 2.51373 21.8979C2.0103 21.8979 1.63272 21.6042 1.50686 21.1427L0.5 16.7796C0.416095 16.3182 0.625858 15.8147 1.08734 15.605L5.78604 13.5912C6.20557 13.4234 6.66705 13.5493 6.96072 13.8849L9.05835 16.444C12.3307 14.8918 14.9737 12.2068 16.484 9.01838L13.9249 6.92075C13.5892 6.62708 13.4634 6.1656 13.6312 5.74607L15.6449 1.04737C15.8547 0.585889 16.3581 0.334173 16.8196 0.460031L21.1827 1.4669Z" fill="#304659"/>
</svg>
