<svg width="40" height="41" viewBox="0 0 40 41" fill="none" xmlns="http://www.w3.org/2000/svg">
<path opacity="0.4" fill-rule="evenodd" clip-rule="evenodd" d="M8.22048 30.9669C7.69978 30.4462 7.69978 29.602 8.22048 29.0813L17.284 20.0178L8.22638 10.9602C7.70568 10.4395 7.70569 9.59526 8.22638 9.07457C8.74708 8.55387 9.5913 8.55387 10.112 9.07457L20.1124 19.075C20.3625 19.325 20.5029 19.6642 20.5029 20.0178C20.5029 20.3714 20.3625 20.7105 20.1124 20.9606L10.1061 30.9669C9.5854 31.4876 8.74118 31.4876 8.22048 30.9669Z" fill="black"/>
<path fill-rule="evenodd" clip-rule="evenodd" d="M19.887 30.9669C19.3663 30.4462 19.3663 29.602 19.887 29.0813L28.9505 20.0178L19.8929 10.9602C19.3722 10.4395 19.3722 9.59526 19.8929 9.07457C20.4136 8.55387 21.2578 8.55387 21.7785 9.07457L31.7789 19.075C32.029 19.325 32.1694 19.6642 32.1694 20.0178C32.1694 20.3714 32.029 20.7105 31.7789 20.9606L21.7726 30.9669C21.2519 31.4876 20.4077 31.4876 19.887 30.9669Z" fill="#EE1338"/>
</svg>
